M48
; DRILL file {KiCad 6.0.4+dfsg-1} date Wed Apr 13 00:03:48 2022
; FORMAT={-:-/ absolute / metric / decimal}
; #@! TF.CreationDate,2022-04-13T00:03:48+02:00
; #@! TF.GenerationSoftware,Kicad,Pcbnew,6.0.4+dfsg-1
; #@! TF.FileFunction,Plated,1,2,PTH
FMAT,2
METRIC
; #@! TA.AperFunction,Plated,PTH,ViaDrill
T1C0.400
; #@! TA.AperFunction,Plated,PTH,ComponentDrill
T2C0.400
; #@! TA.AperFunction,Plated,PTH,ComponentDrill
T3C1.000
; #@! TA.AperFunction,Plated,PTH,ComponentDrill
T4C1.500
; #@! TA.AperFunction,Plated,PTH,ComponentDrill
T5C1.700
%
G90
G05
T1
X63.881Y-75.565
X64.135Y-68.58
X65.405Y-76.2
X69.215Y-76.2
X71.03Y-69.385
X71.12Y-76.2
X73.025Y-76.2
X75.946Y-65.786
X77.47Y-66.281
X78.74Y-77.47
X78.994Y-70.879
X79.375Y-61.595
X79.375Y-62.865
X80.01Y-57.658
X80.01Y-62.23
X80.518Y-70.929
X80.645Y-61.595
X80.645Y-62.865
X82.042Y-69.342
X82.366Y-72.136
X82.366Y-74.386
X82.677Y-75.438
X83.439Y-77.089
X83.641Y-73.261
X83.82Y-64.77
X84.766Y-74.386
X84.836Y-72.136
X85.09Y-75.692
X85.217Y-78.105
X86.36Y-52.875
X86.614Y-76.073
X87.503Y-77.978
X87.757Y-75.057
X87.913Y-61.464
X88.138Y-70.485
X88.138Y-73.279
X88.646Y-67.564
X88.9Y-55.075
X88.9Y-69.215
X88.9Y-77.089
X89.027Y-72.009
X89.789Y-75.692
X90.043Y-74.422
X90.17Y-63.373
X90.17Y-65.278
X90.678Y-73.406
X91.4Y-64.1
X91.439Y-47.614
X91.439Y-51.426
X91.439Y-62.863
X91.44Y-46.355
X91.44Y-48.895
X91.44Y-50.165
X91.44Y-52.705
X91.44Y-53.975
X91.44Y-55.245
X91.44Y-56.515
X91.44Y-57.785
X91.44Y-59.055
X91.44Y-60.325
X91.44Y-61.595
X91.44Y-69.088
X91.694Y-67.564
X92.075Y-45.72
X92.075Y-66.659
X92.456Y-70.231
X93.345Y-45.708
X93.345Y-66.675
X93.345Y-73.152
X93.472Y-71.12
X94.615Y-45.72
X94.615Y-66.675
X94.996Y-71.12
X94.996Y-73.152
X95.885Y-45.72
X95.885Y-66.675
X97.155Y-45.72
X97.155Y-66.675
X98.425Y-45.72
X98.425Y-66.675
X99.695Y-45.72
X99.695Y-66.675
X100.965Y-45.72
X100.965Y-66.675
X102.235Y-45.72
X102.235Y-66.675
X103.505Y-45.72
X103.505Y-66.675
T2
X98.382Y-47.134
X98.382Y-49.134
X98.382Y-51.134
X98.382Y-53.134
X98.382Y-55.134
X98.382Y-57.134
X98.382Y-59.134
X98.382Y-61.134
X98.382Y-63.134
X103.382Y-47.134
X103.382Y-49.134
X103.382Y-51.134
X103.382Y-53.134
X103.382Y-55.134
X103.382Y-57.134
X103.382Y-59.134
X103.382Y-61.134
X103.382Y-63.134
X103.382Y-65.134
T3
X38.1Y-35.56
X38.1Y-38.1
X38.1Y-83.82
X38.1Y-86.36
X40.64Y-35.56
X40.64Y-38.1
X40.64Y-83.82
X40.64Y-86.36
X43.18Y-35.56
X43.18Y-38.1
X43.18Y-83.82
X43.18Y-86.36
X44.45Y-75.57
X44.45Y-78.11
X45.72Y-35.56
X45.72Y-38.1
X45.72Y-83.82
X45.72Y-86.36
X48.26Y-35.56
X48.26Y-38.1
X48.26Y-75.57
X48.26Y-78.11
X48.26Y-83.82
X48.26Y-86.36
X50.8Y-35.56
X50.8Y-38.1
X50.8Y-83.82
X50.8Y-86.36
X52.07Y-75.57
X52.07Y-78.11
X53.34Y-35.56
X53.34Y-38.1
X53.34Y-83.82
X53.34Y-86.36
X55.88Y-35.56
X55.88Y-38.1
X55.88Y-73.01
X55.88Y-75.55
X55.88Y-78.09
X55.88Y-83.82
X55.88Y-86.36
X58.42Y-35.56
X58.42Y-38.1
X58.42Y-83.82
X58.42Y-86.36
X60.96Y-35.56
X60.96Y-38.1
X60.96Y-83.82
X60.96Y-86.36
X63.5Y-35.56
X63.5Y-38.1
X63.5Y-83.82
X63.5Y-86.36
X66.04Y-35.56
X66.04Y-38.1
X66.04Y-83.82
X66.04Y-86.36
X68.58Y-35.56
X68.58Y-38.1
X68.58Y-83.82
X68.58Y-86.36
X71.12Y-35.56
X71.12Y-38.1
X71.12Y-83.82
X71.12Y-86.36
X73.66Y-35.56
X73.66Y-38.1
X73.66Y-83.82
X73.66Y-86.36
X76.2Y-35.56
X76.2Y-38.1
X76.2Y-83.82
X76.2Y-86.36
X78.74Y-35.56
X78.74Y-38.1
X78.74Y-83.82
X78.74Y-86.36
X81.28Y-35.56
X81.28Y-38.1
X81.28Y-83.82
X81.28Y-86.36
X83.82Y-35.56
X83.82Y-38.1
X83.82Y-83.82
X83.82Y-86.36
X86.36Y-35.56
X86.36Y-38.1
X86.36Y-83.82
X86.36Y-86.36
X88.9Y-35.56
X88.9Y-38.1
X88.9Y-83.82
X88.9Y-86.36
X91.44Y-35.56
X91.44Y-38.1
X91.44Y-83.82
X91.44Y-86.36
X93.98Y-35.56
X93.98Y-38.1
X93.98Y-83.82
X93.98Y-86.36
T4
X99.822Y-72.136
T5
X97.282Y-69.596
X97.282Y-74.676
X102.362Y-69.596
X102.362Y-74.676
T0
M30
