%TF.GenerationSoftware,KiCad,Pcbnew,6.0.4+dfsg-1*%
%TF.CreationDate,2022-04-13T00:03:44+02:00*%
%TF.ProjectId,bbb-mrf89xa-cape,6262622d-6d72-4663-9839-78612d636170,rev?*%
%TF.SameCoordinates,Original*%
%TF.FileFunction,Legend,Bot*%
%TF.FilePolarity,Positive*%
%FSLAX46Y46*%
G04 Gerber Fmt 4.6, Leading zero omitted, Abs format (unit mm)*
G04 Created by KiCad (PCBNEW 6.0.4+dfsg-1) date 2022-04-13 00:03:44*
%MOMM*%
%LPD*%
G01*
G04 APERTURE LIST*
%ADD10C,1.000000*%
%ADD11R,1.700000X1.700000*%
%ADD12O,1.700000X1.700000*%
%ADD13C,4.300000*%
%ADD14C,2.050000*%
%ADD15C,2.250000*%
G04 APERTURE END LIST*
%LPC*%
D10*
X86603333Y-51506666D02*
X86603333Y-44506666D01*
X84270000Y-49506666D01*
X81936666Y-44506666D01*
X81936666Y-51506666D01*
X74603333Y-51506666D02*
X76936666Y-48173333D01*
X78603333Y-51506666D02*
X78603333Y-44506666D01*
X75936666Y-44506666D01*
X75270000Y-44840000D01*
X74936666Y-45173333D01*
X74603333Y-45840000D01*
X74603333Y-46840000D01*
X74936666Y-47506666D01*
X75270000Y-47840000D01*
X75936666Y-48173333D01*
X78603333Y-48173333D01*
X69270000Y-47840000D02*
X71603333Y-47840000D01*
X71603333Y-51506666D02*
X71603333Y-44506666D01*
X68270000Y-44506666D01*
X64603333Y-47506666D02*
X65270000Y-47173333D01*
X65603333Y-46840000D01*
X65936666Y-46173333D01*
X65936666Y-45840000D01*
X65603333Y-45173333D01*
X65270000Y-44840000D01*
X64603333Y-44506666D01*
X63270000Y-44506666D01*
X62603333Y-44840000D01*
X62270000Y-45173333D01*
X61936666Y-45840000D01*
X61936666Y-46173333D01*
X62270000Y-46840000D01*
X62603333Y-47173333D01*
X63270000Y-47506666D01*
X64603333Y-47506666D01*
X65270000Y-47840000D01*
X65603333Y-48173333D01*
X65936666Y-48840000D01*
X65936666Y-50173333D01*
X65603333Y-50840000D01*
X65270000Y-51173333D01*
X64603333Y-51506666D01*
X63270000Y-51506666D01*
X62603333Y-51173333D01*
X62270000Y-50840000D01*
X61936666Y-50173333D01*
X61936666Y-48840000D01*
X62270000Y-48173333D01*
X62603333Y-47840000D01*
X63270000Y-47506666D01*
X58603333Y-51506666D02*
X57270000Y-51506666D01*
X56603333Y-51173333D01*
X56270000Y-50840000D01*
X55603333Y-49840000D01*
X55270000Y-48506666D01*
X55270000Y-45840000D01*
X55603333Y-45173333D01*
X55936666Y-44840000D01*
X56603333Y-44506666D01*
X57936666Y-44506666D01*
X58603333Y-44840000D01*
X58936666Y-45173333D01*
X59270000Y-45840000D01*
X59270000Y-47506666D01*
X58936666Y-48173333D01*
X58603333Y-48506666D01*
X57936666Y-48840000D01*
X56603333Y-48840000D01*
X55936666Y-48506666D01*
X55603333Y-48173333D01*
X55270000Y-47506666D01*
X52936666Y-44506666D02*
X48270000Y-51506666D01*
X48270000Y-44506666D02*
X52936666Y-51506666D01*
X45936666Y-49506666D02*
X42603333Y-49506666D01*
X46603333Y-51506666D02*
X44270000Y-44506666D01*
X41936666Y-51506666D01*
X71936666Y-62110000D02*
X72270000Y-62443333D01*
X73270000Y-62776666D01*
X73936666Y-62776666D01*
X74936666Y-62443333D01*
X75603333Y-61776666D01*
X75936666Y-61110000D01*
X76270000Y-59776666D01*
X76270000Y-58776666D01*
X75936666Y-57443333D01*
X75603333Y-56776666D01*
X74936666Y-56110000D01*
X73936666Y-55776666D01*
X73270000Y-55776666D01*
X72270000Y-56110000D01*
X71936666Y-56443333D01*
X65936666Y-62776666D02*
X65936666Y-59110000D01*
X66270000Y-58443333D01*
X66936666Y-58110000D01*
X68270000Y-58110000D01*
X68936666Y-58443333D01*
X65936666Y-62443333D02*
X66603333Y-62776666D01*
X68270000Y-62776666D01*
X68936666Y-62443333D01*
X69270000Y-61776666D01*
X69270000Y-61110000D01*
X68936666Y-60443333D01*
X68270000Y-60110000D01*
X66603333Y-60110000D01*
X65936666Y-59776666D01*
X62603333Y-58110000D02*
X62603333Y-65110000D01*
X62603333Y-58443333D02*
X61936666Y-58110000D01*
X60603333Y-58110000D01*
X59936666Y-58443333D01*
X59603333Y-58776666D01*
X59270000Y-59443333D01*
X59270000Y-61443333D01*
X59603333Y-62110000D01*
X59936666Y-62443333D01*
X60603333Y-62776666D01*
X61936666Y-62776666D01*
X62603333Y-62443333D01*
X53603333Y-62443333D02*
X54270000Y-62776666D01*
X55603333Y-62776666D01*
X56270000Y-62443333D01*
X56603333Y-61776666D01*
X56603333Y-59110000D01*
X56270000Y-58443333D01*
X55603333Y-58110000D01*
X54270000Y-58110000D01*
X53603333Y-58443333D01*
X53270000Y-59110000D01*
X53270000Y-59776666D01*
X56603333Y-60443333D01*
D11*
X52070000Y-78110000D03*
D12*
X52070000Y-75570000D03*
D13*
X99058000Y-81907000D03*
D11*
X44450000Y-78110000D03*
D12*
X44450000Y-75570000D03*
D14*
X99822000Y-72136000D03*
D15*
X97282000Y-69596000D03*
X102362000Y-69596000D03*
X97282000Y-74676000D03*
X102362000Y-74676000D03*
D11*
X48260000Y-78110000D03*
D12*
X48260000Y-75570000D03*
D11*
X55880000Y-78090000D03*
D12*
X55880000Y-75550000D03*
X55880000Y-73010000D03*
D13*
X99058000Y-39997000D03*
D11*
X38100000Y-38100000D03*
D12*
X38100000Y-35560000D03*
X40640000Y-38100000D03*
X40640000Y-35560000D03*
X43180000Y-38100000D03*
X43180000Y-35560000D03*
X45720000Y-38100000D03*
X45720000Y-35560000D03*
X48260000Y-38100000D03*
X48260000Y-35560000D03*
X50800000Y-38100000D03*
X50800000Y-35560000D03*
X53340000Y-38100000D03*
X53340000Y-35560000D03*
X55880000Y-38100000D03*
X55880000Y-35560000D03*
X58420000Y-38100000D03*
X58420000Y-35560000D03*
X60960000Y-38100000D03*
X60960000Y-35560000D03*
X63500000Y-38100000D03*
X63500000Y-35560000D03*
X66040000Y-38100000D03*
X66040000Y-35560000D03*
X68580000Y-38100000D03*
X68580000Y-35560000D03*
X71120000Y-38100000D03*
X71120000Y-35560000D03*
X73660000Y-38100000D03*
X73660000Y-35560000D03*
X76200000Y-38100000D03*
X76200000Y-35560000D03*
X78740000Y-38100000D03*
X78740000Y-35560000D03*
X81280000Y-38100000D03*
X81280000Y-35560000D03*
X83820000Y-38100000D03*
X83820000Y-35560000D03*
X86360000Y-38100000D03*
X86360000Y-35560000D03*
X88900000Y-38100000D03*
X88900000Y-35560000D03*
X91440000Y-38100000D03*
X91440000Y-35560000D03*
X93980000Y-38100000D03*
X93980000Y-35560000D03*
D13*
X33018000Y-36822000D03*
D11*
X38100000Y-86360000D03*
D12*
X38100000Y-83820000D03*
X40640000Y-86360000D03*
X40640000Y-83820000D03*
X43180000Y-86360000D03*
X43180000Y-83820000D03*
X45720000Y-86360000D03*
X45720000Y-83820000D03*
X48260000Y-86360000D03*
X48260000Y-83820000D03*
X50800000Y-86360000D03*
X50800000Y-83820000D03*
X53340000Y-86360000D03*
X53340000Y-83820000D03*
X55880000Y-86360000D03*
X55880000Y-83820000D03*
X58420000Y-86360000D03*
X58420000Y-83820000D03*
X60960000Y-86360000D03*
X60960000Y-83820000D03*
X63500000Y-86360000D03*
X63500000Y-83820000D03*
X66040000Y-86360000D03*
X66040000Y-83820000D03*
X68580000Y-86360000D03*
X68580000Y-83820000D03*
X71120000Y-86360000D03*
X71120000Y-83820000D03*
X73660000Y-86360000D03*
X73660000Y-83820000D03*
X76200000Y-86360000D03*
X76200000Y-83820000D03*
X78740000Y-86360000D03*
X78740000Y-83820000D03*
X81280000Y-86360000D03*
X81280000Y-83820000D03*
X83820000Y-86360000D03*
X83820000Y-83820000D03*
X86360000Y-86360000D03*
X86360000Y-83820000D03*
X88900000Y-86360000D03*
X88900000Y-83820000D03*
X91440000Y-86360000D03*
X91440000Y-83820000D03*
X93980000Y-86360000D03*
X93980000Y-83820000D03*
D13*
X33018000Y-85082000D03*
M02*
