%TF.GenerationSoftware,KiCad,Pcbnew,6.0.4+dfsg-1*%
%TF.CreationDate,2022-04-13T00:03:44+02:00*%
%TF.ProjectId,bbb-mrf89xa-cape,6262622d-6d72-4663-9839-78612d636170,rev?*%
%TF.SameCoordinates,Original*%
%TF.FileFunction,Soldermask,Top*%
%TF.FilePolarity,Negative*%
%FSLAX46Y46*%
G04 Gerber Fmt 4.6, Leading zero omitted, Abs format (unit mm)*
G04 Created by KiCad (PCBNEW 6.0.4+dfsg-1) date 2022-04-13 00:03:44*
%MOMM*%
%LPD*%
G01*
G04 APERTURE LIST*
G04 Aperture macros list*
%AMRoundRect*
0 Rectangle with rounded corners*
0 $1 Rounding radius*
0 $2 $3 $4 $5 $6 $7 $8 $9 X,Y pos of 4 corners*
0 Add a 4 corners polygon primitive as box body*
4,1,4,$2,$3,$4,$5,$6,$7,$8,$9,$2,$3,0*
0 Add four circle primitives for the rounded corners*
1,1,$1+$1,$2,$3*
1,1,$1+$1,$4,$5*
1,1,$1+$1,$6,$7*
1,1,$1+$1,$8,$9*
0 Add four rect primitives between the rounded corners*
20,1,$1+$1,$2,$3,$4,$5,0*
20,1,$1+$1,$4,$5,$6,$7,0*
20,1,$1+$1,$6,$7,$8,$9,0*
20,1,$1+$1,$8,$9,$2,$3,0*%
%AMRotRect*
0 Rectangle, with rotation*
0 The origin of the aperture is its center*
0 $1 length*
0 $2 width*
0 $3 Rotation angle, in degrees counterclockwise*
0 Add horizontal line*
21,1,$1,$2,0,0,$3*%
%AMFreePoly0*
4,1,22,0.550000,-0.750000,0.000000,-0.750000,0.000000,-0.745033,-0.079941,-0.743568,-0.215256,-0.701293,-0.333266,-0.622738,-0.424486,-0.514219,-0.481581,-0.384460,-0.499164,-0.250000,-0.500000,-0.250000,-0.500000,0.250000,-0.499164,0.250000,-0.499963,0.256109,-0.478152,0.396186,-0.417904,0.524511,-0.324060,0.630769,-0.204165,0.706417,-0.067858,0.745374,0.000000,0.744960,0.000000,0.750000,
0.550000,0.750000,0.550000,-0.750000,0.550000,-0.750000,$1*%
%AMFreePoly1*
4,1,20,0.000000,0.744960,0.073905,0.744508,0.209726,0.703889,0.328688,0.626782,0.421226,0.519385,0.479903,0.390333,0.500000,0.250000,0.500000,-0.250000,0.499851,-0.262216,0.476331,-0.402017,0.414519,-0.529596,0.319384,-0.634700,0.198574,-0.708877,0.061801,-0.746166,0.000000,-0.745033,0.000000,-0.750000,-0.550000,-0.750000,-0.550000,0.750000,0.000000,0.750000,0.000000,0.744960,
0.000000,0.744960,$1*%
G04 Aperture macros list end*
%ADD10C,0.125000*%
%ADD11RoundRect,0.225000X-0.250000X0.225000X-0.250000X-0.225000X0.250000X-0.225000X0.250000X0.225000X0*%
%ADD12RoundRect,0.200000X-0.275000X0.200000X-0.275000X-0.200000X0.275000X-0.200000X0.275000X0.200000X0*%
%ADD13R,1.700000X1.700000*%
%ADD14O,1.700000X1.700000*%
%ADD15C,4.300000*%
%ADD16RoundRect,0.225000X0.250000X-0.225000X0.250000X0.225000X-0.250000X0.225000X-0.250000X-0.225000X0*%
%ADD17RoundRect,0.218750X0.256250X-0.218750X0.256250X0.218750X-0.256250X0.218750X-0.256250X-0.218750X0*%
%ADD18R,0.600000X1.500000*%
%ADD19R,0.600000X0.750000*%
%ADD20C,2.050000*%
%ADD21C,2.250000*%
%ADD22RoundRect,0.150000X-0.150000X0.825000X-0.150000X-0.825000X0.150000X-0.825000X0.150000X0.825000X0*%
%ADD23RoundRect,0.218750X-0.256250X0.218750X-0.256250X-0.218750X0.256250X-0.218750X0.256250X0.218750X0*%
%ADD24RoundRect,0.200000X0.275000X-0.200000X0.275000X0.200000X-0.275000X0.200000X-0.275000X-0.200000X0*%
%ADD25R,1.400000X1.200000*%
%ADD26FreePoly0,315.000000*%
%ADD27RotRect,1.000000X1.500000X315.000000*%
%ADD28FreePoly1,315.000000*%
%ADD29RoundRect,0.200000X0.200000X0.275000X-0.200000X0.275000X-0.200000X-0.275000X0.200000X-0.275000X0*%
%ADD30RoundRect,0.218750X0.218750X0.256250X-0.218750X0.256250X-0.218750X-0.256250X0.218750X-0.256250X0*%
%ADD31RoundRect,0.062500X0.375000X0.062500X-0.375000X0.062500X-0.375000X-0.062500X0.375000X-0.062500X0*%
%ADD32RoundRect,0.062500X0.062500X0.375000X-0.062500X0.375000X-0.062500X-0.375000X0.062500X-0.375000X0*%
%ADD33R,3.100000X3.100000*%
%ADD34R,1.500000X1.000000*%
%ADD35RoundRect,0.150000X0.150000X-0.512500X0.150000X0.512500X-0.150000X0.512500X-0.150000X-0.512500X0*%
%ADD36RoundRect,0.225000X-0.225000X-0.250000X0.225000X-0.250000X0.225000X0.250000X-0.225000X0.250000X0*%
G04 APERTURE END LIST*
D10*
X37720773Y-33377142D02*
X37673154Y-33424761D01*
X37530297Y-33472380D01*
X37435059Y-33472380D01*
X37292202Y-33424761D01*
X37196964Y-33329523D01*
X37149345Y-33234285D01*
X37101726Y-33043809D01*
X37101726Y-32900952D01*
X37149345Y-32710476D01*
X37196964Y-32615238D01*
X37292202Y-32520000D01*
X37435059Y-32472380D01*
X37530297Y-32472380D01*
X37673154Y-32520000D01*
X37720773Y-32567619D01*
X38720773Y-33377142D02*
X38673154Y-33424761D01*
X38530297Y-33472380D01*
X38435059Y-33472380D01*
X38292202Y-33424761D01*
X38196964Y-33329523D01*
X38149345Y-33234285D01*
X38101726Y-33043809D01*
X38101726Y-32900952D01*
X38149345Y-32710476D01*
X38196964Y-32615238D01*
X38292202Y-32520000D01*
X38435059Y-32472380D01*
X38530297Y-32472380D01*
X38673154Y-32520000D01*
X38720773Y-32567619D01*
X39149345Y-33091428D02*
X39911250Y-33091428D01*
X40720773Y-32948571D02*
X40863630Y-32996190D01*
X40911250Y-33043809D01*
X40958869Y-33139047D01*
X40958869Y-33281904D01*
X40911250Y-33377142D01*
X40863630Y-33424761D01*
X40768392Y-33472380D01*
X40387440Y-33472380D01*
X40387440Y-32472380D01*
X40720773Y-32472380D01*
X40816011Y-32520000D01*
X40863630Y-32567619D01*
X40911250Y-32662857D01*
X40911250Y-32758095D01*
X40863630Y-32853333D01*
X40816011Y-32900952D01*
X40720773Y-32948571D01*
X40387440Y-32948571D01*
X41577916Y-32996190D02*
X41577916Y-33472380D01*
X41244583Y-32472380D02*
X41577916Y-32996190D01*
X41911250Y-32472380D01*
X42244583Y-33091428D02*
X43006488Y-33091428D01*
X43435059Y-33424761D02*
X43577916Y-33472380D01*
X43816011Y-33472380D01*
X43911250Y-33424761D01*
X43958869Y-33377142D01*
X44006488Y-33281904D01*
X44006488Y-33186666D01*
X43958869Y-33091428D01*
X43911250Y-33043809D01*
X43816011Y-32996190D01*
X43625535Y-32948571D01*
X43530297Y-32900952D01*
X43482678Y-32853333D01*
X43435059Y-32758095D01*
X43435059Y-32662857D01*
X43482678Y-32567619D01*
X43530297Y-32520000D01*
X43625535Y-32472380D01*
X43863630Y-32472380D01*
X44006488Y-32520000D01*
X44387440Y-33186666D02*
X44863630Y-33186666D01*
X44292202Y-33472380D02*
X44625535Y-32472380D01*
X44958869Y-33472380D01*
X46863630Y-32710476D02*
X46768392Y-32662857D01*
X46577916Y-32662857D01*
X46482678Y-32710476D01*
X46387440Y-32805714D01*
X46339821Y-32900952D01*
X46339821Y-33091428D01*
X46387440Y-33186666D01*
X46482678Y-33281904D01*
X46577916Y-33329523D01*
X46768392Y-33329523D01*
X46863630Y-33281904D01*
X46673154Y-32329523D02*
X46435059Y-32377142D01*
X46196964Y-32520000D01*
X46054107Y-32758095D01*
X46006488Y-32996190D01*
X46054107Y-33234285D01*
X46196964Y-33472380D01*
X46435059Y-33615238D01*
X46673154Y-33662857D01*
X46911250Y-33615238D01*
X47149345Y-33472380D01*
X47292202Y-33234285D01*
X47339821Y-32996190D01*
X47292202Y-32758095D01*
X47149345Y-32520000D01*
X46911250Y-32377142D01*
X46673154Y-32329523D01*
X48482678Y-32567619D02*
X48530297Y-32520000D01*
X48625535Y-32472380D01*
X48863630Y-32472380D01*
X48958869Y-32520000D01*
X49006488Y-32567619D01*
X49054107Y-32662857D01*
X49054107Y-32758095D01*
X49006488Y-32900952D01*
X48435059Y-33472380D01*
X49054107Y-33472380D01*
X49673154Y-32472380D02*
X49768392Y-32472380D01*
X49863630Y-32520000D01*
X49911250Y-32567619D01*
X49958869Y-32662857D01*
X50006488Y-32853333D01*
X50006488Y-33091428D01*
X49958869Y-33281904D01*
X49911250Y-33377142D01*
X49863630Y-33424761D01*
X49768392Y-33472380D01*
X49673154Y-33472380D01*
X49577916Y-33424761D01*
X49530297Y-33377142D01*
X49482678Y-33281904D01*
X49435059Y-33091428D01*
X49435059Y-32853333D01*
X49482678Y-32662857D01*
X49530297Y-32567619D01*
X49577916Y-32520000D01*
X49673154Y-32472380D01*
X50387440Y-32567619D02*
X50435059Y-32520000D01*
X50530297Y-32472380D01*
X50768392Y-32472380D01*
X50863630Y-32520000D01*
X50911250Y-32567619D01*
X50958869Y-32662857D01*
X50958869Y-32758095D01*
X50911250Y-32900952D01*
X50339821Y-33472380D01*
X50958869Y-33472380D01*
X51339821Y-32567619D02*
X51387440Y-32520000D01*
X51482678Y-32472380D01*
X51720773Y-32472380D01*
X51816011Y-32520000D01*
X51863630Y-32567619D01*
X51911250Y-32662857D01*
X51911250Y-32758095D01*
X51863630Y-32900952D01*
X51292202Y-33472380D01*
X51911250Y-33472380D01*
X53054107Y-33424761D02*
X53196964Y-33472380D01*
X53435059Y-33472380D01*
X53530297Y-33424761D01*
X53577916Y-33377142D01*
X53625535Y-33281904D01*
X53625535Y-33186666D01*
X53577916Y-33091428D01*
X53530297Y-33043809D01*
X53435059Y-32996190D01*
X53244583Y-32948571D01*
X53149345Y-32900952D01*
X53101726Y-32853333D01*
X53054107Y-32758095D01*
X53054107Y-32662857D01*
X53101726Y-32567619D01*
X53149345Y-32520000D01*
X53244583Y-32472380D01*
X53482678Y-32472380D01*
X53625535Y-32520000D01*
X54435059Y-33424761D02*
X54339821Y-33472380D01*
X54149345Y-33472380D01*
X54054107Y-33424761D01*
X54006488Y-33329523D01*
X54006488Y-32948571D01*
X54054107Y-32853333D01*
X54149345Y-32805714D01*
X54339821Y-32805714D01*
X54435059Y-32853333D01*
X54482678Y-32948571D01*
X54482678Y-33043809D01*
X54006488Y-33139047D01*
X54911250Y-33472380D02*
X54911250Y-32472380D01*
X54911250Y-32853333D02*
X55006488Y-32805714D01*
X55196964Y-32805714D01*
X55292202Y-32853333D01*
X55339821Y-32900952D01*
X55387440Y-32996190D01*
X55387440Y-33281904D01*
X55339821Y-33377142D01*
X55292202Y-33424761D01*
X55196964Y-33472380D01*
X55006488Y-33472380D01*
X54911250Y-33424761D01*
X56244583Y-33472380D02*
X56244583Y-32948571D01*
X56196964Y-32853333D01*
X56101726Y-32805714D01*
X55911249Y-32805714D01*
X55816011Y-32853333D01*
X56244583Y-33424761D02*
X56149345Y-33472380D01*
X55911249Y-33472380D01*
X55816011Y-33424761D01*
X55768392Y-33329523D01*
X55768392Y-33234285D01*
X55816011Y-33139047D01*
X55911249Y-33091428D01*
X56149345Y-33091428D01*
X56244583Y-33043809D01*
X56673154Y-33424761D02*
X56768392Y-33472380D01*
X56958869Y-33472380D01*
X57054107Y-33424761D01*
X57101726Y-33329523D01*
X57101726Y-33281904D01*
X57054107Y-33186666D01*
X56958869Y-33139047D01*
X56816011Y-33139047D01*
X56720773Y-33091428D01*
X56673154Y-32996190D01*
X56673154Y-32948571D01*
X56720773Y-32853333D01*
X56816011Y-32805714D01*
X56958869Y-32805714D01*
X57054107Y-32853333D01*
X57387440Y-32805714D02*
X57768392Y-32805714D01*
X57530297Y-32472380D02*
X57530297Y-33329523D01*
X57577916Y-33424761D01*
X57673154Y-33472380D01*
X57768392Y-33472380D01*
X58101726Y-33472380D02*
X58101726Y-32805714D01*
X58101726Y-32472380D02*
X58054107Y-32520000D01*
X58101726Y-32567619D01*
X58149345Y-32520000D01*
X58101726Y-32472380D01*
X58101726Y-32567619D01*
X59006488Y-33472380D02*
X59006488Y-32948571D01*
X58958869Y-32853333D01*
X58863630Y-32805714D01*
X58673154Y-32805714D01*
X58577916Y-32853333D01*
X59006488Y-33424761D02*
X58911249Y-33472380D01*
X58673154Y-33472380D01*
X58577916Y-33424761D01*
X58530297Y-33329523D01*
X58530297Y-33234285D01*
X58577916Y-33139047D01*
X58673154Y-33091428D01*
X58911249Y-33091428D01*
X59006488Y-33043809D01*
X59482678Y-32805714D02*
X59482678Y-33472380D01*
X59482678Y-32900952D02*
X59530297Y-32853333D01*
X59625535Y-32805714D01*
X59768392Y-32805714D01*
X59863630Y-32853333D01*
X59911249Y-32948571D01*
X59911249Y-33472380D01*
X61720773Y-33472380D02*
X61387440Y-32996190D01*
X61149345Y-33472380D02*
X61149345Y-32472380D01*
X61530297Y-32472380D01*
X61625535Y-32520000D01*
X61673154Y-32567619D01*
X61720773Y-32662857D01*
X61720773Y-32805714D01*
X61673154Y-32900952D01*
X61625535Y-32948571D01*
X61530297Y-32996190D01*
X61149345Y-32996190D01*
X62530297Y-33424761D02*
X62435059Y-33472380D01*
X62244583Y-33472380D01*
X62149345Y-33424761D01*
X62101726Y-33329523D01*
X62101726Y-32948571D01*
X62149345Y-32853333D01*
X62244583Y-32805714D01*
X62435059Y-32805714D01*
X62530297Y-32853333D01*
X62577916Y-32948571D01*
X62577916Y-33043809D01*
X62101726Y-33139047D01*
X63006488Y-33472380D02*
X63006488Y-32805714D01*
X63006488Y-32472380D02*
X62958869Y-32520000D01*
X63006488Y-32567619D01*
X63054107Y-32520000D01*
X63006488Y-32472380D01*
X63006488Y-32567619D01*
X63911249Y-33424761D02*
X63816011Y-33472380D01*
X63625535Y-33472380D01*
X63530297Y-33424761D01*
X63482678Y-33377142D01*
X63435059Y-33281904D01*
X63435059Y-32996190D01*
X63482678Y-32900952D01*
X63530297Y-32853333D01*
X63625535Y-32805714D01*
X63816011Y-32805714D01*
X63911249Y-32853333D01*
X64339821Y-33472380D02*
X64339821Y-32472380D01*
X64768392Y-33472380D02*
X64768392Y-32948571D01*
X64720773Y-32853333D01*
X64625535Y-32805714D01*
X64482678Y-32805714D01*
X64387440Y-32853333D01*
X64339821Y-32900952D01*
X65625535Y-33424761D02*
X65530297Y-33472380D01*
X65339821Y-33472380D01*
X65244583Y-33424761D01*
X65196964Y-33329523D01*
X65196964Y-32948571D01*
X65244583Y-32853333D01*
X65339821Y-32805714D01*
X65530297Y-32805714D01*
X65625535Y-32853333D01*
X65673154Y-32948571D01*
X65673154Y-33043809D01*
X65196964Y-33139047D01*
X66244583Y-33472380D02*
X66149345Y-33424761D01*
X66101726Y-33329523D01*
X66101726Y-32472380D01*
X68149345Y-32805714D02*
X67387440Y-33091428D01*
X68149345Y-33377142D01*
X68577916Y-33424761D02*
X68673154Y-33472380D01*
X68863630Y-33472380D01*
X68958869Y-33424761D01*
X69006488Y-33329523D01*
X69006488Y-33281904D01*
X68958869Y-33186666D01*
X68863630Y-33139047D01*
X68720773Y-33139047D01*
X68625535Y-33091428D01*
X68577916Y-32996190D01*
X68577916Y-32948571D01*
X68625535Y-32853333D01*
X68720773Y-32805714D01*
X68863630Y-32805714D01*
X68958869Y-32853333D01*
X69435059Y-33472380D02*
X69435059Y-32805714D01*
X69435059Y-32996190D02*
X69482678Y-32900952D01*
X69530297Y-32853333D01*
X69625535Y-32805714D01*
X69720773Y-32805714D01*
X70435059Y-33424761D02*
X70339821Y-33472380D01*
X70149345Y-33472380D01*
X70054107Y-33424761D01*
X70006488Y-33329523D01*
X70006488Y-32948571D01*
X70054107Y-32853333D01*
X70149345Y-32805714D01*
X70339821Y-32805714D01*
X70435059Y-32853333D01*
X70482678Y-32948571D01*
X70482678Y-33043809D01*
X70006488Y-33139047D01*
X71530297Y-32996190D02*
X71482678Y-32948571D01*
X71387440Y-32900952D01*
X71292202Y-32900952D01*
X71196964Y-32948571D01*
X71149345Y-32996190D01*
X71101726Y-33091428D01*
X71101726Y-33186666D01*
X71149345Y-33281904D01*
X71196964Y-33329523D01*
X71292202Y-33377142D01*
X71387440Y-33377142D01*
X71482678Y-33329523D01*
X71530297Y-33281904D01*
X71530297Y-32900952D02*
X71530297Y-33281904D01*
X71577916Y-33329523D01*
X71625535Y-33329523D01*
X71720773Y-33281904D01*
X71768392Y-33186666D01*
X71768392Y-32948571D01*
X71673154Y-32805714D01*
X71530297Y-32710476D01*
X71339821Y-32662857D01*
X71149345Y-32710476D01*
X71006488Y-32805714D01*
X70911250Y-32948571D01*
X70863630Y-33139047D01*
X70911250Y-33329523D01*
X71006488Y-33472380D01*
X71149345Y-33567619D01*
X71339821Y-33615238D01*
X71530297Y-33567619D01*
X71673154Y-33472380D01*
X72196964Y-33472380D02*
X72196964Y-32805714D01*
X72196964Y-32900952D02*
X72244583Y-32853333D01*
X72339821Y-32805714D01*
X72482678Y-32805714D01*
X72577916Y-32853333D01*
X72625535Y-32948571D01*
X72625535Y-33472380D01*
X72625535Y-32948571D02*
X72673154Y-32853333D01*
X72768392Y-32805714D01*
X72911250Y-32805714D01*
X73006488Y-32853333D01*
X73054107Y-32948571D01*
X73054107Y-33472380D01*
X73958869Y-33472380D02*
X73958869Y-32948571D01*
X73911250Y-32853333D01*
X73816011Y-32805714D01*
X73625535Y-32805714D01*
X73530297Y-32853333D01*
X73958869Y-33424761D02*
X73863630Y-33472380D01*
X73625535Y-33472380D01*
X73530297Y-33424761D01*
X73482678Y-33329523D01*
X73482678Y-33234285D01*
X73530297Y-33139047D01*
X73625535Y-33091428D01*
X73863630Y-33091428D01*
X73958869Y-33043809D01*
X74435059Y-33472380D02*
X74435059Y-32805714D01*
X74435059Y-32472380D02*
X74387440Y-32520000D01*
X74435059Y-32567619D01*
X74482678Y-32520000D01*
X74435059Y-32472380D01*
X74435059Y-32567619D01*
X74911250Y-32805714D02*
X74911250Y-33472380D01*
X74911250Y-32900952D02*
X74958869Y-32853333D01*
X75054107Y-32805714D01*
X75196964Y-32805714D01*
X75292202Y-32853333D01*
X75339821Y-32948571D01*
X75339821Y-33472380D01*
X75673154Y-32805714D02*
X76054107Y-32805714D01*
X75816011Y-33472380D02*
X75816011Y-32615238D01*
X75863630Y-32520000D01*
X75958869Y-32472380D01*
X76054107Y-32472380D01*
X76387440Y-33472380D02*
X76387440Y-32805714D01*
X76387440Y-32996190D02*
X76435059Y-32900952D01*
X76482678Y-32853333D01*
X76577916Y-32805714D01*
X76673154Y-32805714D01*
X77435059Y-33472380D02*
X77435059Y-32948571D01*
X77387440Y-32853333D01*
X77292202Y-32805714D01*
X77101726Y-32805714D01*
X77006488Y-32853333D01*
X77435059Y-33424761D02*
X77339821Y-33472380D01*
X77101726Y-33472380D01*
X77006488Y-33424761D01*
X76958869Y-33329523D01*
X76958869Y-33234285D01*
X77006488Y-33139047D01*
X77101726Y-33091428D01*
X77339821Y-33091428D01*
X77435059Y-33043809D01*
X77911250Y-33472380D02*
X77911250Y-32805714D01*
X77911250Y-32900952D02*
X77958869Y-32853333D01*
X78054107Y-32805714D01*
X78196964Y-32805714D01*
X78292202Y-32853333D01*
X78339821Y-32948571D01*
X78339821Y-33472380D01*
X78339821Y-32948571D02*
X78387440Y-32853333D01*
X78482678Y-32805714D01*
X78625535Y-32805714D01*
X78720773Y-32853333D01*
X78768392Y-32948571D01*
X78768392Y-33472380D01*
X79625535Y-33424761D02*
X79530297Y-33472380D01*
X79339821Y-33472380D01*
X79244583Y-33424761D01*
X79196964Y-33329523D01*
X79196964Y-32948571D01*
X79244583Y-32853333D01*
X79339821Y-32805714D01*
X79530297Y-32805714D01*
X79625535Y-32853333D01*
X79673154Y-32948571D01*
X79673154Y-33043809D01*
X79196964Y-33139047D01*
X80101726Y-33377142D02*
X80149345Y-33424761D01*
X80101726Y-33472380D01*
X80054107Y-33424761D01*
X80101726Y-33377142D01*
X80101726Y-33472380D01*
X80577916Y-33472380D02*
X80577916Y-32805714D01*
X80577916Y-32472380D02*
X80530297Y-32520000D01*
X80577916Y-32567619D01*
X80625535Y-32520000D01*
X80577916Y-32472380D01*
X80577916Y-32567619D01*
X81196964Y-33472380D02*
X81101726Y-33424761D01*
X81054107Y-33377142D01*
X81006488Y-33281904D01*
X81006488Y-32996190D01*
X81054107Y-32900952D01*
X81101726Y-32853333D01*
X81196964Y-32805714D01*
X81339821Y-32805714D01*
X81435059Y-32853333D01*
X81482678Y-32900952D01*
X81530297Y-32996190D01*
X81530297Y-33281904D01*
X81482678Y-33377142D01*
X81435059Y-33424761D01*
X81339821Y-33472380D01*
X81196964Y-33472380D01*
X81958869Y-32805714D02*
X82720773Y-33091428D01*
X81958869Y-33377142D01*
G36*
X47868935Y-49945259D02*
G01*
X48094243Y-50018859D01*
X48361167Y-50120151D01*
X48624595Y-50231646D01*
X48839414Y-50335854D01*
X48898729Y-50369790D01*
X49431911Y-50777295D01*
X49898807Y-51291451D01*
X50273633Y-51878660D01*
X50526017Y-52490084D01*
X50599442Y-52762997D01*
X50640057Y-53014871D01*
X50652614Y-53298292D01*
X50641863Y-53665841D01*
X50638406Y-53733920D01*
X50617048Y-54069892D01*
X50591452Y-54368760D01*
X50565515Y-54588816D01*
X50551249Y-54666307D01*
X50539005Y-54778723D01*
X50584638Y-54876933D01*
X50711985Y-54992741D01*
X50893149Y-55122485D01*
X51282988Y-55390977D01*
X76651077Y-55390977D01*
X76928806Y-55099023D01*
X77160246Y-54895680D01*
X77370095Y-54816442D01*
X77597327Y-54852595D01*
X77741518Y-54917307D01*
X77974150Y-55096865D01*
X78087651Y-55345598D01*
X78105000Y-55537770D01*
X78044365Y-55768231D01*
X77890194Y-55983720D01*
X77684083Y-56140106D01*
X77486587Y-56193851D01*
X77244050Y-56150493D01*
X77017042Y-56040370D01*
X76859687Y-55893406D01*
X76827955Y-55829709D01*
X76820832Y-55811345D01*
X76807388Y-55794580D01*
X76781239Y-55779342D01*
X76736000Y-55765558D01*
X76665287Y-55753154D01*
X76562717Y-55742059D01*
X76421904Y-55732198D01*
X76236466Y-55723499D01*
X76000017Y-55715890D01*
X75706173Y-55709297D01*
X75348551Y-55703648D01*
X74920767Y-55698870D01*
X74416436Y-55694889D01*
X73829173Y-55691633D01*
X73152596Y-55689029D01*
X72380319Y-55687005D01*
X71505959Y-55685487D01*
X70523132Y-55684402D01*
X69425453Y-55683678D01*
X68206538Y-55683242D01*
X66860003Y-55683021D01*
X65379464Y-55682941D01*
X63968337Y-55682931D01*
X51155304Y-55682931D01*
X50807298Y-55427471D01*
X50610457Y-55290297D01*
X50458309Y-55197571D01*
X50395957Y-55172012D01*
X50328373Y-55231053D01*
X50225440Y-55381883D01*
X50159923Y-55497553D01*
X49883393Y-55896161D01*
X49499532Y-56281122D01*
X49046323Y-56624865D01*
X48561746Y-56899816D01*
X48083783Y-57078405D01*
X47937554Y-57110856D01*
X47658902Y-57160803D01*
X47682094Y-56887723D01*
X47702340Y-56738980D01*
X47753546Y-56641239D01*
X47868338Y-56564754D01*
X48079343Y-56479782D01*
X48162845Y-56449430D01*
X48744663Y-56163652D01*
X49243392Y-55760243D01*
X49584920Y-55343056D01*
X49873322Y-54791671D01*
X50044615Y-54183761D01*
X50098865Y-53548428D01*
X50036137Y-52914775D01*
X49856495Y-52311903D01*
X49577026Y-51793354D01*
X49227056Y-51375066D01*
X48801823Y-51009214D01*
X48340583Y-50724468D01*
X47882592Y-50549498D01*
X47869511Y-50546293D01*
X47738547Y-50496382D01*
X47681343Y-50399384D01*
X47668793Y-50207403D01*
X47682513Y-50025061D01*
X47716768Y-49924017D01*
X47730355Y-49916839D01*
X47868935Y-49945259D01*
G37*
G36*
X74076681Y-56485805D02*
G01*
X74409366Y-56511242D01*
X74626633Y-56594125D01*
X74751066Y-56744309D01*
X74768317Y-56787627D01*
X74758259Y-56945062D01*
X74663261Y-57105193D01*
X74526252Y-57205912D01*
X74472440Y-57215690D01*
X74433152Y-57248735D01*
X74514543Y-57350826D01*
X74604308Y-57431689D01*
X74752588Y-57563139D01*
X74797330Y-57626936D01*
X74747767Y-57648119D01*
X74685043Y-57650655D01*
X74526171Y-57608336D01*
X74324149Y-57497992D01*
X74236609Y-57434655D01*
X74066633Y-57306683D01*
X73945710Y-57227822D01*
X73915904Y-57215690D01*
X73884822Y-57279216D01*
X73871669Y-57432240D01*
X73871666Y-57434655D01*
X73839025Y-57608493D01*
X73762183Y-57653621D01*
X73706009Y-57626119D01*
X73672296Y-57526332D01*
X73656186Y-57328341D01*
X73652701Y-57069713D01*
X73652701Y-56887242D01*
X73871666Y-56887242D01*
X73934303Y-56971731D01*
X74105297Y-56994431D01*
X74359269Y-56952071D01*
X74364339Y-56950721D01*
X74505905Y-56891008D01*
X74513624Y-56834016D01*
X74399302Y-56792179D01*
X74200114Y-56777759D01*
X73983630Y-56792087D01*
X73885021Y-56840806D01*
X73871666Y-56887242D01*
X73652701Y-56887242D01*
X73652701Y-56485805D01*
X74076681Y-56485805D01*
G37*
G36*
X63166782Y-56489253D02*
G01*
X63331002Y-56504974D01*
X63409808Y-56541036D01*
X63433451Y-56605505D01*
X63434310Y-56631782D01*
X63418331Y-56713313D01*
X63348138Y-56757368D01*
X63190347Y-56775075D01*
X62996379Y-56777759D01*
X62763112Y-56788839D01*
X62604965Y-56817785D01*
X62558448Y-56850747D01*
X62624930Y-56889625D01*
X62798605Y-56915983D01*
X62996379Y-56923736D01*
X63240972Y-56929062D01*
X63373138Y-56952460D01*
X63426259Y-57005057D01*
X63434310Y-57069713D01*
X63418331Y-57151244D01*
X63348138Y-57195299D01*
X63190347Y-57213006D01*
X62996379Y-57215690D01*
X62742092Y-57224098D01*
X62605567Y-57253904D01*
X62559311Y-57311981D01*
X62558448Y-57325173D01*
X62592080Y-57388744D01*
X62711305Y-57422876D01*
X62943613Y-57434439D01*
X62996379Y-57434655D01*
X63250665Y-57443063D01*
X63387191Y-57472870D01*
X63433446Y-57530947D01*
X63434310Y-57544138D01*
X63405634Y-57601887D01*
X63302009Y-57635785D01*
X63097035Y-57651112D01*
X62886896Y-57653621D01*
X62339482Y-57653621D01*
X62339482Y-56485805D01*
X62886896Y-56485805D01*
X63166782Y-56489253D01*
G37*
G36*
X55295914Y-56491547D02*
G01*
X55423089Y-56516598D01*
X55472309Y-56572699D01*
X55478563Y-56631782D01*
X55462732Y-56713008D01*
X55393074Y-56757067D01*
X55236339Y-56774937D01*
X55036435Y-56777759D01*
X54594307Y-56777759D01*
X54639195Y-57398161D01*
X55058879Y-57420051D01*
X55314515Y-57444754D01*
X55446758Y-57489455D01*
X55478563Y-57547781D01*
X55413901Y-57611324D01*
X55248461Y-57648972D01*
X55025063Y-57661086D01*
X54786525Y-57648024D01*
X54575665Y-57610148D01*
X54435303Y-57547817D01*
X54425443Y-57538925D01*
X54342530Y-57368271D01*
X54310857Y-57088603D01*
X54310747Y-57068638D01*
X54340017Y-56799359D01*
X54441612Y-56623516D01*
X54636209Y-56524957D01*
X54944486Y-56487530D01*
X55056872Y-56485805D01*
X55295914Y-56491547D01*
G37*
G36*
X64906497Y-56506612D02*
G01*
X65078099Y-56587033D01*
X65162361Y-56754066D01*
X65185964Y-57034708D01*
X65186034Y-57057683D01*
X65171636Y-57302505D01*
X65134494Y-57492478D01*
X65098448Y-57566035D01*
X64955240Y-57629652D01*
X64730848Y-57655070D01*
X64482943Y-57644312D01*
X64269196Y-57599404D01*
X64154885Y-57532920D01*
X64095498Y-57390882D01*
X64059583Y-57169022D01*
X64054743Y-57053351D01*
X64310172Y-57053351D01*
X64324633Y-57280553D01*
X64388795Y-57394485D01*
X64533823Y-57426677D01*
X64672506Y-57419882D01*
X64837962Y-57396093D01*
X64911383Y-57332198D01*
X64930065Y-57182863D01*
X64930574Y-57106207D01*
X64923621Y-56922852D01*
X64875607Y-56835243D01*
X64745801Y-56802099D01*
X64620373Y-56791809D01*
X64310172Y-56769365D01*
X64310172Y-57053351D01*
X64054743Y-57053351D01*
X64054712Y-57052611D01*
X64088335Y-56769365D01*
X64089249Y-56761664D01*
X64205495Y-56583540D01*
X64422409Y-56499260D01*
X64620875Y-56485805D01*
X64906497Y-56506612D01*
G37*
G36*
X67930347Y-52141723D02*
G01*
X68153428Y-52578493D01*
X68355436Y-52968545D01*
X68526908Y-53294049D01*
X68658380Y-53537178D01*
X68740390Y-53680101D01*
X68763259Y-53710976D01*
X68804837Y-53648882D01*
X68901711Y-53473781D01*
X69044525Y-53203544D01*
X69223923Y-52856043D01*
X69430547Y-52449150D01*
X69584160Y-52142989D01*
X70367779Y-50573736D01*
X71244080Y-50573736D01*
X71244080Y-54734081D01*
X70368218Y-54734081D01*
X70359832Y-52507931D01*
X69799470Y-53621006D01*
X69239107Y-54734081D01*
X68285861Y-54734081D01*
X67120229Y-52434943D01*
X67100129Y-53584512D01*
X67080028Y-54734081D01*
X66280862Y-54734081D01*
X66280862Y-50573736D01*
X67134717Y-50573736D01*
X67930347Y-52141723D01*
G37*
G36*
X42644897Y-44430347D02*
G01*
X42860386Y-44584519D01*
X43016772Y-44790629D01*
X43070517Y-44988125D01*
X43027159Y-45230662D01*
X42917036Y-45457671D01*
X42770072Y-45615025D01*
X42706375Y-45646758D01*
X42662435Y-45665720D01*
X42628350Y-45702474D01*
X42602946Y-45773719D01*
X42585051Y-45896156D01*
X42573494Y-46086485D01*
X42567101Y-46361406D01*
X42564702Y-46737621D01*
X42565123Y-47231828D01*
X42566412Y-47640867D01*
X42573228Y-49588391D01*
X43406972Y-50343940D01*
X44240716Y-51099488D01*
X44522384Y-50845019D01*
X45001183Y-50483121D01*
X45564084Y-50174124D01*
X45844453Y-50055960D01*
X46209022Y-49917434D01*
X46209022Y-50239786D01*
X46200064Y-50442776D01*
X46155222Y-50546309D01*
X46047547Y-50596633D01*
X45993606Y-50609451D01*
X45745238Y-50704026D01*
X45441475Y-50877423D01*
X45124853Y-51100208D01*
X44837905Y-51342945D01*
X44654912Y-51535835D01*
X44472245Y-51790268D01*
X44286875Y-52097515D01*
X44185573Y-52294065D01*
X44094274Y-52502825D01*
X44035243Y-52688570D01*
X44001590Y-52893419D01*
X43986430Y-53159486D01*
X43982873Y-53528890D01*
X43982873Y-53533556D01*
X43985084Y-53892641D01*
X43997583Y-54149668D01*
X44029171Y-54348546D01*
X44088648Y-54533187D01*
X44184815Y-54747500D01*
X44254815Y-54890451D01*
X44615045Y-55467755D01*
X45072361Y-55936384D01*
X45629612Y-56299147D01*
X45736544Y-56351453D01*
X45981824Y-56469968D01*
X46122988Y-56558793D01*
X46188781Y-56648720D01*
X46207944Y-56770542D01*
X46209022Y-56857627D01*
X46204886Y-57037255D01*
X46194581Y-57134337D01*
X46190775Y-57140068D01*
X46118052Y-57116038D01*
X45949013Y-57056656D01*
X45781846Y-56996892D01*
X45159781Y-56697962D01*
X44601224Y-56281115D01*
X44124327Y-55767189D01*
X43747243Y-55177018D01*
X43488125Y-54531440D01*
X43428560Y-54295775D01*
X43381626Y-53912988D01*
X43377938Y-53455635D01*
X43413921Y-52984527D01*
X43485999Y-52560475D01*
X43542271Y-52361954D01*
X43663467Y-52066038D01*
X43816058Y-51760077D01*
X43869865Y-51666725D01*
X44070814Y-51336438D01*
X43169228Y-50511275D01*
X42267643Y-49686112D01*
X42267641Y-47739551D01*
X42267639Y-45792989D01*
X42018384Y-45594108D01*
X41795080Y-45344772D01*
X41711324Y-45070314D01*
X41770122Y-44781922D01*
X41789344Y-44742146D01*
X41969011Y-44504976D01*
X42213760Y-44388741D01*
X42414436Y-44369713D01*
X42644897Y-44430347D01*
G37*
G36*
X55697528Y-51376609D02*
G01*
X52413045Y-51376609D01*
X52413045Y-52252471D01*
X55697528Y-52252471D01*
X55697528Y-53055345D01*
X52413045Y-53055345D01*
X52413045Y-54734081D01*
X51610172Y-54734081D01*
X51610172Y-50573736D01*
X55697528Y-50573736D01*
X55697528Y-51376609D01*
G37*
G36*
X76061321Y-54734081D02*
G01*
X71973965Y-54734081D01*
X71973965Y-53858219D01*
X76061321Y-53858219D01*
X76061321Y-54734081D01*
G37*
G36*
X59939056Y-56839870D02*
G01*
X60027125Y-56638510D01*
X60073238Y-56525687D01*
X60076839Y-56513187D01*
X60137706Y-56490213D01*
X60209861Y-56485805D01*
X60276921Y-56508854D01*
X60350422Y-56589923D01*
X60439934Y-56746890D01*
X60555029Y-56997633D01*
X60705277Y-57360033D01*
X60786146Y-57562385D01*
X60760816Y-57639795D01*
X60702759Y-57653621D01*
X60574979Y-57595540D01*
X60541164Y-57544138D01*
X60433601Y-57461201D01*
X60222816Y-57434655D01*
X60001967Y-57464662D01*
X59904467Y-57544138D01*
X59805364Y-57634681D01*
X59716030Y-57653621D01*
X59648884Y-57644534D01*
X59625776Y-57599931D01*
X59651716Y-57493800D01*
X59731715Y-57300129D01*
X59821805Y-57100238D01*
X60105524Y-57100238D01*
X60111196Y-57193586D01*
X60208173Y-57215690D01*
X60315994Y-57182739D01*
X60316655Y-57068575D01*
X60262119Y-56942678D01*
X60196029Y-56871010D01*
X60153043Y-56885799D01*
X60149827Y-56913459D01*
X60125580Y-57040196D01*
X60105524Y-57100238D01*
X59821805Y-57100238D01*
X59823222Y-57097095D01*
X59939056Y-56839870D01*
G37*
G36*
X65532729Y-56499433D02*
G01*
X65606863Y-56542568D01*
X65651511Y-56657884D01*
X65676495Y-56876913D01*
X65682189Y-56979210D01*
X65703919Y-57434655D01*
X66138367Y-57434655D01*
X66391506Y-57443183D01*
X66526921Y-57473388D01*
X66572117Y-57532202D01*
X66572816Y-57544138D01*
X66545313Y-57600313D01*
X66445526Y-57634025D01*
X66247535Y-57650136D01*
X65988908Y-57653621D01*
X65404999Y-57653621D01*
X65404999Y-57064361D01*
X65408362Y-56771716D01*
X65422563Y-56597669D01*
X65453779Y-56514915D01*
X65508181Y-56496150D01*
X65532729Y-56499433D01*
G37*
G36*
X67229712Y-56485805D02*
G01*
X67570993Y-56513938D01*
X67794005Y-56608724D01*
X67917231Y-56785739D01*
X67959153Y-57060561D01*
X67959597Y-57100994D01*
X67936106Y-57360882D01*
X67849779Y-57526723D01*
X67676837Y-57617328D01*
X67393499Y-57651507D01*
X67260993Y-57653621D01*
X66791781Y-57653621D01*
X66791781Y-57443049D01*
X67010747Y-57443049D01*
X67320948Y-57420605D01*
X67515785Y-57399394D01*
X67608688Y-57344297D01*
X67643371Y-57211602D01*
X67653593Y-57087960D01*
X67676037Y-56777759D01*
X67010747Y-56777759D01*
X67010747Y-57443049D01*
X66791781Y-57443049D01*
X66791781Y-56485805D01*
X67229712Y-56485805D01*
G37*
G36*
X52727447Y-56517156D02*
G01*
X52760021Y-56627589D01*
X52775265Y-56841678D01*
X52777988Y-57069713D01*
X52772831Y-57369311D01*
X52754121Y-57549111D01*
X52716998Y-57635033D01*
X52668505Y-57653621D01*
X52581586Y-57588338D01*
X52559022Y-57434655D01*
X52549501Y-57300010D01*
X52494527Y-57236238D01*
X52354485Y-57216928D01*
X52230574Y-57215690D01*
X52028606Y-57222037D01*
X51932948Y-57258687D01*
X51903983Y-57352048D01*
X51902126Y-57434655D01*
X51879590Y-57594425D01*
X51794645Y-57651040D01*
X51753079Y-57653621D01*
X51678429Y-57642994D01*
X51635883Y-57591141D01*
X51618665Y-57468100D01*
X51620001Y-57243910D01*
X51625349Y-57088751D01*
X51641660Y-56795763D01*
X51668305Y-56619288D01*
X51712730Y-56529890D01*
X51774396Y-56499492D01*
X51860841Y-56511637D01*
X51897149Y-56614762D01*
X51902126Y-56740109D01*
X51902126Y-57005118D01*
X52212327Y-56982674D01*
X52408504Y-56959406D01*
X52502645Y-56904669D01*
X52538666Y-56784226D01*
X52545400Y-56723017D01*
X52592216Y-56545686D01*
X52673130Y-56485805D01*
X52727447Y-56517156D01*
G37*
G36*
X67813620Y-49551897D02*
G01*
X66944915Y-49551897D01*
X65755273Y-48156723D01*
X64565632Y-46761550D01*
X64545809Y-48156723D01*
X64525985Y-49551897D01*
X63653275Y-49551897D01*
X63653275Y-45391552D01*
X64510887Y-45391552D01*
X65706076Y-46795982D01*
X66901264Y-48200413D01*
X66937758Y-46814230D01*
X66974252Y-45428046D01*
X67393936Y-45406157D01*
X67813620Y-45384267D01*
X67813620Y-49551897D01*
G37*
G36*
X63967324Y-50610230D02*
G01*
X64832139Y-52611701D01*
X65049851Y-53117625D01*
X65247463Y-53580808D01*
X65417820Y-53984161D01*
X65553765Y-54310595D01*
X65648143Y-54543018D01*
X65693799Y-54664343D01*
X65696954Y-54677109D01*
X65630791Y-54707404D01*
X65458650Y-54722091D01*
X65255047Y-54719316D01*
X64813141Y-54697586D01*
X64174443Y-53221628D01*
X63987031Y-52790460D01*
X63818292Y-52405894D01*
X63677009Y-52087653D01*
X63571966Y-51855457D01*
X63511945Y-51729027D01*
X63502090Y-51712014D01*
X63465137Y-51766208D01*
X63379916Y-51936571D01*
X63254880Y-52204761D01*
X63098480Y-52552439D01*
X62919166Y-52961264D01*
X62813546Y-53206220D01*
X62158657Y-54734081D01*
X61695573Y-54734081D01*
X61461892Y-54725165D01*
X61303937Y-54701861D01*
X61256819Y-54671299D01*
X61290921Y-54590870D01*
X61375709Y-54393501D01*
X61503843Y-54096201D01*
X61667985Y-53715978D01*
X61860793Y-53269842D01*
X62074930Y-52774800D01*
X62155702Y-52588178D01*
X63030256Y-50567838D01*
X63967324Y-50610230D01*
G37*
G36*
X48519195Y-40160757D02*
G01*
X48747625Y-40267853D01*
X48927337Y-40444914D01*
X49037790Y-40668095D01*
X49058441Y-40913552D01*
X48968745Y-41157439D01*
X48876421Y-41271019D01*
X48735043Y-41392177D01*
X48628388Y-41449477D01*
X48620961Y-41450173D01*
X48591616Y-41522957D01*
X48569273Y-41740828D01*
X48553966Y-42103059D01*
X48545732Y-42608927D01*
X48544192Y-43001178D01*
X48543729Y-44552184D01*
X46686715Y-46595862D01*
X46194742Y-47139088D01*
X45794597Y-47585441D01*
X45478307Y-47944576D01*
X45237897Y-48226152D01*
X45065391Y-48439823D01*
X44952815Y-48595247D01*
X44892195Y-48702079D01*
X44875555Y-48769976D01*
X44878367Y-48785517D01*
X44917519Y-49087479D01*
X44844348Y-49357019D01*
X44683542Y-49571371D01*
X44459791Y-49707770D01*
X44197782Y-49743451D01*
X43929967Y-49660038D01*
X43696266Y-49458986D01*
X43584915Y-49203839D01*
X43599541Y-48925439D01*
X43743775Y-48654629D01*
X43803887Y-48588332D01*
X43971248Y-48444677D01*
X44128613Y-48391080D01*
X44333053Y-48397931D01*
X44639770Y-48429980D01*
X46446235Y-46433865D01*
X48252701Y-44437751D01*
X48252701Y-42943962D01*
X48250925Y-42423146D01*
X48244909Y-42032330D01*
X48233621Y-41755572D01*
X48216027Y-41576931D01*
X48191096Y-41480465D01*
X48157795Y-41450232D01*
X48155941Y-41450173D01*
X48032188Y-41393246D01*
X47885088Y-41253613D01*
X47758807Y-41077994D01*
X47714179Y-40982855D01*
X47703550Y-40771497D01*
X47779313Y-40529782D01*
X47916552Y-40321801D01*
X47998360Y-40251841D01*
X48262593Y-40147472D01*
X48519195Y-40160757D01*
G37*
G36*
X72442080Y-56522521D02*
G01*
X72476008Y-56650977D01*
X72484885Y-56878305D01*
X72509626Y-57175679D01*
X72592708Y-57351586D01*
X72747413Y-57423409D01*
X72900155Y-57421682D01*
X73014855Y-57398715D01*
X73080653Y-57339045D01*
X73116525Y-57206482D01*
X73141450Y-56964833D01*
X73141781Y-56960871D01*
X73173175Y-56702628D01*
X73220132Y-56559889D01*
X73293468Y-56502263D01*
X73306005Y-56499342D01*
X73375274Y-56504177D01*
X73414040Y-56571549D01*
X73430693Y-56731042D01*
X73433735Y-56949665D01*
X73416965Y-57277463D01*
X73352246Y-57486582D01*
X73217961Y-57601926D01*
X72992495Y-57648396D01*
X72822717Y-57653621D01*
X72588491Y-57637759D01*
X72409859Y-57597231D01*
X72353505Y-57566035D01*
X72305735Y-57445713D01*
X72274701Y-57219526D01*
X72265919Y-56982127D01*
X72272683Y-56709087D01*
X72296947Y-56554555D01*
X72344670Y-56491518D01*
X72375402Y-56485805D01*
X72442080Y-56522521D01*
G37*
G36*
X43052046Y-41855018D02*
G01*
X43303711Y-41981229D01*
X43362471Y-42034081D01*
X43528491Y-42282834D01*
X43568392Y-42543713D01*
X43496950Y-42790659D01*
X43328940Y-42997614D01*
X43079138Y-43138518D01*
X42762320Y-43187314D01*
X42709836Y-43185072D01*
X42606605Y-43182390D01*
X42510895Y-43198143D01*
X42404953Y-43245016D01*
X42271028Y-43335691D01*
X42091370Y-43482852D01*
X41848227Y-43699182D01*
X41523847Y-43997364D01*
X41358675Y-44150465D01*
X40296954Y-45135528D01*
X40296954Y-53650682D01*
X41405453Y-54809513D01*
X42513952Y-55968345D01*
X42824941Y-55925719D01*
X43038919Y-55911069D01*
X43187629Y-55958577D01*
X43346474Y-56093688D01*
X43358683Y-56105846D01*
X43531072Y-56363986D01*
X43578242Y-56639723D01*
X43510525Y-56900357D01*
X43338249Y-57113189D01*
X43071746Y-57245518D01*
X42993490Y-57261892D01*
X42784824Y-57268130D01*
X42608972Y-57191053D01*
X42508784Y-57113666D01*
X42294992Y-56863392D01*
X42223397Y-56594908D01*
X42263208Y-56387987D01*
X42278493Y-56322867D01*
X42266980Y-56248932D01*
X42217378Y-56151689D01*
X42118397Y-56016643D01*
X41958745Y-55829300D01*
X41727133Y-55575168D01*
X41412268Y-55239750D01*
X41168500Y-54982730D01*
X40005000Y-53758410D01*
X40010137Y-49374263D01*
X40015274Y-44990115D01*
X41136104Y-43945310D01*
X41509456Y-43596166D01*
X41788497Y-43330492D01*
X41986254Y-43132827D01*
X42115754Y-42987707D01*
X42190023Y-42879670D01*
X42222089Y-42793255D01*
X42224979Y-42712997D01*
X42218078Y-42661061D01*
X42229662Y-42362275D01*
X42348439Y-42116067D01*
X42544821Y-41938648D01*
X42789219Y-41846228D01*
X43052046Y-41855018D01*
G37*
G36*
X68744224Y-56500982D02*
G01*
X69041077Y-56518254D01*
X69217081Y-56546371D01*
X69297275Y-56591125D01*
X69309885Y-56631782D01*
X69272340Y-56696911D01*
X69142885Y-56737506D01*
X68896291Y-56760825D01*
X68853706Y-56762995D01*
X68617327Y-56783874D01*
X68452462Y-56816816D01*
X68397528Y-56850747D01*
X68463995Y-56888125D01*
X68637341Y-56920243D01*
X68853706Y-56938500D01*
X69117625Y-56960083D01*
X69261078Y-56997985D01*
X69309296Y-57059465D01*
X69309885Y-57069713D01*
X69272340Y-57134842D01*
X69142885Y-57175437D01*
X68896291Y-57198756D01*
X68853706Y-57200926D01*
X68586900Y-57223280D01*
X68442568Y-57262674D01*
X68397588Y-57325580D01*
X68397528Y-57328655D01*
X68432043Y-57388269D01*
X68552797Y-57421509D01*
X68785599Y-57434068D01*
X68878036Y-57434655D01*
X69149860Y-57442930D01*
X69294501Y-57470183D01*
X69329944Y-57520058D01*
X69328356Y-57525891D01*
X69235245Y-57582518D01*
X69002792Y-57621442D01*
X68738366Y-57638444D01*
X68178563Y-57659761D01*
X68178563Y-56479664D01*
X68744224Y-56500982D01*
G37*
G36*
X75940972Y-56491131D02*
G01*
X76073138Y-56514529D01*
X76126259Y-56567126D01*
X76134310Y-56631782D01*
X76118479Y-56713008D01*
X76048821Y-56757067D01*
X75892086Y-56774937D01*
X75692182Y-56777759D01*
X75250054Y-56777759D01*
X75272498Y-57087960D01*
X75293709Y-57282797D01*
X75348806Y-57375701D01*
X75481501Y-57410383D01*
X75605143Y-57420605D01*
X75799708Y-57427378D01*
X75889431Y-57395856D01*
X75914447Y-57304790D01*
X75915344Y-57256381D01*
X75952689Y-57106485D01*
X76024827Y-57069713D01*
X76100954Y-57117922D01*
X76132323Y-57277732D01*
X76134310Y-57361667D01*
X76134310Y-57653621D01*
X75678132Y-57652503D01*
X75421042Y-57642117D01*
X75215496Y-57616274D01*
X75120751Y-57587295D01*
X75055427Y-57481896D01*
X75002237Y-57285172D01*
X74984549Y-57158953D01*
X74987057Y-56856658D01*
X75073804Y-56654203D01*
X75260655Y-56536587D01*
X75563474Y-56488807D01*
X75696379Y-56485805D01*
X75940972Y-56491131D01*
G37*
G36*
X62923390Y-49551897D02*
G01*
X62120517Y-49551897D01*
X62120517Y-45391552D01*
X62923390Y-45391552D01*
X62923390Y-49551897D01*
G37*
G36*
X76134310Y-51376609D02*
G01*
X71973965Y-51376609D01*
X71973965Y-50573736D01*
X76134310Y-50573736D01*
X76134310Y-51376609D01*
G37*
G36*
X71348349Y-56485805D02*
G01*
X71689335Y-56506049D01*
X71891257Y-56566930D01*
X71923836Y-56592079D01*
X71986541Y-56729736D01*
X72022733Y-56953736D01*
X72030417Y-57206522D01*
X72007601Y-57430533D01*
X71957430Y-57562385D01*
X71836625Y-57616433D01*
X71594663Y-57647507D01*
X71381120Y-57653621D01*
X70879137Y-57653621D01*
X70879137Y-57325173D01*
X71171091Y-57325173D01*
X71201820Y-57399416D01*
X71316360Y-57426006D01*
X71481293Y-57420605D01*
X71670838Y-57391579D01*
X71780565Y-57345137D01*
X71791494Y-57325173D01*
X71726418Y-57275865D01*
X71562779Y-57238208D01*
X71481293Y-57229740D01*
X71280065Y-57226858D01*
X71188282Y-57263742D01*
X71171091Y-57325173D01*
X70879137Y-57325173D01*
X70879137Y-56887242D01*
X71171091Y-56887242D01*
X71233745Y-56962583D01*
X71388366Y-56997941D01*
X71584949Y-56987276D01*
X71712116Y-56952582D01*
X71798911Y-56889638D01*
X71760946Y-56830189D01*
X71619034Y-56788597D01*
X71458738Y-56777759D01*
X71257359Y-56796386D01*
X71175615Y-56857908D01*
X71171091Y-56887242D01*
X70879137Y-56887242D01*
X70879137Y-56485805D01*
X71348349Y-56485805D01*
G37*
G36*
X76134310Y-53055345D02*
G01*
X71973965Y-53055345D01*
X71973965Y-52252471D01*
X76134310Y-52252471D01*
X76134310Y-53055345D01*
G37*
G36*
X70606864Y-56513307D02*
G01*
X70640576Y-56613094D01*
X70656687Y-56811085D01*
X70660172Y-57069713D01*
X70656374Y-57362702D01*
X70640821Y-57538152D01*
X70607277Y-57624398D01*
X70549505Y-57649774D01*
X70532442Y-57649988D01*
X70421869Y-57594515D01*
X70262115Y-57453797D01*
X70112758Y-57287799D01*
X69820804Y-56929242D01*
X69798743Y-57291431D01*
X69776067Y-57511415D01*
X69732484Y-57620361D01*
X69652190Y-57653121D01*
X69634518Y-57653621D01*
X69561860Y-57639779D01*
X69519160Y-57578213D01*
X69498646Y-57438860D01*
X69492542Y-57191661D01*
X69492356Y-57103916D01*
X69505485Y-56763373D01*
X69551652Y-56562760D01*
X69641023Y-56497831D01*
X69783768Y-56564343D01*
X69990054Y-56758050D01*
X70081651Y-56857906D01*
X70434886Y-57252184D01*
X70438046Y-56868994D01*
X70450963Y-56632507D01*
X70489967Y-56513953D01*
X70550689Y-56485805D01*
X70606864Y-56513307D01*
G37*
G36*
X61906711Y-56490628D02*
G01*
X62048525Y-56511624D01*
X62108991Y-56558586D01*
X62120517Y-56628299D01*
X62102172Y-56707919D01*
X62025621Y-56754795D01*
X61858592Y-56780547D01*
X61664339Y-56792523D01*
X61414868Y-56808191D01*
X61275854Y-56836219D01*
X61211842Y-56893375D01*
X61187378Y-56996425D01*
X61184639Y-57019385D01*
X61195663Y-57230333D01*
X61298960Y-57360630D01*
X61511914Y-57423562D01*
X61728017Y-57434655D01*
X61967061Y-57444897D01*
X62088696Y-57480728D01*
X62120517Y-57544138D01*
X62089854Y-57604367D01*
X61979857Y-57638455D01*
X61763513Y-57652361D01*
X61624195Y-57653621D01*
X61340696Y-57640818D01*
X61130396Y-57606379D01*
X61040287Y-57566035D01*
X60990171Y-57446806D01*
X60958475Y-57238522D01*
X60952701Y-57096823D01*
X60972283Y-56811369D01*
X61047639Y-56629600D01*
X61203681Y-56529727D01*
X61465320Y-56489962D01*
X61651305Y-56485805D01*
X61906711Y-56490628D01*
G37*
G36*
X58867315Y-56485805D02*
G01*
X59215594Y-56511179D01*
X59438625Y-56591623D01*
X59548811Y-56733617D01*
X59565919Y-56850747D01*
X59501777Y-57044878D01*
X59318282Y-57169445D01*
X59028835Y-57215598D01*
X59013292Y-57215690D01*
X58813388Y-57222312D01*
X58719484Y-57260205D01*
X58691661Y-57356410D01*
X58690057Y-57434655D01*
X58667117Y-57594931D01*
X58581762Y-57651362D01*
X58544080Y-57653621D01*
X58471348Y-57641430D01*
X58427758Y-57585283D01*
X58405969Y-57455816D01*
X58398640Y-57223665D01*
X58398103Y-57069713D01*
X58398103Y-56887242D01*
X58690057Y-56887242D01*
X58751720Y-56967619D01*
X58904502Y-56998052D01*
X59100090Y-56971816D01*
X59158513Y-56952421D01*
X59267483Y-56883114D01*
X59244745Y-56822334D01*
X59104466Y-56784099D01*
X58982011Y-56777759D01*
X58779006Y-56795837D01*
X58695356Y-56855766D01*
X58690057Y-56887242D01*
X58398103Y-56887242D01*
X58398103Y-56485805D01*
X58867315Y-56485805D01*
G37*
G36*
X57985800Y-56491131D02*
G01*
X58117965Y-56514529D01*
X58171086Y-56567126D01*
X58179137Y-56631782D01*
X58163158Y-56713313D01*
X58092965Y-56757368D01*
X57935174Y-56775075D01*
X57741206Y-56777759D01*
X57462509Y-56792697D01*
X57319876Y-56830949D01*
X57307211Y-56882667D01*
X57418416Y-56938005D01*
X57647396Y-56987117D01*
X57887183Y-57013516D01*
X58063798Y-57044257D01*
X58142697Y-57124933D01*
X58166164Y-57238351D01*
X58161969Y-57433808D01*
X58081730Y-57559243D01*
X57904756Y-57627816D01*
X57610359Y-57652688D01*
X57513304Y-57653621D01*
X57236334Y-57646553D01*
X57079128Y-57621731D01*
X57015993Y-57573730D01*
X57011321Y-57547621D01*
X57053307Y-57483223D01*
X57194603Y-57442877D01*
X57458217Y-57420060D01*
X57461706Y-57419891D01*
X57733437Y-57391014D01*
X57902851Y-57343706D01*
X57961022Y-57290646D01*
X57899025Y-57244516D01*
X57707933Y-57217995D01*
X57605450Y-57215690D01*
X57364109Y-57201889D01*
X57217661Y-57149364D01*
X57124943Y-57053472D01*
X57030128Y-56892796D01*
X57036065Y-56777147D01*
X57147753Y-56641364D01*
X57157298Y-56631782D01*
X57285369Y-56542628D01*
X57469514Y-56497723D01*
X57741206Y-56485805D01*
X57985800Y-56491131D01*
G37*
G36*
X53226039Y-57031553D02*
G01*
X53372362Y-56713450D01*
X53494638Y-56535731D01*
X53607014Y-56497890D01*
X53723637Y-56599420D01*
X53858655Y-56839814D01*
X53934937Y-57006154D01*
X54044052Y-57260863D01*
X54125119Y-57464713D01*
X54163502Y-57580516D01*
X54164770Y-57590062D01*
X54114964Y-57649957D01*
X54009766Y-57640737D01*
X53915500Y-57573872D01*
X53899210Y-57544138D01*
X53791647Y-57461201D01*
X53580862Y-57434655D01*
X53360013Y-57464662D01*
X53262513Y-57544138D01*
X53188692Y-57620229D01*
X53080270Y-57657674D01*
X53003830Y-57638592D01*
X52996954Y-57615461D01*
X53023323Y-57534920D01*
X53093399Y-57354634D01*
X53181013Y-57140046D01*
X53441569Y-57140046D01*
X53490323Y-57205842D01*
X53580862Y-57215690D01*
X53699036Y-57192745D01*
X53725721Y-57160948D01*
X53688870Y-57058949D01*
X53652732Y-56996724D01*
X53584027Y-56923939D01*
X53518726Y-56982119D01*
X53508991Y-56996724D01*
X53441569Y-57140046D01*
X53181013Y-57140046D01*
X53193634Y-57109135D01*
X53226039Y-57031553D01*
G37*
G36*
X52029856Y-45406157D02*
G01*
X52449540Y-45428046D01*
X54075916Y-48633482D01*
X54887040Y-47012517D01*
X55698163Y-45391552D01*
X56573390Y-45391552D01*
X56573390Y-49551897D01*
X55697528Y-49551897D01*
X55694004Y-47325747D01*
X55128170Y-48420575D01*
X54562335Y-49515402D01*
X54073692Y-49536937D01*
X53585049Y-49558471D01*
X53002900Y-48405615D01*
X52420750Y-47252759D01*
X52416898Y-48402328D01*
X52413045Y-49551897D01*
X51610172Y-49551897D01*
X51610172Y-45384267D01*
X52029856Y-45406157D01*
G37*
G36*
X60666991Y-47435230D02*
G01*
X60885167Y-47941553D01*
X61083299Y-48404845D01*
X61254236Y-48808108D01*
X61390828Y-49134340D01*
X61485921Y-49366543D01*
X61532367Y-49487715D01*
X61535806Y-49500638D01*
X61470029Y-49527808D01*
X61297909Y-49540501D01*
X61089237Y-49537132D01*
X60641865Y-49515402D01*
X60027073Y-48092127D01*
X59842053Y-47667091D01*
X59674065Y-47287399D01*
X59532420Y-46973599D01*
X59426432Y-46746239D01*
X59365413Y-46625864D01*
X59356786Y-46613174D01*
X59313354Y-46660746D01*
X59222233Y-46824740D01*
X59092269Y-47086990D01*
X58932305Y-47429335D01*
X58751187Y-47833608D01*
X58654852Y-48054697D01*
X58008414Y-49551897D01*
X57088483Y-49551897D01*
X57283692Y-49095719D01*
X57369411Y-48896465D01*
X57502142Y-48589257D01*
X57670666Y-48200001D01*
X57863764Y-47754600D01*
X58070215Y-47278961D01*
X58176726Y-47033793D01*
X58874550Y-45428046D01*
X59798977Y-45428046D01*
X60666991Y-47435230D01*
G37*
G36*
X58014913Y-50575339D02*
G01*
X58548686Y-50577117D01*
X58958367Y-50582325D01*
X59265831Y-50592596D01*
X59492952Y-50609567D01*
X59661605Y-50634872D01*
X59793663Y-50670146D01*
X59911001Y-50717024D01*
X59911107Y-50717072D01*
X60207168Y-50904499D01*
X60398089Y-51160830D01*
X60495481Y-51507195D01*
X60514224Y-51814540D01*
X60469072Y-52252518D01*
X60327910Y-52586830D01*
X60082180Y-52826547D01*
X59723321Y-52980737D01*
X59349553Y-53048546D01*
X58950715Y-53091839D01*
X59878719Y-53885910D01*
X60185991Y-54150368D01*
X60450300Y-54380775D01*
X60653406Y-54560993D01*
X60777074Y-54674886D01*
X60806724Y-54707030D01*
X60739349Y-54719304D01*
X60559669Y-54728671D01*
X60301348Y-54733648D01*
X60191833Y-54734081D01*
X59576942Y-54734081D01*
X58604333Y-53896668D01*
X57631724Y-53059256D01*
X57029568Y-53057300D01*
X56427413Y-53055345D01*
X56427413Y-52265446D01*
X57916133Y-52240712D01*
X58424698Y-52231139D01*
X58807827Y-52220267D01*
X59086059Y-52206048D01*
X59279933Y-52186432D01*
X59409989Y-52159371D01*
X59496765Y-52122818D01*
X59558374Y-52076935D01*
X59691996Y-51891261D01*
X59679689Y-51706694D01*
X59558298Y-51552146D01*
X59493633Y-51504545D01*
X59405263Y-51468376D01*
X59272652Y-51441580D01*
X59075260Y-51422094D01*
X58792552Y-51407859D01*
X58403989Y-51396814D01*
X57916056Y-51387363D01*
X56427413Y-51361622D01*
X56427413Y-50573736D01*
X58014913Y-50575339D01*
G37*
G36*
X44700682Y-53726221D02*
G01*
X44557962Y-53655387D01*
X44488348Y-53526546D01*
X44495251Y-53389067D01*
X44582080Y-53292314D01*
X44669475Y-53274311D01*
X44819157Y-53227673D01*
X44938576Y-53122347D01*
X44968218Y-53043591D01*
X44920109Y-52958413D01*
X44815304Y-52845582D01*
X44701102Y-52674867D01*
X44710153Y-52523207D01*
X44828405Y-52426811D01*
X44983252Y-52412849D01*
X45190133Y-52390298D01*
X45303144Y-52292395D01*
X45302272Y-52147647D01*
X45238266Y-52049625D01*
X45157231Y-51941356D01*
X45178566Y-51858906D01*
X45263664Y-51774886D01*
X45396440Y-51685114D01*
X45514783Y-51703368D01*
X45555219Y-51726545D01*
X45713968Y-51798059D01*
X45801677Y-51814540D01*
X45908116Y-51752642D01*
X45965291Y-51606153D01*
X45951238Y-51433887D01*
X45947589Y-51423856D01*
X45960826Y-51309257D01*
X46073664Y-51240694D01*
X46223237Y-51219207D01*
X46357967Y-51300655D01*
X46405604Y-51349003D01*
X46577141Y-51468963D01*
X46724186Y-51451242D01*
X46826025Y-51300147D01*
X46837967Y-51259076D01*
X46910558Y-51126694D01*
X47065292Y-51085090D01*
X47092797Y-51084655D01*
X47252850Y-51112201D01*
X47303657Y-51206531D01*
X47303850Y-51216035D01*
X47349760Y-51370824D01*
X47454506Y-51492412D01*
X47534570Y-51522586D01*
X47619747Y-51474477D01*
X47732579Y-51369672D01*
X47906116Y-51253932D01*
X48058477Y-51270647D01*
X48158130Y-51406664D01*
X48179712Y-51556190D01*
X48219402Y-51747054D01*
X48317478Y-51856113D01*
X48442450Y-51857609D01*
X48498469Y-51816933D01*
X48657688Y-51744572D01*
X48823178Y-51788587D01*
X48905495Y-51879865D01*
X48936514Y-52020218D01*
X48871569Y-52107767D01*
X48766546Y-52252651D01*
X48789603Y-52380285D01*
X48923043Y-52465763D01*
X49139559Y-52484965D01*
X49317096Y-52522274D01*
X49401369Y-52638796D01*
X49378501Y-52791241D01*
X49275412Y-52908710D01*
X49154478Y-53062626D01*
X49160617Y-53215717D01*
X49287129Y-53327484D01*
X49347912Y-53346985D01*
X49503677Y-53438870D01*
X49552139Y-53577496D01*
X49544099Y-53715697D01*
X49449785Y-53785381D01*
X49351421Y-53809998D01*
X49177712Y-53894095D01*
X49127360Y-54030337D01*
X49205829Y-54184783D01*
X49280836Y-54248551D01*
X49380422Y-54379565D01*
X49359825Y-54515790D01*
X49238976Y-54621493D01*
X49050715Y-54661092D01*
X48855323Y-54709528D01*
X48772700Y-54838020D01*
X48817431Y-55021348D01*
X48830074Y-55042695D01*
X48879337Y-55173949D01*
X48819209Y-55295755D01*
X48793229Y-55325597D01*
X48690602Y-55417706D01*
X48594456Y-55411258D01*
X48490393Y-55349553D01*
X48296199Y-55267737D01*
X48167691Y-55315928D01*
X48109679Y-55491453D01*
X48106724Y-55562645D01*
X48059571Y-55765839D01*
X47942041Y-55868619D01*
X47790022Y-55856115D01*
X47662679Y-55746629D01*
X47510447Y-55632569D01*
X47357326Y-55645718D01*
X47247128Y-55777684D01*
X47231175Y-55829292D01*
X47140577Y-55984054D01*
X46997484Y-56033826D01*
X46856738Y-56026203D01*
X46784339Y-55932595D01*
X46757359Y-55833108D01*
X46693063Y-55668899D01*
X46576076Y-55611898D01*
X46534239Y-55609943D01*
X46362612Y-55667530D01*
X46283188Y-55753721D01*
X46205029Y-55850344D01*
X46093263Y-55843423D01*
X46026395Y-55815556D01*
X45895595Y-55719022D01*
X45860954Y-55562286D01*
X45863562Y-55507598D01*
X45855966Y-55343436D01*
X45779983Y-55272396D01*
X45712333Y-55257689D01*
X45537760Y-55271364D01*
X45446359Y-55314905D01*
X45338006Y-55351390D01*
X45231410Y-55278800D01*
X45134524Y-55168789D01*
X45131650Y-55080286D01*
X45198703Y-54961724D01*
X45253581Y-54778702D01*
X45180441Y-54645407D01*
X44995420Y-54588558D01*
X44973077Y-54588104D01*
X44792895Y-54545381D01*
X44676342Y-54442515D01*
X44634515Y-54317460D01*
X44678512Y-54208166D01*
X44819434Y-54152589D01*
X44845336Y-54151290D01*
X44881222Y-54088179D01*
X44881830Y-53949454D01*
X44850486Y-53865334D01*
X45262906Y-53865334D01*
X45267576Y-53884735D01*
X45338147Y-53934174D01*
X45497546Y-54042614D01*
X45713234Y-54187940D01*
X45744813Y-54209127D01*
X46192959Y-54509646D01*
X46385526Y-54231773D01*
X46503382Y-54020304D01*
X46537781Y-53859757D01*
X46531725Y-53833071D01*
X46533462Y-53734087D01*
X46628369Y-53718414D01*
X46789325Y-53786667D01*
X46849679Y-53825863D01*
X46980407Y-53947781D01*
X47003203Y-54040303D01*
X46911653Y-54077183D01*
X46911076Y-54077184D01*
X46814038Y-54131131D01*
X46678429Y-54262216D01*
X46543868Y-54424302D01*
X46449970Y-54571254D01*
X46429524Y-54637975D01*
X46487005Y-54704043D01*
X46637421Y-54823759D01*
X46850143Y-54973044D01*
X46885702Y-54996611D01*
X47340344Y-55295635D01*
X47546287Y-55016340D01*
X47658500Y-54837809D01*
X47710048Y-54700999D01*
X47706170Y-54662522D01*
X47720608Y-54566847D01*
X47804440Y-54400420D01*
X47930678Y-54202120D01*
X48072331Y-54010827D01*
X48202407Y-53865420D01*
X48293918Y-53804779D01*
X48301390Y-53805112D01*
X48389277Y-53760265D01*
X48521120Y-53627363D01*
X48607683Y-53517550D01*
X48828793Y-53213376D01*
X48371434Y-52915395D01*
X48145449Y-52771788D01*
X47968556Y-52666121D01*
X47874382Y-52618352D01*
X47869392Y-52617414D01*
X47789729Y-52675924D01*
X47681227Y-52818945D01*
X47574607Y-52997712D01*
X47500589Y-53163462D01*
X47485310Y-53227091D01*
X47468008Y-53362276D01*
X47459142Y-53407011D01*
X47400817Y-53384755D01*
X47268119Y-53300391D01*
X47230003Y-53273699D01*
X47097800Y-53155897D01*
X47048579Y-53062295D01*
X47052575Y-53048573D01*
X47137184Y-53010435D01*
X47158027Y-53018946D01*
X47231071Y-52986721D01*
X47350171Y-52861946D01*
X47435690Y-52748128D01*
X47650298Y-52438340D01*
X47207361Y-52126440D01*
X46986894Y-51975534D01*
X46813348Y-51864785D01*
X46720115Y-51815361D01*
X46715388Y-51814540D01*
X46639004Y-51872619D01*
X46532419Y-52014867D01*
X46424267Y-52193307D01*
X46343184Y-52359959D01*
X46317807Y-52466845D01*
X46320958Y-52475405D01*
X46304996Y-52569266D01*
X46218082Y-52730894D01*
X46088722Y-52921203D01*
X45945421Y-53101107D01*
X45816685Y-53231522D01*
X45738307Y-53274311D01*
X45657488Y-53325179D01*
X45538044Y-53450557D01*
X45411469Y-53609603D01*
X45309258Y-53761475D01*
X45262906Y-53865334D01*
X44850486Y-53865334D01*
X44819665Y-53782618D01*
X44700682Y-53726221D01*
G37*
G36*
X56754563Y-56495671D02*
G01*
X56775800Y-56538366D01*
X56702002Y-56633530D01*
X56524869Y-56800806D01*
X56506463Y-56817460D01*
X56220570Y-57075747D01*
X56524710Y-57362859D01*
X56691761Y-57524026D01*
X56761344Y-57609962D01*
X56743146Y-57644567D01*
X56646850Y-57651744D01*
X56641787Y-57651796D01*
X56445656Y-57592187D01*
X56244942Y-57434655D01*
X56100839Y-57297897D01*
X55994934Y-57221489D01*
X55975827Y-57215690D01*
X55934152Y-57279169D01*
X55916498Y-57432097D01*
X55916494Y-57434655D01*
X55883852Y-57608493D01*
X55807011Y-57653621D01*
X55750836Y-57626119D01*
X55717124Y-57526332D01*
X55701014Y-57328341D01*
X55697528Y-57069713D01*
X55702685Y-56770115D01*
X55721395Y-56590315D01*
X55758518Y-56504393D01*
X55807011Y-56485805D01*
X55886765Y-56539311D01*
X55916003Y-56711858D01*
X55916494Y-56749758D01*
X55916494Y-57013711D01*
X56208658Y-56749758D01*
X56400233Y-56600065D01*
X56572374Y-56504411D01*
X56646589Y-56485805D01*
X56754563Y-56495671D01*
G37*
D11*
X80518000Y-66281000D03*
X80518000Y-67831000D03*
D12*
X73025000Y-74105000D03*
X73025000Y-75755000D03*
D11*
X85598000Y-57899000D03*
X85598000Y-59449000D03*
D13*
X52070000Y-78110000D03*
D14*
X52070000Y-75570000D03*
D15*
X99058000Y-81907000D03*
D16*
X77470000Y-67831000D03*
X77470000Y-66281000D03*
D11*
X90170000Y-66395000D03*
X90170000Y-67945000D03*
D17*
X82042000Y-67843500D03*
X82042000Y-66268500D03*
D12*
X69215000Y-74105000D03*
X69215000Y-75755000D03*
D18*
X84766000Y-72511000D03*
D19*
X83566000Y-72136000D03*
X82366000Y-72136000D03*
X82366000Y-74386000D03*
X83566000Y-74386000D03*
X84766000Y-74386000D03*
D13*
X44450000Y-78110000D03*
D14*
X44450000Y-75570000D03*
D20*
X99822000Y-72136000D03*
D21*
X97282000Y-69596000D03*
X102362000Y-69596000D03*
X97282000Y-74676000D03*
X102362000Y-74676000D03*
D22*
X80645000Y-74995000D03*
X79375000Y-74995000D03*
X78105000Y-74995000D03*
X76835000Y-74995000D03*
X76835000Y-79945000D03*
X78105000Y-79945000D03*
X79375000Y-79945000D03*
X80645000Y-79945000D03*
D13*
X48260000Y-78110000D03*
D14*
X48260000Y-75570000D03*
D12*
X65405000Y-74105000D03*
X65405000Y-75755000D03*
D16*
X83566000Y-70879000D03*
X83566000Y-69329000D03*
D23*
X83566000Y-66268500D03*
X83566000Y-67843500D03*
D24*
X73025000Y-78930000D03*
X73025000Y-77280000D03*
X74930000Y-78930000D03*
X74930000Y-77280000D03*
D13*
X55880000Y-78090000D03*
D14*
X55880000Y-75550000D03*
X55880000Y-73010000D03*
D12*
X59690000Y-74105000D03*
X59690000Y-75755000D03*
D24*
X80518000Y-70929000D03*
X80518000Y-69279000D03*
D25*
X88900000Y-52875000D03*
X86360000Y-52875000D03*
X86360000Y-55075000D03*
X88900000Y-55075000D03*
D24*
X60960000Y-66865000D03*
X60960000Y-65215000D03*
D26*
X90266761Y-70454761D03*
D27*
X91186000Y-71374000D03*
D28*
X92105239Y-72293239D03*
D29*
X88709000Y-57912000D03*
X87059000Y-57912000D03*
X52895000Y-80899000D03*
X51245000Y-80899000D03*
D24*
X67310000Y-78930000D03*
X67310000Y-77280000D03*
D11*
X82042000Y-69329000D03*
X82042000Y-70879000D03*
D30*
X86415000Y-62988000D03*
X84840000Y-62988000D03*
D11*
X64135000Y-67170000D03*
X64135000Y-68720000D03*
D15*
X99058000Y-39997000D03*
D24*
X65405000Y-78930000D03*
X65405000Y-77280000D03*
D23*
X90170000Y-63347500D03*
X90170000Y-64922500D03*
D11*
X78994000Y-69329000D03*
X78994000Y-70879000D03*
D24*
X59690000Y-78930000D03*
X59690000Y-77280000D03*
D31*
X82447500Y-63980000D03*
X82447500Y-63480000D03*
X82447500Y-62980000D03*
X82447500Y-62480000D03*
X82447500Y-61980000D03*
X82447500Y-61480000D03*
X82447500Y-60980000D03*
X82447500Y-60480000D03*
D32*
X81760000Y-59792500D03*
X81260000Y-59792500D03*
X80760000Y-59792500D03*
X80260000Y-59792500D03*
X79760000Y-59792500D03*
X79260000Y-59792500D03*
X78760000Y-59792500D03*
X78260000Y-59792500D03*
D31*
X77572500Y-60480000D03*
X77572500Y-60980000D03*
X77572500Y-61480000D03*
X77572500Y-61980000D03*
X77572500Y-62480000D03*
X77572500Y-62980000D03*
X77572500Y-63480000D03*
X77572500Y-63980000D03*
D32*
X78260000Y-64667500D03*
X78760000Y-64667500D03*
X79260000Y-64667500D03*
X79760000Y-64667500D03*
X80260000Y-64667500D03*
X80760000Y-64667500D03*
X81260000Y-64667500D03*
X81760000Y-64667500D03*
D33*
X80010000Y-62230000D03*
D13*
X38100000Y-38100000D03*
D14*
X38100000Y-35560000D03*
X40640000Y-38100000D03*
X40640000Y-35560000D03*
X43180000Y-38100000D03*
X43180000Y-35560000D03*
X45720000Y-38100000D03*
X45720000Y-35560000D03*
X48260000Y-38100000D03*
X48260000Y-35560000D03*
X50800000Y-38100000D03*
X50800000Y-35560000D03*
X53340000Y-38100000D03*
X53340000Y-35560000D03*
X55880000Y-38100000D03*
X55880000Y-35560000D03*
X58420000Y-38100000D03*
X58420000Y-35560000D03*
X60960000Y-38100000D03*
X60960000Y-35560000D03*
X63500000Y-38100000D03*
X63500000Y-35560000D03*
X66040000Y-38100000D03*
X66040000Y-35560000D03*
X68580000Y-38100000D03*
X68580000Y-35560000D03*
X71120000Y-38100000D03*
X71120000Y-35560000D03*
X73660000Y-38100000D03*
X73660000Y-35560000D03*
X76200000Y-38100000D03*
X76200000Y-35560000D03*
X78740000Y-38100000D03*
X78740000Y-35560000D03*
X81280000Y-38100000D03*
X81280000Y-35560000D03*
X83820000Y-38100000D03*
X83820000Y-35560000D03*
X86360000Y-38100000D03*
X86360000Y-35560000D03*
X88900000Y-38100000D03*
X88900000Y-35560000D03*
X91440000Y-38100000D03*
X91440000Y-35560000D03*
X93980000Y-38100000D03*
X93980000Y-35560000D03*
D12*
X71120000Y-74105000D03*
X71120000Y-75755000D03*
D24*
X60960000Y-70040000D03*
X60960000Y-68390000D03*
D12*
X67310000Y-74105000D03*
X67310000Y-75755000D03*
D11*
X87913500Y-61451000D03*
X87913500Y-63001000D03*
D34*
X71030000Y-69385000D03*
X71030000Y-66185000D03*
X66130000Y-66185000D03*
X66130000Y-69385000D03*
D24*
X69215000Y-78930000D03*
X69215000Y-77280000D03*
X71120000Y-78930000D03*
X71120000Y-77280000D03*
D35*
X61915000Y-75432500D03*
X62865000Y-75432500D03*
X63815000Y-75432500D03*
X63815000Y-73157500D03*
X61915000Y-73157500D03*
D36*
X87109000Y-59436000D03*
X88659000Y-59436000D03*
D15*
X33018000Y-36822000D03*
D30*
X86415000Y-61464000D03*
X84840000Y-61464000D03*
D13*
X38100000Y-86360000D03*
D14*
X38100000Y-83820000D03*
X40640000Y-86360000D03*
X40640000Y-83820000D03*
X43180000Y-86360000D03*
X43180000Y-83820000D03*
X45720000Y-86360000D03*
X45720000Y-83820000D03*
X48260000Y-86360000D03*
X48260000Y-83820000D03*
X50800000Y-86360000D03*
X50800000Y-83820000D03*
X53340000Y-86360000D03*
X53340000Y-83820000D03*
X55880000Y-86360000D03*
X55880000Y-83820000D03*
X58420000Y-86360000D03*
X58420000Y-83820000D03*
X60960000Y-86360000D03*
X60960000Y-83820000D03*
X63500000Y-86360000D03*
X63500000Y-83820000D03*
X66040000Y-86360000D03*
X66040000Y-83820000D03*
X68580000Y-86360000D03*
X68580000Y-83820000D03*
X71120000Y-86360000D03*
X71120000Y-83820000D03*
X73660000Y-86360000D03*
X73660000Y-83820000D03*
X76200000Y-86360000D03*
X76200000Y-83820000D03*
X78740000Y-86360000D03*
X78740000Y-83820000D03*
X81280000Y-86360000D03*
X81280000Y-83820000D03*
X83820000Y-86360000D03*
X83820000Y-83820000D03*
X86360000Y-86360000D03*
X86360000Y-83820000D03*
X88900000Y-86360000D03*
X88900000Y-83820000D03*
X91440000Y-86360000D03*
X91440000Y-83820000D03*
X93980000Y-86360000D03*
X93980000Y-83820000D03*
D24*
X61595000Y-78930000D03*
X61595000Y-77280000D03*
D11*
X75946000Y-65773000D03*
X75946000Y-67323000D03*
D15*
X33018000Y-85082000D03*
D24*
X63500000Y-78930000D03*
X63500000Y-77280000D03*
X59055000Y-66865000D03*
X59055000Y-65215000D03*
M02*
