%TF.GenerationSoftware,KiCad,Pcbnew,6.0.4+dfsg-1*%
%TF.CreationDate,2022-04-13T00:03:44+02:00*%
%TF.ProjectId,bbb-mrf89xa-cape,6262622d-6d72-4663-9839-78612d636170,rev?*%
%TF.SameCoordinates,Original*%
%TF.FileFunction,Copper,L2,Bot*%
%TF.FilePolarity,Positive*%
%FSLAX46Y46*%
G04 Gerber Fmt 4.6, Leading zero omitted, Abs format (unit mm)*
G04 Created by KiCad (PCBNEW 6.0.4+dfsg-1) date 2022-04-13 00:03:44*
%MOMM*%
%LPD*%
G01*
G04 APERTURE LIST*
G04 Aperture macros list*
%AMOutline4P*
0 Free polygon, 4 corners , with rotation*
0 The origin of the aperture is its center*
0 number of corners: always 4*
0 $1 to $8 corner X, Y*
0 $9 Rotation angle, in degrees counterclockwise*
0 create outline with 4 corners*
4,1,4,$1,$2,$3,$4,$5,$6,$7,$8,$1,$2,$9*%
G04 Aperture macros list end*
%TA.AperFunction,EtchedComponent*%
%ADD10C,1.000000*%
%TD*%
%TA.AperFunction,ComponentPad*%
%ADD11R,1.700000X1.700000*%
%TD*%
%TA.AperFunction,ComponentPad*%
%ADD12O,1.700000X1.700000*%
%TD*%
%TA.AperFunction,ComponentPad*%
%ADD13C,2.050000*%
%TD*%
%TA.AperFunction,ComponentPad*%
%ADD14C,2.250000*%
%TD*%
%TA.AperFunction,ComponentPad*%
%ADD15C,1.000000*%
%TD*%
%TA.AperFunction,SMDPad,CuDef*%
%ADD16Outline4P,-0.050000X-0.400000X0.050000X-0.400000X0.350000X0.400000X-0.350000X0.400000X270.000000*%
%TD*%
%TA.AperFunction,ViaPad*%
%ADD17C,0.800000*%
%TD*%
%TA.AperFunction,Conductor*%
%ADD18C,0.250000*%
%TD*%
G04 APERTURE END LIST*
D10*
X103382000Y-55134000D02*
X98382000Y-55134000D01*
X103382000Y-47134000D02*
X98382000Y-47134000D01*
X92382000Y-65134000D02*
X103382000Y-65134000D01*
X103382000Y-59134000D02*
X98382000Y-59134000D01*
X103382000Y-51134000D02*
X98382000Y-51134000D01*
X103382000Y-63134000D02*
X98382000Y-63134000D01*
X103382000Y-61134000D02*
X98382000Y-61134000D01*
X103382000Y-57134000D02*
X98382000Y-57134000D01*
X103382000Y-49134000D02*
X98382000Y-49134000D01*
X103382000Y-53134000D02*
X98382000Y-53134000D01*
D11*
X52070000Y-78110000D03*
D12*
X52070000Y-75570000D03*
D11*
X44450000Y-78110000D03*
D12*
X44450000Y-75570000D03*
D13*
X99822000Y-72136000D03*
D14*
X97282000Y-69596000D03*
X102362000Y-69596000D03*
X97282000Y-74676000D03*
X102362000Y-74676000D03*
D11*
X48260000Y-78110000D03*
D12*
X48260000Y-75570000D03*
D11*
X55880000Y-78090000D03*
D12*
X55880000Y-75550000D03*
X55880000Y-73010000D03*
D11*
X38100000Y-38100000D03*
D12*
X38100000Y-35560000D03*
X40640000Y-38100000D03*
X40640000Y-35560000D03*
X43180000Y-38100000D03*
X43180000Y-35560000D03*
X45720000Y-38100000D03*
X45720000Y-35560000D03*
X48260000Y-38100000D03*
X48260000Y-35560000D03*
X50800000Y-38100000D03*
X50800000Y-35560000D03*
X53340000Y-38100000D03*
X53340000Y-35560000D03*
X55880000Y-38100000D03*
X55880000Y-35560000D03*
X58420000Y-38100000D03*
X58420000Y-35560000D03*
X60960000Y-38100000D03*
X60960000Y-35560000D03*
X63500000Y-38100000D03*
X63500000Y-35560000D03*
X66040000Y-38100000D03*
X66040000Y-35560000D03*
X68580000Y-38100000D03*
X68580000Y-35560000D03*
X71120000Y-38100000D03*
X71120000Y-35560000D03*
X73660000Y-38100000D03*
X73660000Y-35560000D03*
X76200000Y-38100000D03*
X76200000Y-35560000D03*
X78740000Y-38100000D03*
X78740000Y-35560000D03*
X81280000Y-38100000D03*
X81280000Y-35560000D03*
X83820000Y-38100000D03*
X83820000Y-35560000D03*
X86360000Y-38100000D03*
X86360000Y-35560000D03*
X88900000Y-38100000D03*
X88900000Y-35560000D03*
X91440000Y-38100000D03*
X91440000Y-35560000D03*
X93980000Y-38100000D03*
X93980000Y-35560000D03*
D11*
X38100000Y-86360000D03*
D12*
X38100000Y-83820000D03*
X40640000Y-86360000D03*
X40640000Y-83820000D03*
X43180000Y-86360000D03*
X43180000Y-83820000D03*
X45720000Y-86360000D03*
X45720000Y-83820000D03*
X48260000Y-86360000D03*
X48260000Y-83820000D03*
X50800000Y-86360000D03*
X50800000Y-83820000D03*
X53340000Y-86360000D03*
X53340000Y-83820000D03*
X55880000Y-86360000D03*
X55880000Y-83820000D03*
X58420000Y-86360000D03*
X58420000Y-83820000D03*
X60960000Y-86360000D03*
X60960000Y-83820000D03*
X63500000Y-86360000D03*
X63500000Y-83820000D03*
X66040000Y-86360000D03*
X66040000Y-83820000D03*
X68580000Y-86360000D03*
X68580000Y-83820000D03*
X71120000Y-86360000D03*
X71120000Y-83820000D03*
X73660000Y-86360000D03*
X73660000Y-83820000D03*
X76200000Y-86360000D03*
X76200000Y-83820000D03*
X78740000Y-86360000D03*
X78740000Y-83820000D03*
X81280000Y-86360000D03*
X81280000Y-83820000D03*
X83820000Y-86360000D03*
X83820000Y-83820000D03*
X86360000Y-86360000D03*
X86360000Y-83820000D03*
X88900000Y-86360000D03*
X88900000Y-83820000D03*
X91440000Y-86360000D03*
X91440000Y-83820000D03*
X93980000Y-86360000D03*
X93980000Y-83820000D03*
D15*
X103382000Y-61134000D03*
X98382000Y-55134000D03*
X98382000Y-47134000D03*
X103382000Y-51134000D03*
X103382000Y-47134000D03*
X103382000Y-55134000D03*
X98382000Y-53134000D03*
X98382000Y-49134000D03*
X103382000Y-59134000D03*
X103382000Y-63134000D03*
X103382000Y-53134000D03*
X103382000Y-49134000D03*
X98382000Y-59134000D03*
X98382000Y-61134000D03*
X98382000Y-57134000D03*
X98382000Y-63134000D03*
X98382000Y-51134000D03*
X103382000Y-57134000D03*
X103382000Y-65134000D03*
D16*
X91682000Y-65134000D03*
D17*
X90170000Y-65278000D03*
X80645000Y-61595000D03*
X91440000Y-60325000D03*
X100965000Y-45720000D03*
X85217000Y-78105000D03*
X99695000Y-45720000D03*
X91440000Y-50165000D03*
X89027000Y-72009000D03*
X83820000Y-64770000D03*
X78994000Y-70879000D03*
X91440000Y-59055000D03*
X91440000Y-48895000D03*
X91438925Y-62862850D03*
X103505000Y-66675000D03*
X91400000Y-64100000D03*
X102235000Y-66675000D03*
X83641000Y-73261000D03*
X90678000Y-73406000D03*
X99695000Y-66675000D03*
X94996000Y-73152000D03*
X93472000Y-71120000D03*
X88900000Y-69215000D03*
X97155000Y-45720000D03*
X91438925Y-47614254D03*
X86614000Y-76073000D03*
X79375000Y-62865000D03*
X88900000Y-77089000D03*
X82042000Y-69342000D03*
X100965000Y-66675000D03*
X90170000Y-63373000D03*
X95885000Y-66675000D03*
X75946000Y-65786000D03*
X92075000Y-66658846D03*
X91440000Y-61595000D03*
X91440000Y-69088000D03*
X93345000Y-66675000D03*
X90043000Y-74422000D03*
X91440000Y-52705000D03*
X69215000Y-76200000D03*
X71030000Y-69385000D03*
X87913500Y-61464000D03*
X94615000Y-45720000D03*
X103505000Y-45720000D03*
X82366000Y-72136000D03*
X88138000Y-70485000D03*
X83439000Y-77089000D03*
X93345000Y-73152000D03*
X91694000Y-67564000D03*
X71120000Y-76200000D03*
X91440000Y-53975000D03*
X98425000Y-66675000D03*
X94615000Y-66675000D03*
X88646000Y-67564000D03*
X63880980Y-75565000D03*
X93344999Y-45708179D03*
X91440000Y-55245000D03*
X64135000Y-68580000D03*
X80518000Y-70929000D03*
X80010000Y-62230000D03*
X91440000Y-56515000D03*
X92456000Y-70231000D03*
X97155000Y-66675000D03*
X82677000Y-75438000D03*
X94996000Y-71120000D03*
X80010000Y-57658000D03*
X91440000Y-46355000D03*
X84836000Y-72136000D03*
X102235000Y-45720000D03*
X77470000Y-66281000D03*
X98425000Y-45720000D03*
X92075000Y-45720000D03*
X95885000Y-45720000D03*
X80645000Y-62865000D03*
X84766000Y-74386000D03*
X78740000Y-77470000D03*
X79375000Y-61595000D03*
X89789000Y-75692000D03*
X87503000Y-77978000D03*
X91440000Y-57785000D03*
X88138000Y-73279000D03*
X82366000Y-74386000D03*
X91438925Y-51426403D03*
X87757000Y-75057000D03*
X88900000Y-55075000D03*
X86360000Y-52875000D03*
X85090000Y-75692000D03*
X73025000Y-76200000D03*
X65405000Y-76200000D03*
D18*
X90170000Y-65278000D02*
X90314000Y-65134000D01*
X90314000Y-65134000D02*
X91557480Y-65134000D01*
%TA.AperFunction,Conductor*%
G36*
X92042604Y-32252043D02*
G01*
X92046670Y-32252685D01*
X92065609Y-32255676D01*
X92074509Y-32254532D01*
X92074515Y-32254532D01*
X92089527Y-32252602D01*
X92109387Y-32251631D01*
X92683127Y-32268930D01*
X92751583Y-32270994D01*
X92758618Y-32271404D01*
X93432558Y-32329566D01*
X93439560Y-32330368D01*
X93931625Y-32400731D01*
X94109207Y-32426125D01*
X94116141Y-32427314D01*
X94617256Y-32527841D01*
X94779398Y-32560367D01*
X94786267Y-32561946D01*
X95074138Y-32636656D01*
X95441061Y-32731881D01*
X95447796Y-32733832D01*
X96092052Y-32940111D01*
X96098695Y-32942445D01*
X96730392Y-33184418D01*
X96736901Y-33187122D01*
X97354091Y-33464043D01*
X97360438Y-33467107D01*
X97961166Y-33778101D01*
X97967332Y-33781515D01*
X98549737Y-34125615D01*
X98555703Y-34129369D01*
X99117952Y-34505492D01*
X99123699Y-34509573D01*
X99648201Y-34904621D01*
X99664036Y-34916548D01*
X99669539Y-34920940D01*
X100123636Y-35304570D01*
X100186288Y-35357500D01*
X100191537Y-35362192D01*
X100673557Y-35817973D01*
X100683059Y-35826958D01*
X100688034Y-35831933D01*
X101152802Y-36323457D01*
X101157495Y-36328706D01*
X101594056Y-36845455D01*
X101598447Y-36850958D01*
X101810421Y-37132394D01*
X102005427Y-37391302D01*
X102009508Y-37397048D01*
X102385631Y-37959297D01*
X102389385Y-37965263D01*
X102733485Y-38547668D01*
X102736899Y-38553834D01*
X103047893Y-39154562D01*
X103050957Y-39160909D01*
X103327878Y-39778099D01*
X103330582Y-39784608D01*
X103572555Y-40416305D01*
X103574889Y-40422948D01*
X103781168Y-41067204D01*
X103783122Y-41073951D01*
X103953054Y-41728733D01*
X103954633Y-41735602D01*
X104086403Y-42392461D01*
X104087684Y-42398849D01*
X104088876Y-42405796D01*
X104184632Y-43075440D01*
X104185434Y-43082442D01*
X104243596Y-43756381D01*
X104244006Y-43763417D01*
X104263141Y-44398011D01*
X104261739Y-44420928D01*
X104259297Y-44436839D01*
X104260480Y-44445736D01*
X104260480Y-44445737D01*
X104263401Y-44467703D01*
X104264500Y-44484311D01*
X104264500Y-46102000D01*
X104244498Y-46170121D01*
X104190842Y-46216614D01*
X104138500Y-46228000D01*
X103859827Y-46228000D01*
X103799127Y-46212415D01*
X103786612Y-46205535D01*
X103786611Y-46205535D01*
X103781213Y-46202567D01*
X103777830Y-46201494D01*
X103774701Y-46199802D01*
X103683974Y-46171718D01*
X103683158Y-46171462D01*
X103598565Y-46144627D01*
X103598561Y-46144626D01*
X103592694Y-46142765D01*
X103589163Y-46142369D01*
X103585768Y-46141318D01*
X103491293Y-46131389D01*
X103490579Y-46131311D01*
X103438773Y-46125500D01*
X103436200Y-46125500D01*
X103432224Y-46125180D01*
X103395204Y-46121289D01*
X103395202Y-46121289D01*
X103389075Y-46120645D01*
X103343309Y-46124810D01*
X103341430Y-46124981D01*
X103330010Y-46125500D01*
X98441873Y-46125500D01*
X98428703Y-46124810D01*
X98395204Y-46121289D01*
X98395202Y-46121289D01*
X98389075Y-46120645D01*
X98338827Y-46125218D01*
X98334793Y-46125500D01*
X98332231Y-46125500D01*
X98329173Y-46125800D01*
X98329169Y-46125800D01*
X98287404Y-46129895D01*
X98286529Y-46129977D01*
X98271982Y-46131301D01*
X98192112Y-46138570D01*
X98188703Y-46139573D01*
X98185167Y-46139920D01*
X98094279Y-46167361D01*
X98093610Y-46167561D01*
X98002381Y-46194410D01*
X97999228Y-46196058D01*
X97995831Y-46197084D01*
X97990401Y-46199971D01*
X97990399Y-46199972D01*
X97965423Y-46213252D01*
X97906270Y-46228000D01*
X91948000Y-46228000D01*
X91948000Y-64146807D01*
X91927998Y-64214928D01*
X91881153Y-64258059D01*
X91821204Y-64289934D01*
X91730868Y-64363610D01*
X91726501Y-64367172D01*
X91691107Y-64387506D01*
X91411184Y-64492477D01*
X91366942Y-64500500D01*
X90682721Y-64500500D01*
X90627300Y-64485650D01*
X90626752Y-64486882D01*
X90458319Y-64411891D01*
X90458318Y-64411891D01*
X90452288Y-64409206D01*
X90350198Y-64387506D01*
X90271944Y-64370872D01*
X90271939Y-64370872D01*
X90265487Y-64369500D01*
X90074513Y-64369500D01*
X90068061Y-64370872D01*
X90068056Y-64370872D01*
X89989802Y-64387506D01*
X89887712Y-64409206D01*
X89881682Y-64411891D01*
X89881681Y-64411891D01*
X89719278Y-64484197D01*
X89719276Y-64484198D01*
X89713248Y-64486882D01*
X89707907Y-64490762D01*
X89707906Y-64490763D01*
X89657843Y-64527136D01*
X89558747Y-64599134D01*
X89430960Y-64741056D01*
X89335473Y-64906444D01*
X89276458Y-65088072D01*
X89256496Y-65278000D01*
X89276458Y-65467928D01*
X89335473Y-65649556D01*
X89430960Y-65814944D01*
X89558747Y-65956866D01*
X89581119Y-65973120D01*
X89704094Y-66062467D01*
X89713248Y-66069118D01*
X89719276Y-66071802D01*
X89719278Y-66071803D01*
X89880057Y-66143386D01*
X89887712Y-66146794D01*
X89978069Y-66166000D01*
X90068056Y-66185128D01*
X90068061Y-66185128D01*
X90074513Y-66186500D01*
X90265487Y-66186500D01*
X90271939Y-66185128D01*
X90271944Y-66185128D01*
X90361931Y-66166000D01*
X90452288Y-66146794D01*
X90459943Y-66143386D01*
X90620722Y-66071803D01*
X90620724Y-66071802D01*
X90626752Y-66069118D01*
X90635907Y-66062467D01*
X90758881Y-65973120D01*
X90781253Y-65956866D01*
X90909040Y-65814944D01*
X90909828Y-65815654D01*
X90961150Y-65776083D01*
X91006857Y-65767500D01*
X91366943Y-65767500D01*
X91411184Y-65775522D01*
X91691711Y-65880719D01*
X91728461Y-65902176D01*
X91809474Y-65970154D01*
X91814863Y-65973117D01*
X91814868Y-65973120D01*
X91936524Y-66040000D01*
X91982787Y-66065433D01*
X91988654Y-66067294D01*
X91988656Y-66067295D01*
X92165436Y-66123373D01*
X92171306Y-66125235D01*
X92325227Y-66142500D01*
X103314226Y-66142500D01*
X103329145Y-66143386D01*
X103360777Y-66147158D01*
X103366912Y-66146686D01*
X103366914Y-66146686D01*
X103416489Y-66142871D01*
X103426156Y-66142500D01*
X103431769Y-66142500D01*
X103468591Y-66138890D01*
X103471212Y-66138660D01*
X103477818Y-66138152D01*
X103551831Y-66132457D01*
X103551835Y-66132456D01*
X103557972Y-66131984D01*
X103563903Y-66130328D01*
X103568345Y-66129545D01*
X103572708Y-66128681D01*
X103578833Y-66128080D01*
X103662131Y-66102931D01*
X103664665Y-66102195D01*
X103742525Y-66080456D01*
X103742526Y-66080456D01*
X103748463Y-66078798D01*
X103753967Y-66076018D01*
X103758164Y-66074390D01*
X103762273Y-66072696D01*
X103768169Y-66070916D01*
X103798577Y-66054748D01*
X103857730Y-66040000D01*
X104138500Y-66040000D01*
X104206621Y-66060002D01*
X104253114Y-66113658D01*
X104264500Y-66166000D01*
X104264500Y-77412759D01*
X104263008Y-77432092D01*
X104259306Y-77455932D01*
X104260473Y-77464828D01*
X104260473Y-77464834D01*
X104262440Y-77479827D01*
X104263463Y-77499702D01*
X104245684Y-78142329D01*
X104245290Y-78149389D01*
X104188645Y-78823848D01*
X104187856Y-78830875D01*
X104156951Y-79050316D01*
X104100873Y-79448500D01*
X104093462Y-79501119D01*
X104092281Y-79508080D01*
X104048697Y-79727539D01*
X103960439Y-80171949D01*
X103958868Y-80178843D01*
X103789987Y-80834286D01*
X103788031Y-80841082D01*
X103582649Y-81486011D01*
X103580317Y-81492682D01*
X103438532Y-81864362D01*
X103339074Y-82125084D01*
X103336373Y-82131608D01*
X103060031Y-82749484D01*
X103056978Y-82755826D01*
X102952203Y-82958717D01*
X102746409Y-83357225D01*
X102742990Y-83363414D01*
X102399173Y-83946443D01*
X102395411Y-83952431D01*
X102019446Y-84515226D01*
X102015355Y-84520994D01*
X101608380Y-85061849D01*
X101603971Y-85067377D01*
X101444411Y-85256351D01*
X101167314Y-85584529D01*
X101162622Y-85589779D01*
X100844881Y-85925875D01*
X100697631Y-86081631D01*
X100692637Y-86086625D01*
X100200779Y-86551622D01*
X100195529Y-86556314D01*
X99945248Y-86767639D01*
X99678377Y-86992971D01*
X99672849Y-86997380D01*
X99131994Y-87404355D01*
X99126226Y-87408446D01*
X98563431Y-87784411D01*
X98557443Y-87788173D01*
X97974414Y-88131990D01*
X97968225Y-88135409D01*
X97634281Y-88307862D01*
X97366826Y-88445978D01*
X97360484Y-88449031D01*
X96742608Y-88725373D01*
X96736093Y-88728070D01*
X96103686Y-88969315D01*
X96097011Y-88971649D01*
X95452082Y-89177031D01*
X95445286Y-89178987D01*
X94789843Y-89347868D01*
X94782949Y-89349439D01*
X94447324Y-89416093D01*
X94119080Y-89481281D01*
X94112131Y-89482460D01*
X93814828Y-89524331D01*
X93441875Y-89576856D01*
X93434848Y-89577645D01*
X93002721Y-89613937D01*
X92760380Y-89634290D01*
X92753335Y-89634684D01*
X92423296Y-89643814D01*
X92118290Y-89652252D01*
X92095379Y-89650793D01*
X92079484Y-89648312D01*
X92070585Y-89649472D01*
X92070582Y-89649472D01*
X92047792Y-89652443D01*
X92031506Y-89653500D01*
X33724183Y-89653500D01*
X33712112Y-89652150D01*
X33712072Y-89652646D01*
X33703125Y-89651923D01*
X33694370Y-89649939D01*
X33685410Y-89650492D01*
X33676462Y-89649769D01*
X33676572Y-89648408D01*
X33654909Y-89646384D01*
X33649459Y-89645006D01*
X33608563Y-89626403D01*
X33594864Y-89616907D01*
X33563093Y-89585136D01*
X33553597Y-89571437D01*
X33534996Y-89530547D01*
X33533424Y-89524331D01*
X33530377Y-89504430D01*
X33530919Y-89498153D01*
X33528972Y-89488470D01*
X33526500Y-89463632D01*
X33526500Y-87796408D01*
X33546502Y-87728287D01*
X33600158Y-87681794D01*
X33629538Y-87672518D01*
X33662372Y-87666433D01*
X33902475Y-87590729D01*
X33968860Y-87569798D01*
X33968863Y-87569797D01*
X33972532Y-87568640D01*
X33976029Y-87567046D01*
X33976035Y-87567044D01*
X34264954Y-87435376D01*
X34264958Y-87435374D01*
X34268462Y-87433777D01*
X34271744Y-87431766D01*
X34542473Y-87265863D01*
X34542476Y-87265861D01*
X34545751Y-87263854D01*
X34548755Y-87261464D01*
X34548760Y-87261461D01*
X34557299Y-87254669D01*
X36742001Y-87254669D01*
X36742371Y-87261490D01*
X36747895Y-87312352D01*
X36751521Y-87327604D01*
X36796676Y-87448054D01*
X36805214Y-87463649D01*
X36881715Y-87565724D01*
X36894276Y-87578285D01*
X36996351Y-87654786D01*
X37011946Y-87663324D01*
X37132394Y-87708478D01*
X37147649Y-87712105D01*
X37198514Y-87717631D01*
X37205328Y-87718000D01*
X37827885Y-87718000D01*
X37843124Y-87713525D01*
X37844329Y-87712135D01*
X37846000Y-87704452D01*
X37846000Y-87699884D01*
X38354000Y-87699884D01*
X38358475Y-87715123D01*
X38359865Y-87716328D01*
X38367548Y-87717999D01*
X38994669Y-87717999D01*
X39001490Y-87717629D01*
X39052352Y-87712105D01*
X39067604Y-87708479D01*
X39188054Y-87663324D01*
X39203649Y-87654786D01*
X39305724Y-87578285D01*
X39318285Y-87565724D01*
X39394786Y-87463649D01*
X39403324Y-87448054D01*
X39444225Y-87338952D01*
X39486867Y-87282188D01*
X39553428Y-87257488D01*
X39622777Y-87272696D01*
X39657444Y-87300684D01*
X39682865Y-87330031D01*
X39682869Y-87330035D01*
X39686250Y-87333938D01*
X39858126Y-87476632D01*
X40051000Y-87589338D01*
X40259692Y-87669030D01*
X40264760Y-87670061D01*
X40264763Y-87670062D01*
X40349722Y-87687347D01*
X40478597Y-87713567D01*
X40483772Y-87713757D01*
X40483774Y-87713757D01*
X40696673Y-87721564D01*
X40696677Y-87721564D01*
X40701837Y-87721753D01*
X40706957Y-87721097D01*
X40706959Y-87721097D01*
X40918288Y-87694025D01*
X40918289Y-87694025D01*
X40923416Y-87693368D01*
X40929259Y-87691615D01*
X41132429Y-87630661D01*
X41132434Y-87630659D01*
X41137384Y-87629174D01*
X41337994Y-87530896D01*
X41519860Y-87401173D01*
X41678096Y-87243489D01*
X41765108Y-87122399D01*
X41808453Y-87062077D01*
X41809776Y-87063028D01*
X41856645Y-87019857D01*
X41926580Y-87007625D01*
X41992026Y-87035144D01*
X42019875Y-87066994D01*
X42079987Y-87165088D01*
X42226250Y-87333938D01*
X42398126Y-87476632D01*
X42591000Y-87589338D01*
X42799692Y-87669030D01*
X42804760Y-87670061D01*
X42804763Y-87670062D01*
X42889722Y-87687347D01*
X43018597Y-87713567D01*
X43023772Y-87713757D01*
X43023774Y-87713757D01*
X43236673Y-87721564D01*
X43236677Y-87721564D01*
X43241837Y-87721753D01*
X43246957Y-87721097D01*
X43246959Y-87721097D01*
X43458288Y-87694025D01*
X43458289Y-87694025D01*
X43463416Y-87693368D01*
X43469259Y-87691615D01*
X43672429Y-87630661D01*
X43672434Y-87630659D01*
X43677384Y-87629174D01*
X43877994Y-87530896D01*
X44059860Y-87401173D01*
X44218096Y-87243489D01*
X44305108Y-87122399D01*
X44348453Y-87062077D01*
X44349776Y-87063028D01*
X44396645Y-87019857D01*
X44466580Y-87007625D01*
X44532026Y-87035144D01*
X44559875Y-87066994D01*
X44619987Y-87165088D01*
X44766250Y-87333938D01*
X44938126Y-87476632D01*
X45131000Y-87589338D01*
X45339692Y-87669030D01*
X45344760Y-87670061D01*
X45344763Y-87670062D01*
X45429722Y-87687347D01*
X45558597Y-87713567D01*
X45563772Y-87713757D01*
X45563774Y-87713757D01*
X45776673Y-87721564D01*
X45776677Y-87721564D01*
X45781837Y-87721753D01*
X45786957Y-87721097D01*
X45786959Y-87721097D01*
X45998288Y-87694025D01*
X45998289Y-87694025D01*
X46003416Y-87693368D01*
X46009259Y-87691615D01*
X46212429Y-87630661D01*
X46212434Y-87630659D01*
X46217384Y-87629174D01*
X46417994Y-87530896D01*
X46599860Y-87401173D01*
X46758096Y-87243489D01*
X46845108Y-87122399D01*
X46888453Y-87062077D01*
X46889776Y-87063028D01*
X46936645Y-87019857D01*
X47006580Y-87007625D01*
X47072026Y-87035144D01*
X47099875Y-87066994D01*
X47159987Y-87165088D01*
X47306250Y-87333938D01*
X47478126Y-87476632D01*
X47671000Y-87589338D01*
X47879692Y-87669030D01*
X47884760Y-87670061D01*
X47884763Y-87670062D01*
X47969722Y-87687347D01*
X48098597Y-87713567D01*
X48103772Y-87713757D01*
X48103774Y-87713757D01*
X48316673Y-87721564D01*
X48316677Y-87721564D01*
X48321837Y-87721753D01*
X48326957Y-87721097D01*
X48326959Y-87721097D01*
X48538288Y-87694025D01*
X48538289Y-87694025D01*
X48543416Y-87693368D01*
X48549259Y-87691615D01*
X48752429Y-87630661D01*
X48752434Y-87630659D01*
X48757384Y-87629174D01*
X48957994Y-87530896D01*
X49139860Y-87401173D01*
X49298096Y-87243489D01*
X49385108Y-87122399D01*
X49428453Y-87062077D01*
X49429776Y-87063028D01*
X49476645Y-87019857D01*
X49546580Y-87007625D01*
X49612026Y-87035144D01*
X49639875Y-87066994D01*
X49699987Y-87165088D01*
X49846250Y-87333938D01*
X50018126Y-87476632D01*
X50211000Y-87589338D01*
X50419692Y-87669030D01*
X50424760Y-87670061D01*
X50424763Y-87670062D01*
X50509722Y-87687347D01*
X50638597Y-87713567D01*
X50643772Y-87713757D01*
X50643774Y-87713757D01*
X50856673Y-87721564D01*
X50856677Y-87721564D01*
X50861837Y-87721753D01*
X50866957Y-87721097D01*
X50866959Y-87721097D01*
X51078288Y-87694025D01*
X51078289Y-87694025D01*
X51083416Y-87693368D01*
X51089259Y-87691615D01*
X51292429Y-87630661D01*
X51292434Y-87630659D01*
X51297384Y-87629174D01*
X51497994Y-87530896D01*
X51679860Y-87401173D01*
X51838096Y-87243489D01*
X51925108Y-87122399D01*
X51968453Y-87062077D01*
X51969776Y-87063028D01*
X52016645Y-87019857D01*
X52086580Y-87007625D01*
X52152026Y-87035144D01*
X52179875Y-87066994D01*
X52239987Y-87165088D01*
X52386250Y-87333938D01*
X52558126Y-87476632D01*
X52751000Y-87589338D01*
X52959692Y-87669030D01*
X52964760Y-87670061D01*
X52964763Y-87670062D01*
X53049722Y-87687347D01*
X53178597Y-87713567D01*
X53183772Y-87713757D01*
X53183774Y-87713757D01*
X53396673Y-87721564D01*
X53396677Y-87721564D01*
X53401837Y-87721753D01*
X53406957Y-87721097D01*
X53406959Y-87721097D01*
X53618288Y-87694025D01*
X53618289Y-87694025D01*
X53623416Y-87693368D01*
X53629259Y-87691615D01*
X53832429Y-87630661D01*
X53832434Y-87630659D01*
X53837384Y-87629174D01*
X54037994Y-87530896D01*
X54219860Y-87401173D01*
X54378096Y-87243489D01*
X54465108Y-87122399D01*
X54508453Y-87062077D01*
X54509776Y-87063028D01*
X54556645Y-87019857D01*
X54626580Y-87007625D01*
X54692026Y-87035144D01*
X54719875Y-87066994D01*
X54779987Y-87165088D01*
X54926250Y-87333938D01*
X55098126Y-87476632D01*
X55291000Y-87589338D01*
X55499692Y-87669030D01*
X55504760Y-87670061D01*
X55504763Y-87670062D01*
X55589722Y-87687347D01*
X55718597Y-87713567D01*
X55723772Y-87713757D01*
X55723774Y-87713757D01*
X55936673Y-87721564D01*
X55936677Y-87721564D01*
X55941837Y-87721753D01*
X55946957Y-87721097D01*
X55946959Y-87721097D01*
X56158288Y-87694025D01*
X56158289Y-87694025D01*
X56163416Y-87693368D01*
X56169259Y-87691615D01*
X56372429Y-87630661D01*
X56372434Y-87630659D01*
X56377384Y-87629174D01*
X56577994Y-87530896D01*
X56759860Y-87401173D01*
X56918096Y-87243489D01*
X57005108Y-87122399D01*
X57048453Y-87062077D01*
X57049776Y-87063028D01*
X57096645Y-87019857D01*
X57166580Y-87007625D01*
X57232026Y-87035144D01*
X57259875Y-87066994D01*
X57319987Y-87165088D01*
X57466250Y-87333938D01*
X57638126Y-87476632D01*
X57831000Y-87589338D01*
X58039692Y-87669030D01*
X58044760Y-87670061D01*
X58044763Y-87670062D01*
X58129722Y-87687347D01*
X58258597Y-87713567D01*
X58263772Y-87713757D01*
X58263774Y-87713757D01*
X58476673Y-87721564D01*
X58476677Y-87721564D01*
X58481837Y-87721753D01*
X58486957Y-87721097D01*
X58486959Y-87721097D01*
X58698288Y-87694025D01*
X58698289Y-87694025D01*
X58703416Y-87693368D01*
X58709259Y-87691615D01*
X58912429Y-87630661D01*
X58912434Y-87630659D01*
X58917384Y-87629174D01*
X59117994Y-87530896D01*
X59299860Y-87401173D01*
X59458096Y-87243489D01*
X59545108Y-87122399D01*
X59588453Y-87062077D01*
X59589776Y-87063028D01*
X59636645Y-87019857D01*
X59706580Y-87007625D01*
X59772026Y-87035144D01*
X59799875Y-87066994D01*
X59859987Y-87165088D01*
X60006250Y-87333938D01*
X60178126Y-87476632D01*
X60371000Y-87589338D01*
X60579692Y-87669030D01*
X60584760Y-87670061D01*
X60584763Y-87670062D01*
X60669722Y-87687347D01*
X60798597Y-87713567D01*
X60803772Y-87713757D01*
X60803774Y-87713757D01*
X61016673Y-87721564D01*
X61016677Y-87721564D01*
X61021837Y-87721753D01*
X61026957Y-87721097D01*
X61026959Y-87721097D01*
X61238288Y-87694025D01*
X61238289Y-87694025D01*
X61243416Y-87693368D01*
X61249259Y-87691615D01*
X61452429Y-87630661D01*
X61452434Y-87630659D01*
X61457384Y-87629174D01*
X61657994Y-87530896D01*
X61839860Y-87401173D01*
X61998096Y-87243489D01*
X62085108Y-87122399D01*
X62128453Y-87062077D01*
X62129776Y-87063028D01*
X62176645Y-87019857D01*
X62246580Y-87007625D01*
X62312026Y-87035144D01*
X62339875Y-87066994D01*
X62399987Y-87165088D01*
X62546250Y-87333938D01*
X62718126Y-87476632D01*
X62911000Y-87589338D01*
X63119692Y-87669030D01*
X63124760Y-87670061D01*
X63124763Y-87670062D01*
X63209722Y-87687347D01*
X63338597Y-87713567D01*
X63343772Y-87713757D01*
X63343774Y-87713757D01*
X63556673Y-87721564D01*
X63556677Y-87721564D01*
X63561837Y-87721753D01*
X63566957Y-87721097D01*
X63566959Y-87721097D01*
X63778288Y-87694025D01*
X63778289Y-87694025D01*
X63783416Y-87693368D01*
X63789259Y-87691615D01*
X63992429Y-87630661D01*
X63992434Y-87630659D01*
X63997384Y-87629174D01*
X64197994Y-87530896D01*
X64379860Y-87401173D01*
X64538096Y-87243489D01*
X64625108Y-87122399D01*
X64668453Y-87062077D01*
X64669776Y-87063028D01*
X64716645Y-87019857D01*
X64786580Y-87007625D01*
X64852026Y-87035144D01*
X64879875Y-87066994D01*
X64939987Y-87165088D01*
X65086250Y-87333938D01*
X65258126Y-87476632D01*
X65451000Y-87589338D01*
X65659692Y-87669030D01*
X65664760Y-87670061D01*
X65664763Y-87670062D01*
X65749722Y-87687347D01*
X65878597Y-87713567D01*
X65883772Y-87713757D01*
X65883774Y-87713757D01*
X66096673Y-87721564D01*
X66096677Y-87721564D01*
X66101837Y-87721753D01*
X66106957Y-87721097D01*
X66106959Y-87721097D01*
X66318288Y-87694025D01*
X66318289Y-87694025D01*
X66323416Y-87693368D01*
X66329259Y-87691615D01*
X66532429Y-87630661D01*
X66532434Y-87630659D01*
X66537384Y-87629174D01*
X66737994Y-87530896D01*
X66919860Y-87401173D01*
X67078096Y-87243489D01*
X67165108Y-87122399D01*
X67208453Y-87062077D01*
X67209776Y-87063028D01*
X67256645Y-87019857D01*
X67326580Y-87007625D01*
X67392026Y-87035144D01*
X67419875Y-87066994D01*
X67479987Y-87165088D01*
X67626250Y-87333938D01*
X67798126Y-87476632D01*
X67991000Y-87589338D01*
X68199692Y-87669030D01*
X68204760Y-87670061D01*
X68204763Y-87670062D01*
X68289722Y-87687347D01*
X68418597Y-87713567D01*
X68423772Y-87713757D01*
X68423774Y-87713757D01*
X68636673Y-87721564D01*
X68636677Y-87721564D01*
X68641837Y-87721753D01*
X68646957Y-87721097D01*
X68646959Y-87721097D01*
X68858288Y-87694025D01*
X68858289Y-87694025D01*
X68863416Y-87693368D01*
X68869259Y-87691615D01*
X69072429Y-87630661D01*
X69072434Y-87630659D01*
X69077384Y-87629174D01*
X69277994Y-87530896D01*
X69459860Y-87401173D01*
X69618096Y-87243489D01*
X69705108Y-87122399D01*
X69748453Y-87062077D01*
X69749776Y-87063028D01*
X69796645Y-87019857D01*
X69866580Y-87007625D01*
X69932026Y-87035144D01*
X69959875Y-87066994D01*
X70019987Y-87165088D01*
X70166250Y-87333938D01*
X70338126Y-87476632D01*
X70531000Y-87589338D01*
X70739692Y-87669030D01*
X70744760Y-87670061D01*
X70744763Y-87670062D01*
X70829722Y-87687347D01*
X70958597Y-87713567D01*
X70963772Y-87713757D01*
X70963774Y-87713757D01*
X71176673Y-87721564D01*
X71176677Y-87721564D01*
X71181837Y-87721753D01*
X71186957Y-87721097D01*
X71186959Y-87721097D01*
X71398288Y-87694025D01*
X71398289Y-87694025D01*
X71403416Y-87693368D01*
X71409259Y-87691615D01*
X71612429Y-87630661D01*
X71612434Y-87630659D01*
X71617384Y-87629174D01*
X71817994Y-87530896D01*
X71999860Y-87401173D01*
X72158096Y-87243489D01*
X72245108Y-87122399D01*
X72288453Y-87062077D01*
X72289776Y-87063028D01*
X72336645Y-87019857D01*
X72406580Y-87007625D01*
X72472026Y-87035144D01*
X72499875Y-87066994D01*
X72559987Y-87165088D01*
X72706250Y-87333938D01*
X72878126Y-87476632D01*
X73071000Y-87589338D01*
X73279692Y-87669030D01*
X73284760Y-87670061D01*
X73284763Y-87670062D01*
X73369722Y-87687347D01*
X73498597Y-87713567D01*
X73503772Y-87713757D01*
X73503774Y-87713757D01*
X73716673Y-87721564D01*
X73716677Y-87721564D01*
X73721837Y-87721753D01*
X73726957Y-87721097D01*
X73726959Y-87721097D01*
X73938288Y-87694025D01*
X73938289Y-87694025D01*
X73943416Y-87693368D01*
X73949259Y-87691615D01*
X74152429Y-87630661D01*
X74152434Y-87630659D01*
X74157384Y-87629174D01*
X74357994Y-87530896D01*
X74539860Y-87401173D01*
X74698096Y-87243489D01*
X74785108Y-87122399D01*
X74828453Y-87062077D01*
X74829776Y-87063028D01*
X74876645Y-87019857D01*
X74946580Y-87007625D01*
X75012026Y-87035144D01*
X75039875Y-87066994D01*
X75099987Y-87165088D01*
X75246250Y-87333938D01*
X75418126Y-87476632D01*
X75611000Y-87589338D01*
X75819692Y-87669030D01*
X75824760Y-87670061D01*
X75824763Y-87670062D01*
X75909722Y-87687347D01*
X76038597Y-87713567D01*
X76043772Y-87713757D01*
X76043774Y-87713757D01*
X76256673Y-87721564D01*
X76256677Y-87721564D01*
X76261837Y-87721753D01*
X76266957Y-87721097D01*
X76266959Y-87721097D01*
X76478288Y-87694025D01*
X76478289Y-87694025D01*
X76483416Y-87693368D01*
X76489259Y-87691615D01*
X76692429Y-87630661D01*
X76692434Y-87630659D01*
X76697384Y-87629174D01*
X76897994Y-87530896D01*
X77079860Y-87401173D01*
X77238096Y-87243489D01*
X77325108Y-87122399D01*
X77368453Y-87062077D01*
X77369776Y-87063028D01*
X77416645Y-87019857D01*
X77486580Y-87007625D01*
X77552026Y-87035144D01*
X77579875Y-87066994D01*
X77639987Y-87165088D01*
X77786250Y-87333938D01*
X77958126Y-87476632D01*
X78151000Y-87589338D01*
X78359692Y-87669030D01*
X78364760Y-87670061D01*
X78364763Y-87670062D01*
X78449722Y-87687347D01*
X78578597Y-87713567D01*
X78583772Y-87713757D01*
X78583774Y-87713757D01*
X78796673Y-87721564D01*
X78796677Y-87721564D01*
X78801837Y-87721753D01*
X78806957Y-87721097D01*
X78806959Y-87721097D01*
X79018288Y-87694025D01*
X79018289Y-87694025D01*
X79023416Y-87693368D01*
X79029259Y-87691615D01*
X79232429Y-87630661D01*
X79232434Y-87630659D01*
X79237384Y-87629174D01*
X79437994Y-87530896D01*
X79619860Y-87401173D01*
X79778096Y-87243489D01*
X79865108Y-87122399D01*
X79908453Y-87062077D01*
X79909776Y-87063028D01*
X79956645Y-87019857D01*
X80026580Y-87007625D01*
X80092026Y-87035144D01*
X80119875Y-87066994D01*
X80179987Y-87165088D01*
X80326250Y-87333938D01*
X80498126Y-87476632D01*
X80691000Y-87589338D01*
X80899692Y-87669030D01*
X80904760Y-87670061D01*
X80904763Y-87670062D01*
X80989722Y-87687347D01*
X81118597Y-87713567D01*
X81123772Y-87713757D01*
X81123774Y-87713757D01*
X81336673Y-87721564D01*
X81336677Y-87721564D01*
X81341837Y-87721753D01*
X81346957Y-87721097D01*
X81346959Y-87721097D01*
X81558288Y-87694025D01*
X81558289Y-87694025D01*
X81563416Y-87693368D01*
X81569259Y-87691615D01*
X81772429Y-87630661D01*
X81772434Y-87630659D01*
X81777384Y-87629174D01*
X81977994Y-87530896D01*
X82159860Y-87401173D01*
X82318096Y-87243489D01*
X82405108Y-87122399D01*
X82448453Y-87062077D01*
X82449776Y-87063028D01*
X82496645Y-87019857D01*
X82566580Y-87007625D01*
X82632026Y-87035144D01*
X82659875Y-87066994D01*
X82719987Y-87165088D01*
X82866250Y-87333938D01*
X83038126Y-87476632D01*
X83231000Y-87589338D01*
X83439692Y-87669030D01*
X83444760Y-87670061D01*
X83444763Y-87670062D01*
X83529722Y-87687347D01*
X83658597Y-87713567D01*
X83663772Y-87713757D01*
X83663774Y-87713757D01*
X83876673Y-87721564D01*
X83876677Y-87721564D01*
X83881837Y-87721753D01*
X83886957Y-87721097D01*
X83886959Y-87721097D01*
X84098288Y-87694025D01*
X84098289Y-87694025D01*
X84103416Y-87693368D01*
X84109259Y-87691615D01*
X84312429Y-87630661D01*
X84312434Y-87630659D01*
X84317384Y-87629174D01*
X84517994Y-87530896D01*
X84699860Y-87401173D01*
X84858096Y-87243489D01*
X84945108Y-87122399D01*
X84988453Y-87062077D01*
X84989776Y-87063028D01*
X85036645Y-87019857D01*
X85106580Y-87007625D01*
X85172026Y-87035144D01*
X85199875Y-87066994D01*
X85259987Y-87165088D01*
X85406250Y-87333938D01*
X85578126Y-87476632D01*
X85771000Y-87589338D01*
X85979692Y-87669030D01*
X85984760Y-87670061D01*
X85984763Y-87670062D01*
X86069722Y-87687347D01*
X86198597Y-87713567D01*
X86203772Y-87713757D01*
X86203774Y-87713757D01*
X86416673Y-87721564D01*
X86416677Y-87721564D01*
X86421837Y-87721753D01*
X86426957Y-87721097D01*
X86426959Y-87721097D01*
X86638288Y-87694025D01*
X86638289Y-87694025D01*
X86643416Y-87693368D01*
X86649259Y-87691615D01*
X86852429Y-87630661D01*
X86852434Y-87630659D01*
X86857384Y-87629174D01*
X87057994Y-87530896D01*
X87239860Y-87401173D01*
X87398096Y-87243489D01*
X87485108Y-87122399D01*
X87528453Y-87062077D01*
X87529776Y-87063028D01*
X87576645Y-87019857D01*
X87646580Y-87007625D01*
X87712026Y-87035144D01*
X87739875Y-87066994D01*
X87799987Y-87165088D01*
X87946250Y-87333938D01*
X88118126Y-87476632D01*
X88311000Y-87589338D01*
X88519692Y-87669030D01*
X88524760Y-87670061D01*
X88524763Y-87670062D01*
X88609722Y-87687347D01*
X88738597Y-87713567D01*
X88743772Y-87713757D01*
X88743774Y-87713757D01*
X88956673Y-87721564D01*
X88956677Y-87721564D01*
X88961837Y-87721753D01*
X88966957Y-87721097D01*
X88966959Y-87721097D01*
X89178288Y-87694025D01*
X89178289Y-87694025D01*
X89183416Y-87693368D01*
X89189259Y-87691615D01*
X89392429Y-87630661D01*
X89392434Y-87630659D01*
X89397384Y-87629174D01*
X89597994Y-87530896D01*
X89779860Y-87401173D01*
X89938096Y-87243489D01*
X90025108Y-87122399D01*
X90068453Y-87062077D01*
X90069640Y-87062930D01*
X90116960Y-87019362D01*
X90186897Y-87007145D01*
X90252338Y-87034678D01*
X90280166Y-87066511D01*
X90337694Y-87160388D01*
X90343777Y-87168699D01*
X90483213Y-87329667D01*
X90490580Y-87336883D01*
X90654434Y-87472916D01*
X90662881Y-87478831D01*
X90846756Y-87586279D01*
X90856042Y-87590729D01*
X91055001Y-87666703D01*
X91064899Y-87669579D01*
X91168250Y-87690606D01*
X91182299Y-87689410D01*
X91186000Y-87679065D01*
X91186000Y-87678517D01*
X91694000Y-87678517D01*
X91698064Y-87692359D01*
X91711478Y-87694393D01*
X91718184Y-87693534D01*
X91728262Y-87691392D01*
X91932255Y-87630191D01*
X91941842Y-87626433D01*
X92133095Y-87532739D01*
X92141945Y-87527464D01*
X92315328Y-87403792D01*
X92323200Y-87397139D01*
X92474052Y-87246812D01*
X92480730Y-87238965D01*
X92608022Y-87061819D01*
X92609147Y-87062627D01*
X92656669Y-87018876D01*
X92726607Y-87006661D01*
X92792046Y-87034197D01*
X92819870Y-87066028D01*
X92877690Y-87160383D01*
X92883777Y-87168699D01*
X93023213Y-87329667D01*
X93030580Y-87336883D01*
X93194434Y-87472916D01*
X93202881Y-87478831D01*
X93386756Y-87586279D01*
X93396042Y-87590729D01*
X93595001Y-87666703D01*
X93604899Y-87669579D01*
X93708250Y-87690606D01*
X93722299Y-87689410D01*
X93726000Y-87679065D01*
X93726000Y-87678517D01*
X94234000Y-87678517D01*
X94238064Y-87692359D01*
X94251478Y-87694393D01*
X94258184Y-87693534D01*
X94268262Y-87691392D01*
X94472255Y-87630191D01*
X94481842Y-87626433D01*
X94673095Y-87532739D01*
X94681945Y-87527464D01*
X94855328Y-87403792D01*
X94863200Y-87397139D01*
X95014052Y-87246812D01*
X95020730Y-87238965D01*
X95145003Y-87066020D01*
X95150313Y-87057183D01*
X95244670Y-86866267D01*
X95248469Y-86856672D01*
X95310377Y-86652910D01*
X95312555Y-86642837D01*
X95313986Y-86631962D01*
X95311775Y-86617778D01*
X95298617Y-86614000D01*
X94252115Y-86614000D01*
X94236876Y-86618475D01*
X94235671Y-86619865D01*
X94234000Y-86627548D01*
X94234000Y-87678517D01*
X93726000Y-87678517D01*
X93726000Y-86632115D01*
X93721525Y-86616876D01*
X93720135Y-86615671D01*
X93712452Y-86614000D01*
X91712115Y-86614000D01*
X91696876Y-86618475D01*
X91695671Y-86619865D01*
X91694000Y-86627548D01*
X91694000Y-87678517D01*
X91186000Y-87678517D01*
X91186000Y-86087885D01*
X91694000Y-86087885D01*
X91698475Y-86103124D01*
X91699865Y-86104329D01*
X91707548Y-86106000D01*
X93707885Y-86106000D01*
X93723124Y-86101525D01*
X93724329Y-86100135D01*
X93726000Y-86092452D01*
X93726000Y-86087885D01*
X94234000Y-86087885D01*
X94238475Y-86103124D01*
X94239865Y-86104329D01*
X94247548Y-86106000D01*
X95298344Y-86106000D01*
X95311875Y-86102027D01*
X95313180Y-86092947D01*
X95271214Y-85925875D01*
X95267894Y-85916124D01*
X95182972Y-85720814D01*
X95178105Y-85711739D01*
X95062426Y-85532926D01*
X95056136Y-85524757D01*
X94912806Y-85367240D01*
X94905273Y-85360215D01*
X94738139Y-85228222D01*
X94729552Y-85222517D01*
X94692116Y-85201851D01*
X94642146Y-85151419D01*
X94627374Y-85081976D01*
X94652490Y-85015571D01*
X94679842Y-84988964D01*
X94855327Y-84863792D01*
X94863200Y-84857139D01*
X95014052Y-84706812D01*
X95020730Y-84698965D01*
X95145003Y-84526020D01*
X95150313Y-84517183D01*
X95244670Y-84326267D01*
X95248469Y-84316672D01*
X95310377Y-84112910D01*
X95312555Y-84102837D01*
X95313986Y-84091962D01*
X95311775Y-84077778D01*
X95298617Y-84074000D01*
X94252115Y-84074000D01*
X94236876Y-84078475D01*
X94235671Y-84079865D01*
X94234000Y-84087548D01*
X94234000Y-86087885D01*
X93726000Y-86087885D01*
X93726000Y-84092115D01*
X93721525Y-84076876D01*
X93720135Y-84075671D01*
X93712452Y-84074000D01*
X91712115Y-84074000D01*
X91696876Y-84078475D01*
X91695671Y-84079865D01*
X91694000Y-84087548D01*
X91694000Y-86087885D01*
X91186000Y-86087885D01*
X91186000Y-83547885D01*
X91694000Y-83547885D01*
X91698475Y-83563124D01*
X91699865Y-83564329D01*
X91707548Y-83566000D01*
X93707885Y-83566000D01*
X93723124Y-83561525D01*
X93724329Y-83560135D01*
X93726000Y-83552452D01*
X93726000Y-83547885D01*
X94234000Y-83547885D01*
X94238475Y-83563124D01*
X94239865Y-83564329D01*
X94247548Y-83566000D01*
X95298344Y-83566000D01*
X95311875Y-83562027D01*
X95313180Y-83552947D01*
X95271214Y-83385875D01*
X95267894Y-83376124D01*
X95182972Y-83180814D01*
X95178105Y-83171739D01*
X95062426Y-82992926D01*
X95056136Y-82984757D01*
X94912806Y-82827240D01*
X94905273Y-82820215D01*
X94738139Y-82688222D01*
X94729552Y-82682517D01*
X94543117Y-82579599D01*
X94533705Y-82575369D01*
X94332959Y-82504280D01*
X94322988Y-82501646D01*
X94251837Y-82488972D01*
X94238540Y-82490432D01*
X94234000Y-82504989D01*
X94234000Y-83547885D01*
X93726000Y-83547885D01*
X93726000Y-82503102D01*
X93722082Y-82489758D01*
X93707806Y-82487771D01*
X93669324Y-82493660D01*
X93659288Y-82496051D01*
X93456868Y-82562212D01*
X93447359Y-82566209D01*
X93258463Y-82664542D01*
X93249738Y-82670036D01*
X93079433Y-82797905D01*
X93071726Y-82804748D01*
X92924590Y-82958717D01*
X92918104Y-82966727D01*
X92813193Y-83120521D01*
X92758282Y-83165524D01*
X92687757Y-83173695D01*
X92624010Y-83142441D01*
X92603313Y-83117957D01*
X92522427Y-82992926D01*
X92516136Y-82984757D01*
X92372806Y-82827240D01*
X92365273Y-82820215D01*
X92198139Y-82688222D01*
X92189552Y-82682517D01*
X92003117Y-82579599D01*
X91993705Y-82575369D01*
X91792959Y-82504280D01*
X91782988Y-82501646D01*
X91711837Y-82488972D01*
X91698540Y-82490432D01*
X91694000Y-82504989D01*
X91694000Y-83547885D01*
X91186000Y-83547885D01*
X91186000Y-82503102D01*
X91182082Y-82489758D01*
X91167806Y-82487771D01*
X91129324Y-82493660D01*
X91119288Y-82496051D01*
X90916868Y-82562212D01*
X90907359Y-82566209D01*
X90718463Y-82664542D01*
X90709738Y-82670036D01*
X90539433Y-82797905D01*
X90531726Y-82804748D01*
X90384590Y-82958717D01*
X90378109Y-82966722D01*
X90273498Y-83120074D01*
X90218587Y-83165076D01*
X90148062Y-83173247D01*
X90084315Y-83141993D01*
X90063618Y-83117509D01*
X89982822Y-82992617D01*
X89982820Y-82992614D01*
X89980014Y-82988277D01*
X89829670Y-82823051D01*
X89825619Y-82819852D01*
X89825615Y-82819848D01*
X89658414Y-82687800D01*
X89658410Y-82687798D01*
X89654359Y-82684598D01*
X89618028Y-82664542D01*
X89501158Y-82600027D01*
X89458789Y-82576638D01*
X89453920Y-82574914D01*
X89453916Y-82574912D01*
X89253087Y-82503795D01*
X89253083Y-82503794D01*
X89248212Y-82502069D01*
X89243119Y-82501162D01*
X89243116Y-82501161D01*
X89033373Y-82463800D01*
X89033367Y-82463799D01*
X89028284Y-82462894D01*
X88954452Y-82461992D01*
X88810081Y-82460228D01*
X88810079Y-82460228D01*
X88804911Y-82460165D01*
X88584091Y-82493955D01*
X88371756Y-82563357D01*
X88173607Y-82666507D01*
X88169474Y-82669610D01*
X88169471Y-82669612D01*
X88058807Y-82752701D01*
X87994965Y-82800635D01*
X87840629Y-82962138D01*
X87733201Y-83119621D01*
X87678293Y-83164621D01*
X87607768Y-83172792D01*
X87544021Y-83141538D01*
X87523324Y-83117054D01*
X87442822Y-82992617D01*
X87442820Y-82992614D01*
X87440014Y-82988277D01*
X87289670Y-82823051D01*
X87285619Y-82819852D01*
X87285615Y-82819848D01*
X87118414Y-82687800D01*
X87118410Y-82687798D01*
X87114359Y-82684598D01*
X87078028Y-82664542D01*
X86961158Y-82600027D01*
X86918789Y-82576638D01*
X86913920Y-82574914D01*
X86913916Y-82574912D01*
X86713087Y-82503795D01*
X86713083Y-82503794D01*
X86708212Y-82502069D01*
X86703119Y-82501162D01*
X86703116Y-82501161D01*
X86493373Y-82463800D01*
X86493367Y-82463799D01*
X86488284Y-82462894D01*
X86414452Y-82461992D01*
X86270081Y-82460228D01*
X86270079Y-82460228D01*
X86264911Y-82460165D01*
X86044091Y-82493955D01*
X85831756Y-82563357D01*
X85633607Y-82666507D01*
X85629474Y-82669610D01*
X85629471Y-82669612D01*
X85518807Y-82752701D01*
X85454965Y-82800635D01*
X85300629Y-82962138D01*
X85193201Y-83119621D01*
X85138293Y-83164621D01*
X85067768Y-83172792D01*
X85004021Y-83141538D01*
X84983324Y-83117054D01*
X84902822Y-82992617D01*
X84902820Y-82992614D01*
X84900014Y-82988277D01*
X84749670Y-82823051D01*
X84745619Y-82819852D01*
X84745615Y-82819848D01*
X84578414Y-82687800D01*
X84578410Y-82687798D01*
X84574359Y-82684598D01*
X84538028Y-82664542D01*
X84421158Y-82600027D01*
X84378789Y-82576638D01*
X84373920Y-82574914D01*
X84373916Y-82574912D01*
X84173087Y-82503795D01*
X84173083Y-82503794D01*
X84168212Y-82502069D01*
X84163119Y-82501162D01*
X84163116Y-82501161D01*
X83953373Y-82463800D01*
X83953367Y-82463799D01*
X83948284Y-82462894D01*
X83874452Y-82461992D01*
X83730081Y-82460228D01*
X83730079Y-82460228D01*
X83724911Y-82460165D01*
X83504091Y-82493955D01*
X83291756Y-82563357D01*
X83093607Y-82666507D01*
X83089474Y-82669610D01*
X83089471Y-82669612D01*
X82978807Y-82752701D01*
X82914965Y-82800635D01*
X82760629Y-82962138D01*
X82653201Y-83119621D01*
X82598293Y-83164621D01*
X82527768Y-83172792D01*
X82464021Y-83141538D01*
X82443324Y-83117054D01*
X82362822Y-82992617D01*
X82362820Y-82992614D01*
X82360014Y-82988277D01*
X82209670Y-82823051D01*
X82205619Y-82819852D01*
X82205615Y-82819848D01*
X82038414Y-82687800D01*
X82038410Y-82687798D01*
X82034359Y-82684598D01*
X81998028Y-82664542D01*
X81881158Y-82600027D01*
X81838789Y-82576638D01*
X81833920Y-82574914D01*
X81833916Y-82574912D01*
X81633087Y-82503795D01*
X81633083Y-82503794D01*
X81628212Y-82502069D01*
X81623119Y-82501162D01*
X81623116Y-82501161D01*
X81413373Y-82463800D01*
X81413367Y-82463799D01*
X81408284Y-82462894D01*
X81334452Y-82461992D01*
X81190081Y-82460228D01*
X81190079Y-82460228D01*
X81184911Y-82460165D01*
X80964091Y-82493955D01*
X80751756Y-82563357D01*
X80553607Y-82666507D01*
X80549474Y-82669610D01*
X80549471Y-82669612D01*
X80438807Y-82752701D01*
X80374965Y-82800635D01*
X80220629Y-82962138D01*
X80113201Y-83119621D01*
X80058293Y-83164621D01*
X79987768Y-83172792D01*
X79924021Y-83141538D01*
X79903324Y-83117054D01*
X79822822Y-82992617D01*
X79822820Y-82992614D01*
X79820014Y-82988277D01*
X79669670Y-82823051D01*
X79665619Y-82819852D01*
X79665615Y-82819848D01*
X79498414Y-82687800D01*
X79498410Y-82687798D01*
X79494359Y-82684598D01*
X79458028Y-82664542D01*
X79341158Y-82600027D01*
X79298789Y-82576638D01*
X79293920Y-82574914D01*
X79293916Y-82574912D01*
X79093087Y-82503795D01*
X79093083Y-82503794D01*
X79088212Y-82502069D01*
X79083119Y-82501162D01*
X79083116Y-82501161D01*
X78873373Y-82463800D01*
X78873367Y-82463799D01*
X78868284Y-82462894D01*
X78794452Y-82461992D01*
X78650081Y-82460228D01*
X78650079Y-82460228D01*
X78644911Y-82460165D01*
X78424091Y-82493955D01*
X78211756Y-82563357D01*
X78013607Y-82666507D01*
X78009474Y-82669610D01*
X78009471Y-82669612D01*
X77898807Y-82752701D01*
X77834965Y-82800635D01*
X77680629Y-82962138D01*
X77573201Y-83119621D01*
X77518293Y-83164621D01*
X77447768Y-83172792D01*
X77384021Y-83141538D01*
X77363324Y-83117054D01*
X77282822Y-82992617D01*
X77282820Y-82992614D01*
X77280014Y-82988277D01*
X77129670Y-82823051D01*
X77125619Y-82819852D01*
X77125615Y-82819848D01*
X76958414Y-82687800D01*
X76958410Y-82687798D01*
X76954359Y-82684598D01*
X76918028Y-82664542D01*
X76801158Y-82600027D01*
X76758789Y-82576638D01*
X76753920Y-82574914D01*
X76753916Y-82574912D01*
X76553087Y-82503795D01*
X76553083Y-82503794D01*
X76548212Y-82502069D01*
X76543119Y-82501162D01*
X76543116Y-82501161D01*
X76333373Y-82463800D01*
X76333367Y-82463799D01*
X76328284Y-82462894D01*
X76254452Y-82461992D01*
X76110081Y-82460228D01*
X76110079Y-82460228D01*
X76104911Y-82460165D01*
X75884091Y-82493955D01*
X75671756Y-82563357D01*
X75473607Y-82666507D01*
X75469474Y-82669610D01*
X75469471Y-82669612D01*
X75358807Y-82752701D01*
X75294965Y-82800635D01*
X75140629Y-82962138D01*
X75033201Y-83119621D01*
X74978293Y-83164621D01*
X74907768Y-83172792D01*
X74844021Y-83141538D01*
X74823324Y-83117054D01*
X74742822Y-82992617D01*
X74742820Y-82992614D01*
X74740014Y-82988277D01*
X74589670Y-82823051D01*
X74585619Y-82819852D01*
X74585615Y-82819848D01*
X74418414Y-82687800D01*
X74418410Y-82687798D01*
X74414359Y-82684598D01*
X74378028Y-82664542D01*
X74261158Y-82600027D01*
X74218789Y-82576638D01*
X74213920Y-82574914D01*
X74213916Y-82574912D01*
X74013087Y-82503795D01*
X74013083Y-82503794D01*
X74008212Y-82502069D01*
X74003119Y-82501162D01*
X74003116Y-82501161D01*
X73793373Y-82463800D01*
X73793367Y-82463799D01*
X73788284Y-82462894D01*
X73714452Y-82461992D01*
X73570081Y-82460228D01*
X73570079Y-82460228D01*
X73564911Y-82460165D01*
X73344091Y-82493955D01*
X73131756Y-82563357D01*
X72933607Y-82666507D01*
X72929474Y-82669610D01*
X72929471Y-82669612D01*
X72818807Y-82752701D01*
X72754965Y-82800635D01*
X72600629Y-82962138D01*
X72493201Y-83119621D01*
X72438293Y-83164621D01*
X72367768Y-83172792D01*
X72304021Y-83141538D01*
X72283324Y-83117054D01*
X72202822Y-82992617D01*
X72202820Y-82992614D01*
X72200014Y-82988277D01*
X72049670Y-82823051D01*
X72045619Y-82819852D01*
X72045615Y-82819848D01*
X71878414Y-82687800D01*
X71878410Y-82687798D01*
X71874359Y-82684598D01*
X71838028Y-82664542D01*
X71721158Y-82600027D01*
X71678789Y-82576638D01*
X71673920Y-82574914D01*
X71673916Y-82574912D01*
X71473087Y-82503795D01*
X71473083Y-82503794D01*
X71468212Y-82502069D01*
X71463119Y-82501162D01*
X71463116Y-82501161D01*
X71253373Y-82463800D01*
X71253367Y-82463799D01*
X71248284Y-82462894D01*
X71174452Y-82461992D01*
X71030081Y-82460228D01*
X71030079Y-82460228D01*
X71024911Y-82460165D01*
X70804091Y-82493955D01*
X70591756Y-82563357D01*
X70393607Y-82666507D01*
X70389474Y-82669610D01*
X70389471Y-82669612D01*
X70278807Y-82752701D01*
X70214965Y-82800635D01*
X70060629Y-82962138D01*
X69953201Y-83119621D01*
X69898293Y-83164621D01*
X69827768Y-83172792D01*
X69764021Y-83141538D01*
X69743324Y-83117054D01*
X69662822Y-82992617D01*
X69662820Y-82992614D01*
X69660014Y-82988277D01*
X69509670Y-82823051D01*
X69505619Y-82819852D01*
X69505615Y-82819848D01*
X69338414Y-82687800D01*
X69338410Y-82687798D01*
X69334359Y-82684598D01*
X69298028Y-82664542D01*
X69181158Y-82600027D01*
X69138789Y-82576638D01*
X69133920Y-82574914D01*
X69133916Y-82574912D01*
X68933087Y-82503795D01*
X68933083Y-82503794D01*
X68928212Y-82502069D01*
X68923119Y-82501162D01*
X68923116Y-82501161D01*
X68713373Y-82463800D01*
X68713367Y-82463799D01*
X68708284Y-82462894D01*
X68634452Y-82461992D01*
X68490081Y-82460228D01*
X68490079Y-82460228D01*
X68484911Y-82460165D01*
X68264091Y-82493955D01*
X68051756Y-82563357D01*
X67853607Y-82666507D01*
X67849474Y-82669610D01*
X67849471Y-82669612D01*
X67738807Y-82752701D01*
X67674965Y-82800635D01*
X67520629Y-82962138D01*
X67413201Y-83119621D01*
X67358293Y-83164621D01*
X67287768Y-83172792D01*
X67224021Y-83141538D01*
X67203324Y-83117054D01*
X67122822Y-82992617D01*
X67122820Y-82992614D01*
X67120014Y-82988277D01*
X66969670Y-82823051D01*
X66965619Y-82819852D01*
X66965615Y-82819848D01*
X66798414Y-82687800D01*
X66798410Y-82687798D01*
X66794359Y-82684598D01*
X66758028Y-82664542D01*
X66641158Y-82600027D01*
X66598789Y-82576638D01*
X66593920Y-82574914D01*
X66593916Y-82574912D01*
X66393087Y-82503795D01*
X66393083Y-82503794D01*
X66388212Y-82502069D01*
X66383119Y-82501162D01*
X66383116Y-82501161D01*
X66173373Y-82463800D01*
X66173367Y-82463799D01*
X66168284Y-82462894D01*
X66094452Y-82461992D01*
X65950081Y-82460228D01*
X65950079Y-82460228D01*
X65944911Y-82460165D01*
X65724091Y-82493955D01*
X65511756Y-82563357D01*
X65313607Y-82666507D01*
X65309474Y-82669610D01*
X65309471Y-82669612D01*
X65198807Y-82752701D01*
X65134965Y-82800635D01*
X64980629Y-82962138D01*
X64873201Y-83119621D01*
X64818293Y-83164621D01*
X64747768Y-83172792D01*
X64684021Y-83141538D01*
X64663324Y-83117054D01*
X64582822Y-82992617D01*
X64582820Y-82992614D01*
X64580014Y-82988277D01*
X64429670Y-82823051D01*
X64425619Y-82819852D01*
X64425615Y-82819848D01*
X64258414Y-82687800D01*
X64258410Y-82687798D01*
X64254359Y-82684598D01*
X64218028Y-82664542D01*
X64101158Y-82600027D01*
X64058789Y-82576638D01*
X64053920Y-82574914D01*
X64053916Y-82574912D01*
X63853087Y-82503795D01*
X63853083Y-82503794D01*
X63848212Y-82502069D01*
X63843119Y-82501162D01*
X63843116Y-82501161D01*
X63633373Y-82463800D01*
X63633367Y-82463799D01*
X63628284Y-82462894D01*
X63554452Y-82461992D01*
X63410081Y-82460228D01*
X63410079Y-82460228D01*
X63404911Y-82460165D01*
X63184091Y-82493955D01*
X62971756Y-82563357D01*
X62773607Y-82666507D01*
X62769474Y-82669610D01*
X62769471Y-82669612D01*
X62658807Y-82752701D01*
X62594965Y-82800635D01*
X62440629Y-82962138D01*
X62333201Y-83119621D01*
X62278293Y-83164621D01*
X62207768Y-83172792D01*
X62144021Y-83141538D01*
X62123324Y-83117054D01*
X62042822Y-82992617D01*
X62042820Y-82992614D01*
X62040014Y-82988277D01*
X61889670Y-82823051D01*
X61885619Y-82819852D01*
X61885615Y-82819848D01*
X61718414Y-82687800D01*
X61718410Y-82687798D01*
X61714359Y-82684598D01*
X61678028Y-82664542D01*
X61561158Y-82600027D01*
X61518789Y-82576638D01*
X61513920Y-82574914D01*
X61513916Y-82574912D01*
X61313087Y-82503795D01*
X61313083Y-82503794D01*
X61308212Y-82502069D01*
X61303119Y-82501162D01*
X61303116Y-82501161D01*
X61093373Y-82463800D01*
X61093367Y-82463799D01*
X61088284Y-82462894D01*
X61014452Y-82461992D01*
X60870081Y-82460228D01*
X60870079Y-82460228D01*
X60864911Y-82460165D01*
X60644091Y-82493955D01*
X60431756Y-82563357D01*
X60233607Y-82666507D01*
X60229474Y-82669610D01*
X60229471Y-82669612D01*
X60118807Y-82752701D01*
X60054965Y-82800635D01*
X59900629Y-82962138D01*
X59793201Y-83119621D01*
X59738293Y-83164621D01*
X59667768Y-83172792D01*
X59604021Y-83141538D01*
X59583324Y-83117054D01*
X59502822Y-82992617D01*
X59502820Y-82992614D01*
X59500014Y-82988277D01*
X59349670Y-82823051D01*
X59345619Y-82819852D01*
X59345615Y-82819848D01*
X59178414Y-82687800D01*
X59178410Y-82687798D01*
X59174359Y-82684598D01*
X59138028Y-82664542D01*
X59021158Y-82600027D01*
X58978789Y-82576638D01*
X58973920Y-82574914D01*
X58973916Y-82574912D01*
X58773087Y-82503795D01*
X58773083Y-82503794D01*
X58768212Y-82502069D01*
X58763119Y-82501162D01*
X58763116Y-82501161D01*
X58553373Y-82463800D01*
X58553367Y-82463799D01*
X58548284Y-82462894D01*
X58474452Y-82461992D01*
X58330081Y-82460228D01*
X58330079Y-82460228D01*
X58324911Y-82460165D01*
X58104091Y-82493955D01*
X57891756Y-82563357D01*
X57693607Y-82666507D01*
X57689474Y-82669610D01*
X57689471Y-82669612D01*
X57578807Y-82752701D01*
X57514965Y-82800635D01*
X57360629Y-82962138D01*
X57253201Y-83119621D01*
X57198293Y-83164621D01*
X57127768Y-83172792D01*
X57064021Y-83141538D01*
X57043324Y-83117054D01*
X56962822Y-82992617D01*
X56962820Y-82992614D01*
X56960014Y-82988277D01*
X56809670Y-82823051D01*
X56805619Y-82819852D01*
X56805615Y-82819848D01*
X56638414Y-82687800D01*
X56638410Y-82687798D01*
X56634359Y-82684598D01*
X56598028Y-82664542D01*
X56481158Y-82600027D01*
X56438789Y-82576638D01*
X56433920Y-82574914D01*
X56433916Y-82574912D01*
X56233087Y-82503795D01*
X56233083Y-82503794D01*
X56228212Y-82502069D01*
X56223119Y-82501162D01*
X56223116Y-82501161D01*
X56013373Y-82463800D01*
X56013367Y-82463799D01*
X56008284Y-82462894D01*
X55934452Y-82461992D01*
X55790081Y-82460228D01*
X55790079Y-82460228D01*
X55784911Y-82460165D01*
X55564091Y-82493955D01*
X55351756Y-82563357D01*
X55153607Y-82666507D01*
X55149474Y-82669610D01*
X55149471Y-82669612D01*
X55038807Y-82752701D01*
X54974965Y-82800635D01*
X54820629Y-82962138D01*
X54713201Y-83119621D01*
X54658293Y-83164621D01*
X54587768Y-83172792D01*
X54524021Y-83141538D01*
X54503324Y-83117054D01*
X54422822Y-82992617D01*
X54422820Y-82992614D01*
X54420014Y-82988277D01*
X54269670Y-82823051D01*
X54265619Y-82819852D01*
X54265615Y-82819848D01*
X54098414Y-82687800D01*
X54098410Y-82687798D01*
X54094359Y-82684598D01*
X54058028Y-82664542D01*
X53941158Y-82600027D01*
X53898789Y-82576638D01*
X53893920Y-82574914D01*
X53893916Y-82574912D01*
X53693087Y-82503795D01*
X53693083Y-82503794D01*
X53688212Y-82502069D01*
X53683119Y-82501162D01*
X53683116Y-82501161D01*
X53473373Y-82463800D01*
X53473367Y-82463799D01*
X53468284Y-82462894D01*
X53394452Y-82461992D01*
X53250081Y-82460228D01*
X53250079Y-82460228D01*
X53244911Y-82460165D01*
X53024091Y-82493955D01*
X52811756Y-82563357D01*
X52613607Y-82666507D01*
X52609474Y-82669610D01*
X52609471Y-82669612D01*
X52498807Y-82752701D01*
X52434965Y-82800635D01*
X52280629Y-82962138D01*
X52173201Y-83119621D01*
X52118293Y-83164621D01*
X52047768Y-83172792D01*
X51984021Y-83141538D01*
X51963324Y-83117054D01*
X51882822Y-82992617D01*
X51882820Y-82992614D01*
X51880014Y-82988277D01*
X51729670Y-82823051D01*
X51725619Y-82819852D01*
X51725615Y-82819848D01*
X51558414Y-82687800D01*
X51558410Y-82687798D01*
X51554359Y-82684598D01*
X51518028Y-82664542D01*
X51401158Y-82600027D01*
X51358789Y-82576638D01*
X51353920Y-82574914D01*
X51353916Y-82574912D01*
X51153087Y-82503795D01*
X51153083Y-82503794D01*
X51148212Y-82502069D01*
X51143119Y-82501162D01*
X51143116Y-82501161D01*
X50933373Y-82463800D01*
X50933367Y-82463799D01*
X50928284Y-82462894D01*
X50854452Y-82461992D01*
X50710081Y-82460228D01*
X50710079Y-82460228D01*
X50704911Y-82460165D01*
X50484091Y-82493955D01*
X50271756Y-82563357D01*
X50073607Y-82666507D01*
X50069474Y-82669610D01*
X50069471Y-82669612D01*
X49958807Y-82752701D01*
X49894965Y-82800635D01*
X49740629Y-82962138D01*
X49633201Y-83119621D01*
X49578293Y-83164621D01*
X49507768Y-83172792D01*
X49444021Y-83141538D01*
X49423324Y-83117054D01*
X49342822Y-82992617D01*
X49342820Y-82992614D01*
X49340014Y-82988277D01*
X49189670Y-82823051D01*
X49185619Y-82819852D01*
X49185615Y-82819848D01*
X49018414Y-82687800D01*
X49018410Y-82687798D01*
X49014359Y-82684598D01*
X48978028Y-82664542D01*
X48861158Y-82600027D01*
X48818789Y-82576638D01*
X48813920Y-82574914D01*
X48813916Y-82574912D01*
X48613087Y-82503795D01*
X48613083Y-82503794D01*
X48608212Y-82502069D01*
X48603119Y-82501162D01*
X48603116Y-82501161D01*
X48393373Y-82463800D01*
X48393367Y-82463799D01*
X48388284Y-82462894D01*
X48314452Y-82461992D01*
X48170081Y-82460228D01*
X48170079Y-82460228D01*
X48164911Y-82460165D01*
X47944091Y-82493955D01*
X47731756Y-82563357D01*
X47533607Y-82666507D01*
X47529474Y-82669610D01*
X47529471Y-82669612D01*
X47418807Y-82752701D01*
X47354965Y-82800635D01*
X47200629Y-82962138D01*
X47093201Y-83119621D01*
X47038293Y-83164621D01*
X46967768Y-83172792D01*
X46904021Y-83141538D01*
X46883324Y-83117054D01*
X46802822Y-82992617D01*
X46802820Y-82992614D01*
X46800014Y-82988277D01*
X46649670Y-82823051D01*
X46645619Y-82819852D01*
X46645615Y-82819848D01*
X46478414Y-82687800D01*
X46478410Y-82687798D01*
X46474359Y-82684598D01*
X46438028Y-82664542D01*
X46321158Y-82600027D01*
X46278789Y-82576638D01*
X46273920Y-82574914D01*
X46273916Y-82574912D01*
X46073087Y-82503795D01*
X46073083Y-82503794D01*
X46068212Y-82502069D01*
X46063119Y-82501162D01*
X46063116Y-82501161D01*
X45853373Y-82463800D01*
X45853367Y-82463799D01*
X45848284Y-82462894D01*
X45774452Y-82461992D01*
X45630081Y-82460228D01*
X45630079Y-82460228D01*
X45624911Y-82460165D01*
X45404091Y-82493955D01*
X45191756Y-82563357D01*
X44993607Y-82666507D01*
X44989474Y-82669610D01*
X44989471Y-82669612D01*
X44878807Y-82752701D01*
X44814965Y-82800635D01*
X44660629Y-82962138D01*
X44553201Y-83119621D01*
X44498293Y-83164621D01*
X44427768Y-83172792D01*
X44364021Y-83141538D01*
X44343324Y-83117054D01*
X44262822Y-82992617D01*
X44262820Y-82992614D01*
X44260014Y-82988277D01*
X44109670Y-82823051D01*
X44105619Y-82819852D01*
X44105615Y-82819848D01*
X43938414Y-82687800D01*
X43938410Y-82687798D01*
X43934359Y-82684598D01*
X43898028Y-82664542D01*
X43781158Y-82600027D01*
X43738789Y-82576638D01*
X43733920Y-82574914D01*
X43733916Y-82574912D01*
X43533087Y-82503795D01*
X43533083Y-82503794D01*
X43528212Y-82502069D01*
X43523119Y-82501162D01*
X43523116Y-82501161D01*
X43313373Y-82463800D01*
X43313367Y-82463799D01*
X43308284Y-82462894D01*
X43234452Y-82461992D01*
X43090081Y-82460228D01*
X43090079Y-82460228D01*
X43084911Y-82460165D01*
X42864091Y-82493955D01*
X42651756Y-82563357D01*
X42453607Y-82666507D01*
X42449474Y-82669610D01*
X42449471Y-82669612D01*
X42338807Y-82752701D01*
X42274965Y-82800635D01*
X42120629Y-82962138D01*
X42013201Y-83119621D01*
X41958293Y-83164621D01*
X41887768Y-83172792D01*
X41824021Y-83141538D01*
X41803324Y-83117054D01*
X41722822Y-82992617D01*
X41722820Y-82992614D01*
X41720014Y-82988277D01*
X41569670Y-82823051D01*
X41565619Y-82819852D01*
X41565615Y-82819848D01*
X41398414Y-82687800D01*
X41398410Y-82687798D01*
X41394359Y-82684598D01*
X41358028Y-82664542D01*
X41241158Y-82600027D01*
X41198789Y-82576638D01*
X41193920Y-82574914D01*
X41193916Y-82574912D01*
X40993087Y-82503795D01*
X40993083Y-82503794D01*
X40988212Y-82502069D01*
X40983119Y-82501162D01*
X40983116Y-82501161D01*
X40773373Y-82463800D01*
X40773367Y-82463799D01*
X40768284Y-82462894D01*
X40694452Y-82461992D01*
X40550081Y-82460228D01*
X40550079Y-82460228D01*
X40544911Y-82460165D01*
X40324091Y-82493955D01*
X40111756Y-82563357D01*
X39913607Y-82666507D01*
X39909474Y-82669610D01*
X39909471Y-82669612D01*
X39798807Y-82752701D01*
X39734965Y-82800635D01*
X39580629Y-82962138D01*
X39577720Y-82966403D01*
X39577714Y-82966411D01*
X39565404Y-82984457D01*
X39473204Y-83119618D01*
X39472898Y-83120066D01*
X39417987Y-83165069D01*
X39347462Y-83173240D01*
X39283715Y-83141986D01*
X39263018Y-83117502D01*
X39182426Y-82992926D01*
X39176136Y-82984757D01*
X39032806Y-82827240D01*
X39025273Y-82820215D01*
X38858139Y-82688222D01*
X38849552Y-82682517D01*
X38663117Y-82579599D01*
X38653705Y-82575369D01*
X38452959Y-82504280D01*
X38442988Y-82501646D01*
X38371837Y-82488972D01*
X38358540Y-82490432D01*
X38354000Y-82504989D01*
X38354000Y-87699884D01*
X37846000Y-87699884D01*
X37846000Y-86632115D01*
X37841525Y-86616876D01*
X37840135Y-86615671D01*
X37832452Y-86614000D01*
X36760116Y-86614000D01*
X36744877Y-86618475D01*
X36743672Y-86619865D01*
X36742001Y-86627548D01*
X36742001Y-87254669D01*
X34557299Y-87254669D01*
X34723584Y-87122399D01*
X34800264Y-87061405D01*
X34802958Y-87058664D01*
X34802962Y-87058660D01*
X35025513Y-86832190D01*
X35025517Y-86832185D01*
X35028208Y-86829447D01*
X35226185Y-86571439D01*
X35391242Y-86291227D01*
X35479658Y-86087885D01*
X36742000Y-86087885D01*
X36746475Y-86103124D01*
X36747865Y-86104329D01*
X36755548Y-86106000D01*
X37827885Y-86106000D01*
X37843124Y-86101525D01*
X37844329Y-86100135D01*
X37846000Y-86092452D01*
X37846000Y-84092115D01*
X37841525Y-84076876D01*
X37840135Y-84075671D01*
X37832452Y-84074000D01*
X36783225Y-84074000D01*
X36769694Y-84077973D01*
X36768257Y-84087966D01*
X36798565Y-84222446D01*
X36801645Y-84232275D01*
X36881770Y-84429603D01*
X36886413Y-84438794D01*
X36997694Y-84620388D01*
X37003777Y-84628699D01*
X37143213Y-84789667D01*
X37150578Y-84796881D01*
X37155966Y-84801354D01*
X37195599Y-84860258D01*
X37197095Y-84931239D01*
X37159978Y-84991761D01*
X37119707Y-85016278D01*
X37011948Y-85056675D01*
X36996351Y-85065214D01*
X36894276Y-85141715D01*
X36881715Y-85154276D01*
X36805214Y-85256351D01*
X36796676Y-85271946D01*
X36751522Y-85392394D01*
X36747895Y-85407649D01*
X36742369Y-85458514D01*
X36742000Y-85465328D01*
X36742000Y-86087885D01*
X35479658Y-86087885D01*
X35520920Y-85992988D01*
X35613285Y-85681169D01*
X35666961Y-85360417D01*
X35681146Y-85035515D01*
X35663234Y-84807922D01*
X35655932Y-84715140D01*
X35655932Y-84715137D01*
X35655630Y-84711305D01*
X35590794Y-84392622D01*
X35487602Y-84084216D01*
X35347595Y-83790684D01*
X35196927Y-83554183D01*
X36764389Y-83554183D01*
X36765912Y-83562607D01*
X36778292Y-83566000D01*
X37827885Y-83566000D01*
X37843124Y-83561525D01*
X37844329Y-83560135D01*
X37846000Y-83552452D01*
X37846000Y-82503102D01*
X37842082Y-82489758D01*
X37827806Y-82487771D01*
X37789324Y-82493660D01*
X37779288Y-82496051D01*
X37576868Y-82562212D01*
X37567359Y-82566209D01*
X37378463Y-82664542D01*
X37369738Y-82670036D01*
X37199433Y-82797905D01*
X37191726Y-82804748D01*
X37044590Y-82958717D01*
X37038104Y-82966727D01*
X36918098Y-83142649D01*
X36913000Y-83151623D01*
X36823338Y-83344783D01*
X36819775Y-83354470D01*
X36764389Y-83554183D01*
X35196927Y-83554183D01*
X35172859Y-83516403D01*
X35076493Y-83399502D01*
X34968442Y-83268425D01*
X34968438Y-83268420D01*
X34965999Y-83265462D01*
X34730098Y-83041601D01*
X34468674Y-82848157D01*
X34294244Y-82749469D01*
X34188981Y-82689914D01*
X34188977Y-82689912D01*
X34185624Y-82688015D01*
X34171347Y-82682101D01*
X33973202Y-82600027D01*
X33885168Y-82563562D01*
X33784593Y-82535670D01*
X33618828Y-82489699D01*
X33558530Y-82452220D01*
X33528067Y-82388091D01*
X33526500Y-82368282D01*
X33526500Y-81953485D01*
X96394854Y-81953485D01*
X96395156Y-81957320D01*
X96413108Y-82185417D01*
X96420370Y-82277695D01*
X96485206Y-82596378D01*
X96588398Y-82904784D01*
X96728405Y-83198316D01*
X96903141Y-83472597D01*
X96905584Y-83475560D01*
X96905585Y-83475562D01*
X97055308Y-83657190D01*
X97110001Y-83723538D01*
X97345902Y-83947399D01*
X97607326Y-84140843D01*
X97660650Y-84171012D01*
X97887019Y-84299086D01*
X97887023Y-84299088D01*
X97890376Y-84300985D01*
X97893937Y-84302460D01*
X97893939Y-84302461D01*
X97940654Y-84321811D01*
X98190832Y-84425438D01*
X98294288Y-84454129D01*
X98500500Y-84511317D01*
X98500508Y-84511319D01*
X98504216Y-84512347D01*
X98825856Y-84560416D01*
X98829154Y-84560560D01*
X98940918Y-84565440D01*
X98940922Y-84565440D01*
X98942294Y-84565500D01*
X99140598Y-84565500D01*
X99382605Y-84550698D01*
X99386388Y-84549997D01*
X99386395Y-84549996D01*
X99558068Y-84518178D01*
X99702372Y-84491433D01*
X99911682Y-84425438D01*
X100008860Y-84394798D01*
X100008863Y-84394797D01*
X100012532Y-84393640D01*
X100016029Y-84392046D01*
X100016035Y-84392044D01*
X100304954Y-84260376D01*
X100304958Y-84260374D01*
X100308462Y-84258777D01*
X100311744Y-84256766D01*
X100582473Y-84090863D01*
X100582476Y-84090861D01*
X100585751Y-84088854D01*
X100588755Y-84086464D01*
X100588760Y-84086461D01*
X100757258Y-83952431D01*
X100840264Y-83886405D01*
X100842958Y-83883664D01*
X100842962Y-83883660D01*
X101065513Y-83657190D01*
X101065517Y-83657185D01*
X101068208Y-83654447D01*
X101266185Y-83396439D01*
X101384931Y-83194848D01*
X101429289Y-83119543D01*
X101429291Y-83119540D01*
X101431242Y-83116227D01*
X101560920Y-82817988D01*
X101653285Y-82506169D01*
X101706961Y-82185417D01*
X101721146Y-81860515D01*
X101708388Y-81698410D01*
X101695932Y-81540140D01*
X101695932Y-81540137D01*
X101695630Y-81536305D01*
X101630794Y-81217622D01*
X101527602Y-80909216D01*
X101387595Y-80615684D01*
X101212859Y-80341403D01*
X101078855Y-80178843D01*
X101008442Y-80093425D01*
X101008438Y-80093420D01*
X101005999Y-80090462D01*
X100770098Y-79866601D01*
X100508674Y-79673157D01*
X100303781Y-79557234D01*
X100228981Y-79514914D01*
X100228977Y-79514912D01*
X100225624Y-79513015D01*
X100213737Y-79508091D01*
X99986018Y-79413767D01*
X99925168Y-79388562D01*
X99821712Y-79359871D01*
X99615500Y-79302683D01*
X99615492Y-79302681D01*
X99611784Y-79301653D01*
X99290144Y-79253584D01*
X99286846Y-79253440D01*
X99175082Y-79248560D01*
X99175078Y-79248560D01*
X99173706Y-79248500D01*
X98975402Y-79248500D01*
X98733395Y-79263302D01*
X98729612Y-79264003D01*
X98729605Y-79264004D01*
X98573511Y-79292935D01*
X98413628Y-79322567D01*
X98229058Y-79380762D01*
X98107140Y-79419202D01*
X98107137Y-79419203D01*
X98103468Y-79420360D01*
X98099971Y-79421954D01*
X98099965Y-79421956D01*
X97811046Y-79553624D01*
X97811042Y-79553626D01*
X97807538Y-79555223D01*
X97530249Y-79725146D01*
X97527245Y-79727536D01*
X97527240Y-79727539D01*
X97402992Y-79826371D01*
X97275736Y-79927595D01*
X97273042Y-79930336D01*
X97273038Y-79930340D01*
X97050487Y-80156810D01*
X97050483Y-80156815D01*
X97047792Y-80159553D01*
X96849815Y-80417561D01*
X96684758Y-80697773D01*
X96555080Y-80996012D01*
X96462715Y-81307831D01*
X96409039Y-81628583D01*
X96394854Y-81953485D01*
X33526500Y-81953485D01*
X33526500Y-79008134D01*
X43091500Y-79008134D01*
X43098255Y-79070316D01*
X43149385Y-79206705D01*
X43236739Y-79323261D01*
X43353295Y-79410615D01*
X43489684Y-79461745D01*
X43551866Y-79468500D01*
X45348134Y-79468500D01*
X45410316Y-79461745D01*
X45546705Y-79410615D01*
X45663261Y-79323261D01*
X45750615Y-79206705D01*
X45801745Y-79070316D01*
X45808500Y-79008134D01*
X46901500Y-79008134D01*
X46908255Y-79070316D01*
X46959385Y-79206705D01*
X47046739Y-79323261D01*
X47163295Y-79410615D01*
X47299684Y-79461745D01*
X47361866Y-79468500D01*
X49158134Y-79468500D01*
X49220316Y-79461745D01*
X49356705Y-79410615D01*
X49473261Y-79323261D01*
X49560615Y-79206705D01*
X49611745Y-79070316D01*
X49618500Y-79008134D01*
X50711500Y-79008134D01*
X50718255Y-79070316D01*
X50769385Y-79206705D01*
X50856739Y-79323261D01*
X50973295Y-79410615D01*
X51109684Y-79461745D01*
X51171866Y-79468500D01*
X52968134Y-79468500D01*
X53030316Y-79461745D01*
X53166705Y-79410615D01*
X53283261Y-79323261D01*
X53370615Y-79206705D01*
X53421745Y-79070316D01*
X53428500Y-79008134D01*
X53428500Y-77211866D01*
X53421745Y-77149684D01*
X53370615Y-77013295D01*
X53283261Y-76896739D01*
X53166705Y-76809385D01*
X53047687Y-76764767D01*
X52990923Y-76722125D01*
X52966223Y-76655564D01*
X52981430Y-76586215D01*
X53002977Y-76557535D01*
X53104052Y-76456812D01*
X53110730Y-76448965D01*
X53235003Y-76276020D01*
X53240313Y-76267183D01*
X53334670Y-76076267D01*
X53338469Y-76066672D01*
X53400377Y-75862910D01*
X53402555Y-75852837D01*
X53403986Y-75841962D01*
X53401775Y-75827778D01*
X53388617Y-75824000D01*
X50753225Y-75824000D01*
X50739694Y-75827973D01*
X50738257Y-75837966D01*
X50768565Y-75972446D01*
X50771645Y-75982275D01*
X50851770Y-76179603D01*
X50856413Y-76188794D01*
X50967694Y-76370388D01*
X50973777Y-76378699D01*
X51113213Y-76539667D01*
X51120577Y-76546879D01*
X51125522Y-76550985D01*
X51165156Y-76609889D01*
X51166653Y-76680870D01*
X51129537Y-76741392D01*
X51089264Y-76765910D01*
X50981705Y-76806232D01*
X50981704Y-76806233D01*
X50973295Y-76809385D01*
X50856739Y-76896739D01*
X50769385Y-77013295D01*
X50718255Y-77149684D01*
X50711500Y-77211866D01*
X50711500Y-79008134D01*
X49618500Y-79008134D01*
X49618500Y-77211866D01*
X49611745Y-77149684D01*
X49560615Y-77013295D01*
X49473261Y-76896739D01*
X49356705Y-76809385D01*
X49237687Y-76764767D01*
X49180923Y-76722125D01*
X49156223Y-76655564D01*
X49171430Y-76586215D01*
X49192977Y-76557535D01*
X49294052Y-76456812D01*
X49300730Y-76448965D01*
X49425003Y-76276020D01*
X49430313Y-76267183D01*
X49524670Y-76076267D01*
X49528469Y-76066672D01*
X49590377Y-75862910D01*
X49592555Y-75852837D01*
X49593986Y-75841962D01*
X49591775Y-75827778D01*
X49578617Y-75824000D01*
X46943225Y-75824000D01*
X46929694Y-75827973D01*
X46928257Y-75837966D01*
X46958565Y-75972446D01*
X46961645Y-75982275D01*
X47041770Y-76179603D01*
X47046413Y-76188794D01*
X47157694Y-76370388D01*
X47163777Y-76378699D01*
X47303213Y-76539667D01*
X47310577Y-76546879D01*
X47315522Y-76550985D01*
X47355156Y-76609889D01*
X47356653Y-76680870D01*
X47319537Y-76741392D01*
X47279264Y-76765910D01*
X47171705Y-76806232D01*
X47171704Y-76806233D01*
X47163295Y-76809385D01*
X47046739Y-76896739D01*
X46959385Y-77013295D01*
X46908255Y-77149684D01*
X46901500Y-77211866D01*
X46901500Y-79008134D01*
X45808500Y-79008134D01*
X45808500Y-77211866D01*
X45801745Y-77149684D01*
X45750615Y-77013295D01*
X45663261Y-76896739D01*
X45546705Y-76809385D01*
X45427687Y-76764767D01*
X45370923Y-76722125D01*
X45346223Y-76655564D01*
X45361430Y-76586215D01*
X45382977Y-76557535D01*
X45484052Y-76456812D01*
X45490730Y-76448965D01*
X45615003Y-76276020D01*
X45620313Y-76267183D01*
X45714670Y-76076267D01*
X45718469Y-76066672D01*
X45780377Y-75862910D01*
X45782555Y-75852837D01*
X45783986Y-75841962D01*
X45781775Y-75827778D01*
X45768617Y-75824000D01*
X43133225Y-75824000D01*
X43119694Y-75827973D01*
X43118257Y-75837966D01*
X43148565Y-75972446D01*
X43151645Y-75982275D01*
X43231770Y-76179603D01*
X43236413Y-76188794D01*
X43347694Y-76370388D01*
X43353777Y-76378699D01*
X43493213Y-76539667D01*
X43500577Y-76546879D01*
X43505522Y-76550985D01*
X43545156Y-76609889D01*
X43546653Y-76680870D01*
X43509537Y-76741392D01*
X43469264Y-76765910D01*
X43361705Y-76806232D01*
X43361704Y-76806233D01*
X43353295Y-76809385D01*
X43236739Y-76896739D01*
X43149385Y-77013295D01*
X43098255Y-77149684D01*
X43091500Y-77211866D01*
X43091500Y-79008134D01*
X33526500Y-79008134D01*
X33526500Y-76160059D01*
X33546502Y-76091938D01*
X33600158Y-76045445D01*
X33638367Y-76034854D01*
X33677205Y-76030470D01*
X33943909Y-76000364D01*
X33943923Y-76000362D01*
X33946243Y-76000100D01*
X34145163Y-75962425D01*
X34401472Y-75913881D01*
X34401485Y-75913878D01*
X34403803Y-75913439D01*
X34853610Y-75792836D01*
X35293150Y-75638967D01*
X35295311Y-75638024D01*
X35573313Y-75516695D01*
X54517251Y-75516695D01*
X54517548Y-75521848D01*
X54517548Y-75521851D01*
X54523653Y-75627724D01*
X54530110Y-75739715D01*
X54531247Y-75744761D01*
X54531248Y-75744767D01*
X54542219Y-75793448D01*
X54579222Y-75957639D01*
X54633755Y-76091938D01*
X54650399Y-76132927D01*
X54663266Y-76164616D01*
X54779987Y-76355088D01*
X54926250Y-76523938D01*
X54930230Y-76527242D01*
X54934981Y-76531187D01*
X54974616Y-76590090D01*
X54976113Y-76661071D01*
X54938997Y-76721593D01*
X54898724Y-76746112D01*
X54783295Y-76789385D01*
X54666739Y-76876739D01*
X54579385Y-76993295D01*
X54528255Y-77129684D01*
X54521500Y-77191866D01*
X54521500Y-78988134D01*
X54528255Y-79050316D01*
X54579385Y-79186705D01*
X54666739Y-79303261D01*
X54783295Y-79390615D01*
X54919684Y-79441745D01*
X54981866Y-79448500D01*
X56778134Y-79448500D01*
X56840316Y-79441745D01*
X56976705Y-79390615D01*
X57093261Y-79303261D01*
X57180615Y-79186705D01*
X57231745Y-79050316D01*
X57238500Y-78988134D01*
X57238500Y-77191866D01*
X57231745Y-77129684D01*
X57180615Y-76993295D01*
X57093261Y-76876739D01*
X56976705Y-76789385D01*
X56911037Y-76764767D01*
X56858203Y-76744960D01*
X56801439Y-76702318D01*
X56776739Y-76635756D01*
X56791947Y-76566408D01*
X56813493Y-76537727D01*
X56914435Y-76437137D01*
X56918096Y-76433489D01*
X56963439Y-76370388D01*
X57045435Y-76256277D01*
X57048453Y-76252077D01*
X57147430Y-76051811D01*
X57163028Y-76000471D01*
X96322884Y-76000471D01*
X96326570Y-76005740D01*
X96534121Y-76132927D01*
X96542915Y-76137408D01*
X96771242Y-76231984D01*
X96780627Y-76235033D01*
X97020940Y-76292728D01*
X97030687Y-76294271D01*
X97277070Y-76313662D01*
X97286930Y-76313662D01*
X97533313Y-76294271D01*
X97543060Y-76292728D01*
X97783373Y-76235033D01*
X97792758Y-76231984D01*
X98021085Y-76137408D01*
X98029879Y-76132927D01*
X98235928Y-76006660D01*
X98239968Y-76000471D01*
X101402884Y-76000471D01*
X101406570Y-76005740D01*
X101614121Y-76132927D01*
X101622915Y-76137408D01*
X101851242Y-76231984D01*
X101860627Y-76235033D01*
X102100940Y-76292728D01*
X102110687Y-76294271D01*
X102357070Y-76313662D01*
X102366930Y-76313662D01*
X102613313Y-76294271D01*
X102623060Y-76292728D01*
X102863373Y-76235033D01*
X102872758Y-76231984D01*
X103101085Y-76137408D01*
X103109879Y-76132927D01*
X103315928Y-76006660D01*
X103321190Y-75998599D01*
X103315183Y-75988393D01*
X102374812Y-75048022D01*
X102360868Y-75040408D01*
X102359035Y-75040539D01*
X102352420Y-75044790D01*
X101410276Y-75986934D01*
X101402884Y-76000471D01*
X98239968Y-76000471D01*
X98241190Y-75998599D01*
X98235183Y-75988393D01*
X97294812Y-75048022D01*
X97280868Y-75040408D01*
X97279035Y-75040539D01*
X97272420Y-75044790D01*
X96330276Y-75986934D01*
X96322884Y-76000471D01*
X57163028Y-76000471D01*
X57179900Y-75944940D01*
X57210865Y-75843023D01*
X57210865Y-75843021D01*
X57212370Y-75838069D01*
X57241529Y-75616590D01*
X57243156Y-75550000D01*
X57224852Y-75327361D01*
X57170431Y-75110702D01*
X57081354Y-74905840D01*
X56975960Y-74742926D01*
X56962822Y-74722617D01*
X56962820Y-74722614D01*
X56960014Y-74718277D01*
X56926031Y-74680930D01*
X95644338Y-74680930D01*
X95663729Y-74927313D01*
X95665272Y-74937060D01*
X95722967Y-75177373D01*
X95726016Y-75186758D01*
X95820592Y-75415085D01*
X95825073Y-75423879D01*
X95951340Y-75629928D01*
X95959401Y-75635190D01*
X95969607Y-75629183D01*
X96909978Y-74688812D01*
X96916356Y-74677132D01*
X97646408Y-74677132D01*
X97646539Y-74678965D01*
X97650790Y-74685580D01*
X98592934Y-75627724D01*
X98606471Y-75635116D01*
X98611740Y-75631430D01*
X98738927Y-75423879D01*
X98743408Y-75415085D01*
X98837984Y-75186758D01*
X98841033Y-75177373D01*
X98898728Y-74937060D01*
X98900271Y-74927313D01*
X98919662Y-74680930D01*
X100724338Y-74680930D01*
X100743729Y-74927313D01*
X100745272Y-74937060D01*
X100802967Y-75177373D01*
X100806016Y-75186758D01*
X100900592Y-75415085D01*
X100905073Y-75423879D01*
X101031340Y-75629928D01*
X101039401Y-75635190D01*
X101049607Y-75629183D01*
X101989978Y-74688812D01*
X101996356Y-74677132D01*
X102726408Y-74677132D01*
X102726539Y-74678965D01*
X102730790Y-74685580D01*
X103672934Y-75627724D01*
X103686471Y-75635116D01*
X103691740Y-75631430D01*
X103818927Y-75423879D01*
X103823408Y-75415085D01*
X103917984Y-75186758D01*
X103921033Y-75177373D01*
X103978728Y-74937060D01*
X103980271Y-74927313D01*
X103999662Y-74680930D01*
X103999662Y-74671070D01*
X103980271Y-74424687D01*
X103978728Y-74414940D01*
X103921033Y-74174627D01*
X103917984Y-74165242D01*
X103823408Y-73936915D01*
X103818927Y-73928121D01*
X103692660Y-73722072D01*
X103684599Y-73716810D01*
X103674393Y-73722817D01*
X102734022Y-74663188D01*
X102726408Y-74677132D01*
X101996356Y-74677132D01*
X101997592Y-74674868D01*
X101997461Y-74673035D01*
X101993210Y-74666420D01*
X101051066Y-73724276D01*
X101037529Y-73716884D01*
X101032260Y-73720570D01*
X100905073Y-73928121D01*
X100900592Y-73936915D01*
X100806016Y-74165242D01*
X100802967Y-74174627D01*
X100745272Y-74414940D01*
X100743729Y-74424687D01*
X100724338Y-74671070D01*
X100724338Y-74680930D01*
X98919662Y-74680930D01*
X98919662Y-74671070D01*
X98900271Y-74424687D01*
X98898728Y-74414940D01*
X98841033Y-74174627D01*
X98837984Y-74165242D01*
X98743408Y-73936915D01*
X98738927Y-73928121D01*
X98612660Y-73722072D01*
X98604599Y-73716810D01*
X98594393Y-73722817D01*
X97654022Y-74663188D01*
X97646408Y-74677132D01*
X96916356Y-74677132D01*
X96917592Y-74674868D01*
X96917461Y-74673035D01*
X96913210Y-74666420D01*
X95971066Y-73724276D01*
X95957529Y-73716884D01*
X95952260Y-73720570D01*
X95825073Y-73928121D01*
X95820592Y-73936915D01*
X95726016Y-74165242D01*
X95722967Y-74174627D01*
X95665272Y-74414940D01*
X95663729Y-74424687D01*
X95644338Y-74671070D01*
X95644338Y-74680930D01*
X56926031Y-74680930D01*
X56809670Y-74553051D01*
X56805619Y-74549852D01*
X56805615Y-74549848D01*
X56638414Y-74417800D01*
X56638410Y-74417798D01*
X56634359Y-74414598D01*
X56617431Y-74405253D01*
X56592569Y-74391529D01*
X56542598Y-74341097D01*
X56527826Y-74271654D01*
X56552942Y-74205248D01*
X56580294Y-74178641D01*
X56755328Y-74053792D01*
X56763200Y-74047139D01*
X56914052Y-73896812D01*
X56920730Y-73888965D01*
X57045003Y-73716020D01*
X57050313Y-73707183D01*
X57144670Y-73516267D01*
X57148469Y-73506672D01*
X57195037Y-73353401D01*
X96322810Y-73353401D01*
X96328817Y-73363607D01*
X97269188Y-74303978D01*
X97283132Y-74311592D01*
X97284965Y-74311461D01*
X97291580Y-74307210D01*
X98233724Y-73365066D01*
X98241116Y-73351529D01*
X98237430Y-73346260D01*
X98029879Y-73219073D01*
X98021085Y-73214592D01*
X97792758Y-73120016D01*
X97783373Y-73116967D01*
X97543060Y-73059272D01*
X97533313Y-73057729D01*
X97286930Y-73038338D01*
X97277070Y-73038338D01*
X97030687Y-73057729D01*
X97020940Y-73059272D01*
X96780627Y-73116967D01*
X96771242Y-73120016D01*
X96542915Y-73214592D01*
X96534121Y-73219073D01*
X96328072Y-73345340D01*
X96322810Y-73353401D01*
X57195037Y-73353401D01*
X57210377Y-73302910D01*
X57212555Y-73292837D01*
X57213986Y-73281962D01*
X57211775Y-73267778D01*
X57198617Y-73264000D01*
X54563225Y-73264000D01*
X54549694Y-73267973D01*
X54548257Y-73277966D01*
X54578565Y-73412446D01*
X54581645Y-73422275D01*
X54661770Y-73619603D01*
X54666413Y-73628794D01*
X54777694Y-73810388D01*
X54783777Y-73818699D01*
X54923213Y-73979667D01*
X54930580Y-73986883D01*
X55094434Y-74122916D01*
X55102881Y-74128831D01*
X55171969Y-74169203D01*
X55220693Y-74220842D01*
X55233764Y-74290625D01*
X55207033Y-74356396D01*
X55166584Y-74389752D01*
X55153607Y-74396507D01*
X55149474Y-74399610D01*
X55149471Y-74399612D01*
X54979100Y-74527530D01*
X54974965Y-74530635D01*
X54971393Y-74534373D01*
X54831340Y-74680930D01*
X54820629Y-74692138D01*
X54817715Y-74696410D01*
X54817714Y-74696411D01*
X54802798Y-74718277D01*
X54694743Y-74876680D01*
X54671240Y-74927313D01*
X54610732Y-75057668D01*
X54600688Y-75079305D01*
X54540989Y-75294570D01*
X54517251Y-75516695D01*
X35573313Y-75516695D01*
X35717808Y-75453633D01*
X35717812Y-75453631D01*
X35719966Y-75452691D01*
X36000895Y-75304183D01*
X43114389Y-75304183D01*
X43115912Y-75312607D01*
X43128292Y-75316000D01*
X44177885Y-75316000D01*
X44193124Y-75311525D01*
X44194329Y-75310135D01*
X44196000Y-75302452D01*
X44196000Y-75297885D01*
X44704000Y-75297885D01*
X44708475Y-75313124D01*
X44709865Y-75314329D01*
X44717548Y-75316000D01*
X45768344Y-75316000D01*
X45781875Y-75312027D01*
X45783002Y-75304183D01*
X46924389Y-75304183D01*
X46925912Y-75312607D01*
X46938292Y-75316000D01*
X47987885Y-75316000D01*
X48003124Y-75311525D01*
X48004329Y-75310135D01*
X48006000Y-75302452D01*
X48006000Y-75297885D01*
X48514000Y-75297885D01*
X48518475Y-75313124D01*
X48519865Y-75314329D01*
X48527548Y-75316000D01*
X49578344Y-75316000D01*
X49591875Y-75312027D01*
X49593002Y-75304183D01*
X50734389Y-75304183D01*
X50735912Y-75312607D01*
X50748292Y-75316000D01*
X51797885Y-75316000D01*
X51813124Y-75311525D01*
X51814329Y-75310135D01*
X51816000Y-75302452D01*
X51816000Y-75297885D01*
X52324000Y-75297885D01*
X52328475Y-75313124D01*
X52329865Y-75314329D01*
X52337548Y-75316000D01*
X53388344Y-75316000D01*
X53401875Y-75312027D01*
X53403180Y-75302947D01*
X53361214Y-75135875D01*
X53357894Y-75126124D01*
X53272972Y-74930814D01*
X53268105Y-74921739D01*
X53152426Y-74742926D01*
X53146136Y-74734757D01*
X53002806Y-74577240D01*
X52995273Y-74570215D01*
X52828139Y-74438222D01*
X52819552Y-74432517D01*
X52633117Y-74329599D01*
X52623705Y-74325369D01*
X52422959Y-74254280D01*
X52412988Y-74251646D01*
X52341837Y-74238972D01*
X52328540Y-74240432D01*
X52324000Y-74254989D01*
X52324000Y-75297885D01*
X51816000Y-75297885D01*
X51816000Y-74253102D01*
X51812082Y-74239758D01*
X51797806Y-74237771D01*
X51759324Y-74243660D01*
X51749288Y-74246051D01*
X51546868Y-74312212D01*
X51537359Y-74316209D01*
X51348463Y-74414542D01*
X51339738Y-74420036D01*
X51169433Y-74547905D01*
X51161726Y-74554748D01*
X51014590Y-74708717D01*
X51008104Y-74716727D01*
X50888098Y-74892649D01*
X50883000Y-74901623D01*
X50793338Y-75094783D01*
X50789775Y-75104470D01*
X50734389Y-75304183D01*
X49593002Y-75304183D01*
X49593180Y-75302947D01*
X49551214Y-75135875D01*
X49547894Y-75126124D01*
X49462972Y-74930814D01*
X49458105Y-74921739D01*
X49342426Y-74742926D01*
X49336136Y-74734757D01*
X49192806Y-74577240D01*
X49185273Y-74570215D01*
X49018139Y-74438222D01*
X49009552Y-74432517D01*
X48823117Y-74329599D01*
X48813705Y-74325369D01*
X48612959Y-74254280D01*
X48602988Y-74251646D01*
X48531837Y-74238972D01*
X48518540Y-74240432D01*
X48514000Y-74254989D01*
X48514000Y-75297885D01*
X48006000Y-75297885D01*
X48006000Y-74253102D01*
X48002082Y-74239758D01*
X47987806Y-74237771D01*
X47949324Y-74243660D01*
X47939288Y-74246051D01*
X47736868Y-74312212D01*
X47727359Y-74316209D01*
X47538463Y-74414542D01*
X47529738Y-74420036D01*
X47359433Y-74547905D01*
X47351726Y-74554748D01*
X47204590Y-74708717D01*
X47198104Y-74716727D01*
X47078098Y-74892649D01*
X47073000Y-74901623D01*
X46983338Y-75094783D01*
X46979775Y-75104470D01*
X46924389Y-75304183D01*
X45783002Y-75304183D01*
X45783180Y-75302947D01*
X45741214Y-75135875D01*
X45737894Y-75126124D01*
X45652972Y-74930814D01*
X45648105Y-74921739D01*
X45532426Y-74742926D01*
X45526136Y-74734757D01*
X45382806Y-74577240D01*
X45375273Y-74570215D01*
X45208139Y-74438222D01*
X45199552Y-74432517D01*
X45013117Y-74329599D01*
X45003705Y-74325369D01*
X44802959Y-74254280D01*
X44792988Y-74251646D01*
X44721837Y-74238972D01*
X44708540Y-74240432D01*
X44704000Y-74254989D01*
X44704000Y-75297885D01*
X44196000Y-75297885D01*
X44196000Y-74253102D01*
X44192082Y-74239758D01*
X44177806Y-74237771D01*
X44139324Y-74243660D01*
X44129288Y-74246051D01*
X43926868Y-74312212D01*
X43917359Y-74316209D01*
X43728463Y-74414542D01*
X43719738Y-74420036D01*
X43549433Y-74547905D01*
X43541726Y-74554748D01*
X43394590Y-74708717D01*
X43388104Y-74716727D01*
X43268098Y-74892649D01*
X43263000Y-74901623D01*
X43173338Y-75094783D01*
X43169775Y-75104470D01*
X43114389Y-75304183D01*
X36000895Y-75304183D01*
X36028504Y-75289588D01*
X36129584Y-75236154D01*
X36129587Y-75236152D01*
X36131674Y-75235049D01*
X36133673Y-75233793D01*
X36523984Y-74988508D01*
X36523996Y-74988500D01*
X36525972Y-74987258D01*
X36900656Y-74710702D01*
X36926092Y-74688812D01*
X37251838Y-74408471D01*
X37251839Y-74408470D01*
X37253632Y-74406927D01*
X37582927Y-74077632D01*
X37886702Y-73724656D01*
X38163258Y-73349972D01*
X38164500Y-73347996D01*
X38164508Y-73347984D01*
X38409793Y-72957673D01*
X38409796Y-72957668D01*
X38411049Y-72955674D01*
X38522850Y-72744183D01*
X54544389Y-72744183D01*
X54545912Y-72752607D01*
X54558292Y-72756000D01*
X55607885Y-72756000D01*
X55623124Y-72751525D01*
X55624329Y-72750135D01*
X55626000Y-72742452D01*
X55626000Y-72737885D01*
X56134000Y-72737885D01*
X56138475Y-72753124D01*
X56139865Y-72754329D01*
X56147548Y-72756000D01*
X57198344Y-72756000D01*
X57211875Y-72752027D01*
X57213180Y-72742947D01*
X57171214Y-72575875D01*
X57167894Y-72566124D01*
X57082972Y-72370814D01*
X57078105Y-72361739D01*
X56962426Y-72182926D01*
X56956136Y-72174757D01*
X56920870Y-72136000D01*
X98283758Y-72136000D01*
X98302696Y-72376634D01*
X98303850Y-72381441D01*
X98303851Y-72381447D01*
X98339267Y-72528961D01*
X98359045Y-72611343D01*
X98360938Y-72615914D01*
X98360939Y-72615916D01*
X98418964Y-72756000D01*
X98451416Y-72834347D01*
X98577536Y-73040156D01*
X98734299Y-73223701D01*
X98917844Y-73380464D01*
X99123653Y-73506584D01*
X99128223Y-73508477D01*
X99128227Y-73508479D01*
X99342084Y-73597061D01*
X99346657Y-73598955D01*
X99429039Y-73618733D01*
X99576553Y-73654149D01*
X99576559Y-73654150D01*
X99581366Y-73655304D01*
X99822000Y-73674242D01*
X100062634Y-73655304D01*
X100067441Y-73654150D01*
X100067447Y-73654149D01*
X100214961Y-73618733D01*
X100297343Y-73598955D01*
X100301916Y-73597061D01*
X100515773Y-73508479D01*
X100515777Y-73508477D01*
X100520347Y-73506584D01*
X100726156Y-73380464D01*
X100757843Y-73353401D01*
X101402810Y-73353401D01*
X101408817Y-73363607D01*
X102349188Y-74303978D01*
X102363132Y-74311592D01*
X102364965Y-74311461D01*
X102371580Y-74307210D01*
X103313724Y-73365066D01*
X103321116Y-73351529D01*
X103317430Y-73346260D01*
X103109879Y-73219073D01*
X103101085Y-73214592D01*
X102872758Y-73120016D01*
X102863373Y-73116967D01*
X102623060Y-73059272D01*
X102613313Y-73057729D01*
X102366930Y-73038338D01*
X102357070Y-73038338D01*
X102110687Y-73057729D01*
X102100940Y-73059272D01*
X101860627Y-73116967D01*
X101851242Y-73120016D01*
X101622915Y-73214592D01*
X101614121Y-73219073D01*
X101408072Y-73345340D01*
X101402810Y-73353401D01*
X100757843Y-73353401D01*
X100909701Y-73223701D01*
X101066464Y-73040156D01*
X101192584Y-72834347D01*
X101225037Y-72756000D01*
X101283061Y-72615916D01*
X101283062Y-72615914D01*
X101284955Y-72611343D01*
X101304733Y-72528961D01*
X101340149Y-72381447D01*
X101340150Y-72381441D01*
X101341304Y-72376634D01*
X101360242Y-72136000D01*
X101341304Y-71895366D01*
X101340150Y-71890559D01*
X101340149Y-71890553D01*
X101292395Y-71691646D01*
X101284955Y-71660657D01*
X101283061Y-71656084D01*
X101194479Y-71442227D01*
X101194477Y-71442223D01*
X101192584Y-71437653D01*
X101066464Y-71231844D01*
X100909701Y-71048299D01*
X100760034Y-70920471D01*
X101402884Y-70920471D01*
X101406570Y-70925740D01*
X101614121Y-71052927D01*
X101622915Y-71057408D01*
X101851242Y-71151984D01*
X101860627Y-71155033D01*
X102100940Y-71212728D01*
X102110687Y-71214271D01*
X102357070Y-71233662D01*
X102366930Y-71233662D01*
X102613313Y-71214271D01*
X102623060Y-71212728D01*
X102863373Y-71155033D01*
X102872758Y-71151984D01*
X103101085Y-71057408D01*
X103109879Y-71052927D01*
X103315928Y-70926660D01*
X103321190Y-70918599D01*
X103315183Y-70908393D01*
X102374812Y-69968022D01*
X102360868Y-69960408D01*
X102359035Y-69960539D01*
X102352420Y-69964790D01*
X101410276Y-70906934D01*
X101402884Y-70920471D01*
X100760034Y-70920471D01*
X100726156Y-70891536D01*
X100520347Y-70765416D01*
X100515777Y-70763523D01*
X100515773Y-70763521D01*
X100301916Y-70674939D01*
X100301914Y-70674938D01*
X100297343Y-70673045D01*
X100214961Y-70653267D01*
X100067447Y-70617851D01*
X100067441Y-70617850D01*
X100062634Y-70616696D01*
X99822000Y-70597758D01*
X99581366Y-70616696D01*
X99576559Y-70617850D01*
X99576553Y-70617851D01*
X99429039Y-70653267D01*
X99346657Y-70673045D01*
X99342086Y-70674938D01*
X99342084Y-70674939D01*
X99128227Y-70763521D01*
X99128223Y-70763523D01*
X99123653Y-70765416D01*
X98917844Y-70891536D01*
X98734299Y-71048299D01*
X98577536Y-71231844D01*
X98451416Y-71437653D01*
X98449523Y-71442223D01*
X98449521Y-71442227D01*
X98360939Y-71656084D01*
X98359045Y-71660657D01*
X98351605Y-71691646D01*
X98303851Y-71890553D01*
X98303850Y-71890559D01*
X98302696Y-71895366D01*
X98283758Y-72136000D01*
X56920870Y-72136000D01*
X56812806Y-72017240D01*
X56805273Y-72010215D01*
X56638139Y-71878222D01*
X56629552Y-71872517D01*
X56443117Y-71769599D01*
X56433705Y-71765369D01*
X56232959Y-71694280D01*
X56222988Y-71691646D01*
X56151837Y-71678972D01*
X56138540Y-71680432D01*
X56134000Y-71694989D01*
X56134000Y-72737885D01*
X55626000Y-72737885D01*
X55626000Y-71693102D01*
X55622082Y-71679758D01*
X55607806Y-71677771D01*
X55569324Y-71683660D01*
X55559288Y-71686051D01*
X55356868Y-71752212D01*
X55347359Y-71756209D01*
X55158463Y-71854542D01*
X55149738Y-71860036D01*
X54979433Y-71987905D01*
X54971726Y-71994748D01*
X54824590Y-72148717D01*
X54818104Y-72156727D01*
X54698098Y-72332649D01*
X54693000Y-72341623D01*
X54603338Y-72534783D01*
X54599775Y-72544470D01*
X54544389Y-72744183D01*
X38522850Y-72744183D01*
X38628691Y-72543966D01*
X38699620Y-72381447D01*
X38814024Y-72119311D01*
X38814025Y-72119308D01*
X38814967Y-72117150D01*
X38968836Y-71677610D01*
X39089439Y-71227803D01*
X39089878Y-71225485D01*
X39089881Y-71225472D01*
X39147648Y-70920471D01*
X96322884Y-70920471D01*
X96326570Y-70925740D01*
X96534121Y-71052927D01*
X96542915Y-71057408D01*
X96771242Y-71151984D01*
X96780627Y-71155033D01*
X97020940Y-71212728D01*
X97030687Y-71214271D01*
X97277070Y-71233662D01*
X97286930Y-71233662D01*
X97533313Y-71214271D01*
X97543060Y-71212728D01*
X97783373Y-71155033D01*
X97792758Y-71151984D01*
X98021085Y-71057408D01*
X98029879Y-71052927D01*
X98235928Y-70926660D01*
X98241190Y-70918599D01*
X98235183Y-70908393D01*
X97294812Y-69968022D01*
X97280868Y-69960408D01*
X97279035Y-69960539D01*
X97272420Y-69964790D01*
X96330276Y-70906934D01*
X96322884Y-70920471D01*
X39147648Y-70920471D01*
X39175664Y-70772547D01*
X39175665Y-70772537D01*
X39176100Y-70770243D01*
X39186859Y-70674939D01*
X39228072Y-70309836D01*
X39228072Y-70309835D01*
X39228337Y-70307488D01*
X39244734Y-69871920D01*
X39245512Y-69864348D01*
X39245328Y-69864331D01*
X39245765Y-69859470D01*
X39246573Y-69854675D01*
X39246729Y-69842123D01*
X39242768Y-69814416D01*
X39241500Y-69796584D01*
X39241500Y-69600930D01*
X95644338Y-69600930D01*
X95663729Y-69847313D01*
X95665272Y-69857060D01*
X95722967Y-70097373D01*
X95726016Y-70106758D01*
X95820592Y-70335085D01*
X95825073Y-70343879D01*
X95951340Y-70549928D01*
X95959401Y-70555190D01*
X95969607Y-70549183D01*
X96909978Y-69608812D01*
X96916356Y-69597132D01*
X97646408Y-69597132D01*
X97646539Y-69598965D01*
X97650790Y-69605580D01*
X98592934Y-70547724D01*
X98606471Y-70555116D01*
X98611740Y-70551430D01*
X98738927Y-70343879D01*
X98743408Y-70335085D01*
X98837984Y-70106758D01*
X98841033Y-70097373D01*
X98898728Y-69857060D01*
X98900271Y-69847313D01*
X98919662Y-69600930D01*
X100724338Y-69600930D01*
X100743729Y-69847313D01*
X100745272Y-69857060D01*
X100802967Y-70097373D01*
X100806016Y-70106758D01*
X100900592Y-70335085D01*
X100905073Y-70343879D01*
X101031340Y-70549928D01*
X101039401Y-70555190D01*
X101049607Y-70549183D01*
X101989978Y-69608812D01*
X101996356Y-69597132D01*
X102726408Y-69597132D01*
X102726539Y-69598965D01*
X102730790Y-69605580D01*
X103672934Y-70547724D01*
X103686471Y-70555116D01*
X103691740Y-70551430D01*
X103818927Y-70343879D01*
X103823408Y-70335085D01*
X103917984Y-70106758D01*
X103921033Y-70097373D01*
X103978728Y-69857060D01*
X103980271Y-69847313D01*
X103999662Y-69600930D01*
X103999662Y-69591070D01*
X103980271Y-69344687D01*
X103978728Y-69334940D01*
X103921033Y-69094627D01*
X103917984Y-69085242D01*
X103823408Y-68856915D01*
X103818927Y-68848121D01*
X103692660Y-68642072D01*
X103684599Y-68636810D01*
X103674393Y-68642817D01*
X102734022Y-69583188D01*
X102726408Y-69597132D01*
X101996356Y-69597132D01*
X101997592Y-69594868D01*
X101997461Y-69593035D01*
X101993210Y-69586420D01*
X101051066Y-68644276D01*
X101037529Y-68636884D01*
X101032260Y-68640570D01*
X100905073Y-68848121D01*
X100900592Y-68856915D01*
X100806016Y-69085242D01*
X100802967Y-69094627D01*
X100745272Y-69334940D01*
X100743729Y-69344687D01*
X100724338Y-69591070D01*
X100724338Y-69600930D01*
X98919662Y-69600930D01*
X98919662Y-69591070D01*
X98900271Y-69344687D01*
X98898728Y-69334940D01*
X98841033Y-69094627D01*
X98837984Y-69085242D01*
X98743408Y-68856915D01*
X98738927Y-68848121D01*
X98612660Y-68642072D01*
X98604599Y-68636810D01*
X98594393Y-68642817D01*
X97654022Y-69583188D01*
X97646408Y-69597132D01*
X96916356Y-69597132D01*
X96917592Y-69594868D01*
X96917461Y-69593035D01*
X96913210Y-69586420D01*
X95971066Y-68644276D01*
X95957529Y-68636884D01*
X95952260Y-68640570D01*
X95825073Y-68848121D01*
X95820592Y-68856915D01*
X95726016Y-69085242D01*
X95722967Y-69094627D01*
X95665272Y-69334940D01*
X95663729Y-69344687D01*
X95644338Y-69591070D01*
X95644338Y-69600930D01*
X39241500Y-69600930D01*
X39241500Y-68273401D01*
X96322810Y-68273401D01*
X96328817Y-68283607D01*
X97269188Y-69223978D01*
X97283132Y-69231592D01*
X97284965Y-69231461D01*
X97291580Y-69227210D01*
X98233724Y-68285066D01*
X98240094Y-68273401D01*
X101402810Y-68273401D01*
X101408817Y-68283607D01*
X102349188Y-69223978D01*
X102363132Y-69231592D01*
X102364965Y-69231461D01*
X102371580Y-69227210D01*
X103313724Y-68285066D01*
X103321116Y-68271529D01*
X103317430Y-68266260D01*
X103109879Y-68139073D01*
X103101085Y-68134592D01*
X102872758Y-68040016D01*
X102863373Y-68036967D01*
X102623060Y-67979272D01*
X102613313Y-67977729D01*
X102366930Y-67958338D01*
X102357070Y-67958338D01*
X102110687Y-67977729D01*
X102100940Y-67979272D01*
X101860627Y-68036967D01*
X101851242Y-68040016D01*
X101622915Y-68134592D01*
X101614121Y-68139073D01*
X101408072Y-68265340D01*
X101402810Y-68273401D01*
X98240094Y-68273401D01*
X98241116Y-68271529D01*
X98237430Y-68266260D01*
X98029879Y-68139073D01*
X98021085Y-68134592D01*
X97792758Y-68040016D01*
X97783373Y-68036967D01*
X97543060Y-67979272D01*
X97533313Y-67977729D01*
X97286930Y-67958338D01*
X97277070Y-67958338D01*
X97030687Y-67977729D01*
X97020940Y-67979272D01*
X96780627Y-68036967D01*
X96771242Y-68040016D01*
X96542915Y-68134592D01*
X96534121Y-68139073D01*
X96328072Y-68265340D01*
X96322810Y-68273401D01*
X39241500Y-68273401D01*
X39241500Y-52108937D01*
X39242856Y-52090504D01*
X39246011Y-52069169D01*
X39246724Y-52064349D01*
X39246628Y-52051797D01*
X39245842Y-52046987D01*
X39245766Y-52046099D01*
X39245526Y-52042741D01*
X39245406Y-52040667D01*
X39217836Y-51567004D01*
X39152624Y-51085779D01*
X39050799Y-50610950D01*
X38985843Y-50391515D01*
X38913642Y-50147610D01*
X38912958Y-50145299D01*
X38739908Y-49691554D01*
X38532663Y-49252372D01*
X38292437Y-48830327D01*
X38291087Y-48828328D01*
X38021991Y-48429894D01*
X38021984Y-48429885D01*
X38020637Y-48427890D01*
X37718855Y-48047419D01*
X37388859Y-47691141D01*
X37032581Y-47361145D01*
X36652110Y-47059363D01*
X36650115Y-47058016D01*
X36650106Y-47058009D01*
X36251672Y-46788913D01*
X36251670Y-46788912D01*
X36249673Y-46787563D01*
X35827628Y-46547337D01*
X35388446Y-46340092D01*
X34934701Y-46167042D01*
X34809489Y-46129977D01*
X34471352Y-46029882D01*
X34471342Y-46029879D01*
X34469050Y-46029201D01*
X33994221Y-45927376D01*
X33991850Y-45927055D01*
X33991846Y-45927054D01*
X33870596Y-45910623D01*
X33635579Y-45878776D01*
X33570762Y-45849807D01*
X33531896Y-45790394D01*
X33526500Y-45753917D01*
X33526500Y-40043485D01*
X96394854Y-40043485D01*
X96395156Y-40047320D01*
X96413108Y-40275417D01*
X96420370Y-40367695D01*
X96485206Y-40686378D01*
X96588398Y-40994784D01*
X96728405Y-41288316D01*
X96903141Y-41562597D01*
X96905584Y-41565560D01*
X96905585Y-41565562D01*
X97055308Y-41747190D01*
X97110001Y-41813538D01*
X97345902Y-42037399D01*
X97607326Y-42230843D01*
X97738359Y-42304978D01*
X97887019Y-42389086D01*
X97887023Y-42389088D01*
X97890376Y-42390985D01*
X98190832Y-42515438D01*
X98294288Y-42544129D01*
X98500500Y-42601317D01*
X98500508Y-42601319D01*
X98504216Y-42602347D01*
X98825856Y-42650416D01*
X98829154Y-42650560D01*
X98940918Y-42655440D01*
X98940922Y-42655440D01*
X98942294Y-42655500D01*
X99140598Y-42655500D01*
X99382605Y-42640698D01*
X99386388Y-42639997D01*
X99386395Y-42639996D01*
X99586459Y-42602916D01*
X99702372Y-42581433D01*
X99911682Y-42515438D01*
X100008860Y-42484798D01*
X100008863Y-42484797D01*
X100012532Y-42483640D01*
X100016029Y-42482046D01*
X100016035Y-42482044D01*
X100304954Y-42350376D01*
X100304958Y-42350374D01*
X100308462Y-42348777D01*
X100311744Y-42346766D01*
X100582473Y-42180863D01*
X100582476Y-42180861D01*
X100585751Y-42178854D01*
X100588755Y-42176464D01*
X100588760Y-42176461D01*
X100713008Y-42077629D01*
X100840264Y-41976405D01*
X100842958Y-41973664D01*
X100842962Y-41973660D01*
X101065513Y-41747190D01*
X101065517Y-41747185D01*
X101068208Y-41744447D01*
X101266185Y-41486439D01*
X101431242Y-41206227D01*
X101560920Y-40907988D01*
X101653285Y-40596169D01*
X101706961Y-40275417D01*
X101721146Y-39950515D01*
X101707577Y-39778099D01*
X101695932Y-39630140D01*
X101695932Y-39630137D01*
X101695630Y-39626305D01*
X101630794Y-39307622D01*
X101527602Y-38999216D01*
X101387595Y-38705684D01*
X101212859Y-38431403D01*
X101176748Y-38387597D01*
X101008442Y-38183425D01*
X101008438Y-38183420D01*
X101005999Y-38180462D01*
X100770098Y-37956601D01*
X100508674Y-37763157D01*
X100336455Y-37665720D01*
X100228981Y-37604914D01*
X100228977Y-37604912D01*
X100225624Y-37603015D01*
X99925168Y-37478562D01*
X99802781Y-37444621D01*
X99615500Y-37392683D01*
X99615492Y-37392681D01*
X99611784Y-37391653D01*
X99290144Y-37343584D01*
X99286846Y-37343440D01*
X99175082Y-37338560D01*
X99175078Y-37338560D01*
X99173706Y-37338500D01*
X98975402Y-37338500D01*
X98733395Y-37353302D01*
X98729612Y-37354003D01*
X98729605Y-37354004D01*
X98573511Y-37382935D01*
X98413628Y-37412567D01*
X98229058Y-37470762D01*
X98107140Y-37509202D01*
X98107137Y-37509203D01*
X98103468Y-37510360D01*
X98099971Y-37511954D01*
X98099965Y-37511956D01*
X97811046Y-37643624D01*
X97811042Y-37643626D01*
X97807538Y-37645223D01*
X97804259Y-37647233D01*
X97804256Y-37647234D01*
X97658552Y-37736522D01*
X97530249Y-37815146D01*
X97527245Y-37817536D01*
X97527240Y-37817539D01*
X97493561Y-37844329D01*
X97275736Y-38017595D01*
X97273042Y-38020336D01*
X97273038Y-38020340D01*
X97050487Y-38246810D01*
X97050483Y-38246815D01*
X97047792Y-38249553D01*
X96849815Y-38507561D01*
X96684758Y-38787773D01*
X96555080Y-39086012D01*
X96553986Y-39089706D01*
X96553984Y-39089711D01*
X96529083Y-39173777D01*
X96462715Y-39397831D01*
X96409039Y-39718583D01*
X96394854Y-40043485D01*
X33526500Y-40043485D01*
X33526500Y-39536408D01*
X33546502Y-39468287D01*
X33600158Y-39421794D01*
X33629538Y-39412518D01*
X33662372Y-39406433D01*
X33901041Y-39331181D01*
X33968860Y-39309798D01*
X33968863Y-39309797D01*
X33972532Y-39308640D01*
X33976029Y-39307046D01*
X33976035Y-39307044D01*
X34264954Y-39175376D01*
X34264958Y-39175374D01*
X34268462Y-39173777D01*
X34289461Y-39160909D01*
X34542473Y-39005863D01*
X34542476Y-39005861D01*
X34545751Y-39003854D01*
X34548755Y-39001464D01*
X34548760Y-39001461D01*
X34557299Y-38994669D01*
X36742001Y-38994669D01*
X36742371Y-39001490D01*
X36747895Y-39052352D01*
X36751521Y-39067604D01*
X36796676Y-39188054D01*
X36805214Y-39203649D01*
X36881715Y-39305724D01*
X36894276Y-39318285D01*
X36996351Y-39394786D01*
X37011946Y-39403324D01*
X37132394Y-39448478D01*
X37147649Y-39452105D01*
X37198514Y-39457631D01*
X37205328Y-39458000D01*
X37827885Y-39458000D01*
X37843124Y-39453525D01*
X37844329Y-39452135D01*
X37846000Y-39444452D01*
X37846000Y-39439884D01*
X38354000Y-39439884D01*
X38358475Y-39455123D01*
X38359865Y-39456328D01*
X38367548Y-39457999D01*
X38994669Y-39457999D01*
X39001490Y-39457629D01*
X39052352Y-39452105D01*
X39067604Y-39448479D01*
X39188054Y-39403324D01*
X39203649Y-39394786D01*
X39305724Y-39318285D01*
X39318285Y-39305724D01*
X39394786Y-39203649D01*
X39403324Y-39188054D01*
X39444225Y-39078952D01*
X39486867Y-39022188D01*
X39553428Y-38997488D01*
X39622777Y-39012696D01*
X39657444Y-39040684D01*
X39682865Y-39070031D01*
X39682869Y-39070035D01*
X39686250Y-39073938D01*
X39858126Y-39216632D01*
X40051000Y-39329338D01*
X40259692Y-39409030D01*
X40264760Y-39410061D01*
X40264763Y-39410062D01*
X40349722Y-39427347D01*
X40478597Y-39453567D01*
X40483772Y-39453757D01*
X40483774Y-39453757D01*
X40696673Y-39461564D01*
X40696677Y-39461564D01*
X40701837Y-39461753D01*
X40706957Y-39461097D01*
X40706959Y-39461097D01*
X40918288Y-39434025D01*
X40918289Y-39434025D01*
X40923416Y-39433368D01*
X40961994Y-39421794D01*
X41132429Y-39370661D01*
X41132434Y-39370659D01*
X41137384Y-39369174D01*
X41337994Y-39270896D01*
X41519860Y-39141173D01*
X41578761Y-39082478D01*
X41620701Y-39040684D01*
X41678096Y-38983489D01*
X41765108Y-38862399D01*
X41808453Y-38802077D01*
X41809776Y-38803028D01*
X41856645Y-38759857D01*
X41926580Y-38747625D01*
X41992026Y-38775144D01*
X42019875Y-38806994D01*
X42079987Y-38905088D01*
X42226250Y-39073938D01*
X42398126Y-39216632D01*
X42591000Y-39329338D01*
X42799692Y-39409030D01*
X42804760Y-39410061D01*
X42804763Y-39410062D01*
X42889722Y-39427347D01*
X43018597Y-39453567D01*
X43023772Y-39453757D01*
X43023774Y-39453757D01*
X43236673Y-39461564D01*
X43236677Y-39461564D01*
X43241837Y-39461753D01*
X43246957Y-39461097D01*
X43246959Y-39461097D01*
X43458288Y-39434025D01*
X43458289Y-39434025D01*
X43463416Y-39433368D01*
X43501994Y-39421794D01*
X43672429Y-39370661D01*
X43672434Y-39370659D01*
X43677384Y-39369174D01*
X43877994Y-39270896D01*
X44059860Y-39141173D01*
X44118761Y-39082478D01*
X44160701Y-39040684D01*
X44218096Y-38983489D01*
X44305108Y-38862399D01*
X44348453Y-38802077D01*
X44349776Y-38803028D01*
X44396645Y-38759857D01*
X44466580Y-38747625D01*
X44532026Y-38775144D01*
X44559875Y-38806994D01*
X44619987Y-38905088D01*
X44766250Y-39073938D01*
X44938126Y-39216632D01*
X45131000Y-39329338D01*
X45339692Y-39409030D01*
X45344760Y-39410061D01*
X45344763Y-39410062D01*
X45429722Y-39427347D01*
X45558597Y-39453567D01*
X45563772Y-39453757D01*
X45563774Y-39453757D01*
X45776673Y-39461564D01*
X45776677Y-39461564D01*
X45781837Y-39461753D01*
X45786957Y-39461097D01*
X45786959Y-39461097D01*
X45998288Y-39434025D01*
X45998289Y-39434025D01*
X46003416Y-39433368D01*
X46041994Y-39421794D01*
X46212429Y-39370661D01*
X46212434Y-39370659D01*
X46217384Y-39369174D01*
X46417994Y-39270896D01*
X46599860Y-39141173D01*
X46658761Y-39082478D01*
X46700701Y-39040684D01*
X46758096Y-38983489D01*
X46845108Y-38862399D01*
X46888453Y-38802077D01*
X46889776Y-38803028D01*
X46936645Y-38759857D01*
X47006580Y-38747625D01*
X47072026Y-38775144D01*
X47099875Y-38806994D01*
X47159987Y-38905088D01*
X47306250Y-39073938D01*
X47478126Y-39216632D01*
X47671000Y-39329338D01*
X47879692Y-39409030D01*
X47884760Y-39410061D01*
X47884763Y-39410062D01*
X47969722Y-39427347D01*
X48098597Y-39453567D01*
X48103772Y-39453757D01*
X48103774Y-39453757D01*
X48316673Y-39461564D01*
X48316677Y-39461564D01*
X48321837Y-39461753D01*
X48326957Y-39461097D01*
X48326959Y-39461097D01*
X48538288Y-39434025D01*
X48538289Y-39434025D01*
X48543416Y-39433368D01*
X48581994Y-39421794D01*
X48752429Y-39370661D01*
X48752434Y-39370659D01*
X48757384Y-39369174D01*
X48957994Y-39270896D01*
X49139860Y-39141173D01*
X49198761Y-39082478D01*
X49240701Y-39040684D01*
X49298096Y-38983489D01*
X49385108Y-38862399D01*
X49428453Y-38802077D01*
X49429776Y-38803028D01*
X49476645Y-38759857D01*
X49546580Y-38747625D01*
X49612026Y-38775144D01*
X49639875Y-38806994D01*
X49699987Y-38905088D01*
X49846250Y-39073938D01*
X50018126Y-39216632D01*
X50211000Y-39329338D01*
X50419692Y-39409030D01*
X50424760Y-39410061D01*
X50424763Y-39410062D01*
X50509722Y-39427347D01*
X50638597Y-39453567D01*
X50643772Y-39453757D01*
X50643774Y-39453757D01*
X50856673Y-39461564D01*
X50856677Y-39461564D01*
X50861837Y-39461753D01*
X50866957Y-39461097D01*
X50866959Y-39461097D01*
X51078288Y-39434025D01*
X51078289Y-39434025D01*
X51083416Y-39433368D01*
X51121994Y-39421794D01*
X51292429Y-39370661D01*
X51292434Y-39370659D01*
X51297384Y-39369174D01*
X51497994Y-39270896D01*
X51679860Y-39141173D01*
X51738761Y-39082478D01*
X51780701Y-39040684D01*
X51838096Y-38983489D01*
X51925108Y-38862399D01*
X51968453Y-38802077D01*
X51969776Y-38803028D01*
X52016645Y-38759857D01*
X52086580Y-38747625D01*
X52152026Y-38775144D01*
X52179875Y-38806994D01*
X52239987Y-38905088D01*
X52386250Y-39073938D01*
X52558126Y-39216632D01*
X52751000Y-39329338D01*
X52959692Y-39409030D01*
X52964760Y-39410061D01*
X52964763Y-39410062D01*
X53049722Y-39427347D01*
X53178597Y-39453567D01*
X53183772Y-39453757D01*
X53183774Y-39453757D01*
X53396673Y-39461564D01*
X53396677Y-39461564D01*
X53401837Y-39461753D01*
X53406957Y-39461097D01*
X53406959Y-39461097D01*
X53618288Y-39434025D01*
X53618289Y-39434025D01*
X53623416Y-39433368D01*
X53661994Y-39421794D01*
X53832429Y-39370661D01*
X53832434Y-39370659D01*
X53837384Y-39369174D01*
X54037994Y-39270896D01*
X54219860Y-39141173D01*
X54278761Y-39082478D01*
X54320701Y-39040684D01*
X54378096Y-38983489D01*
X54465108Y-38862399D01*
X54508453Y-38802077D01*
X54509776Y-38803028D01*
X54556645Y-38759857D01*
X54626580Y-38747625D01*
X54692026Y-38775144D01*
X54719875Y-38806994D01*
X54779987Y-38905088D01*
X54926250Y-39073938D01*
X55098126Y-39216632D01*
X55291000Y-39329338D01*
X55499692Y-39409030D01*
X55504760Y-39410061D01*
X55504763Y-39410062D01*
X55589722Y-39427347D01*
X55718597Y-39453567D01*
X55723772Y-39453757D01*
X55723774Y-39453757D01*
X55936673Y-39461564D01*
X55936677Y-39461564D01*
X55941837Y-39461753D01*
X55946957Y-39461097D01*
X55946959Y-39461097D01*
X56158288Y-39434025D01*
X56158289Y-39434025D01*
X56163416Y-39433368D01*
X56201994Y-39421794D01*
X56372429Y-39370661D01*
X56372434Y-39370659D01*
X56377384Y-39369174D01*
X56577994Y-39270896D01*
X56759860Y-39141173D01*
X56818761Y-39082478D01*
X56860701Y-39040684D01*
X56918096Y-38983489D01*
X57005108Y-38862399D01*
X57048453Y-38802077D01*
X57049776Y-38803028D01*
X57096645Y-38759857D01*
X57166580Y-38747625D01*
X57232026Y-38775144D01*
X57259875Y-38806994D01*
X57319987Y-38905088D01*
X57466250Y-39073938D01*
X57638126Y-39216632D01*
X57831000Y-39329338D01*
X58039692Y-39409030D01*
X58044760Y-39410061D01*
X58044763Y-39410062D01*
X58129722Y-39427347D01*
X58258597Y-39453567D01*
X58263772Y-39453757D01*
X58263774Y-39453757D01*
X58476673Y-39461564D01*
X58476677Y-39461564D01*
X58481837Y-39461753D01*
X58486957Y-39461097D01*
X58486959Y-39461097D01*
X58698288Y-39434025D01*
X58698289Y-39434025D01*
X58703416Y-39433368D01*
X58741994Y-39421794D01*
X58912429Y-39370661D01*
X58912434Y-39370659D01*
X58917384Y-39369174D01*
X59117994Y-39270896D01*
X59299860Y-39141173D01*
X59358761Y-39082478D01*
X59400701Y-39040684D01*
X59458096Y-38983489D01*
X59545108Y-38862399D01*
X59588453Y-38802077D01*
X59589776Y-38803028D01*
X59636645Y-38759857D01*
X59706580Y-38747625D01*
X59772026Y-38775144D01*
X59799875Y-38806994D01*
X59859987Y-38905088D01*
X60006250Y-39073938D01*
X60178126Y-39216632D01*
X60371000Y-39329338D01*
X60579692Y-39409030D01*
X60584760Y-39410061D01*
X60584763Y-39410062D01*
X60669722Y-39427347D01*
X60798597Y-39453567D01*
X60803772Y-39453757D01*
X60803774Y-39453757D01*
X61016673Y-39461564D01*
X61016677Y-39461564D01*
X61021837Y-39461753D01*
X61026957Y-39461097D01*
X61026959Y-39461097D01*
X61238288Y-39434025D01*
X61238289Y-39434025D01*
X61243416Y-39433368D01*
X61281994Y-39421794D01*
X61452429Y-39370661D01*
X61452434Y-39370659D01*
X61457384Y-39369174D01*
X61657994Y-39270896D01*
X61839860Y-39141173D01*
X61898761Y-39082478D01*
X61940701Y-39040684D01*
X61998096Y-38983489D01*
X62085108Y-38862399D01*
X62128453Y-38802077D01*
X62129776Y-38803028D01*
X62176645Y-38759857D01*
X62246580Y-38747625D01*
X62312026Y-38775144D01*
X62339875Y-38806994D01*
X62399987Y-38905088D01*
X62546250Y-39073938D01*
X62718126Y-39216632D01*
X62911000Y-39329338D01*
X63119692Y-39409030D01*
X63124760Y-39410061D01*
X63124763Y-39410062D01*
X63209722Y-39427347D01*
X63338597Y-39453567D01*
X63343772Y-39453757D01*
X63343774Y-39453757D01*
X63556673Y-39461564D01*
X63556677Y-39461564D01*
X63561837Y-39461753D01*
X63566957Y-39461097D01*
X63566959Y-39461097D01*
X63778288Y-39434025D01*
X63778289Y-39434025D01*
X63783416Y-39433368D01*
X63821994Y-39421794D01*
X63992429Y-39370661D01*
X63992434Y-39370659D01*
X63997384Y-39369174D01*
X64197994Y-39270896D01*
X64379860Y-39141173D01*
X64438761Y-39082478D01*
X64480701Y-39040684D01*
X64538096Y-38983489D01*
X64625108Y-38862399D01*
X64668453Y-38802077D01*
X64669776Y-38803028D01*
X64716645Y-38759857D01*
X64786580Y-38747625D01*
X64852026Y-38775144D01*
X64879875Y-38806994D01*
X64939987Y-38905088D01*
X65086250Y-39073938D01*
X65258126Y-39216632D01*
X65451000Y-39329338D01*
X65659692Y-39409030D01*
X65664760Y-39410061D01*
X65664763Y-39410062D01*
X65749722Y-39427347D01*
X65878597Y-39453567D01*
X65883772Y-39453757D01*
X65883774Y-39453757D01*
X66096673Y-39461564D01*
X66096677Y-39461564D01*
X66101837Y-39461753D01*
X66106957Y-39461097D01*
X66106959Y-39461097D01*
X66318288Y-39434025D01*
X66318289Y-39434025D01*
X66323416Y-39433368D01*
X66361994Y-39421794D01*
X66532429Y-39370661D01*
X66532434Y-39370659D01*
X66537384Y-39369174D01*
X66737994Y-39270896D01*
X66919860Y-39141173D01*
X66978761Y-39082478D01*
X67020701Y-39040684D01*
X67078096Y-38983489D01*
X67165108Y-38862399D01*
X67208453Y-38802077D01*
X67209776Y-38803028D01*
X67256645Y-38759857D01*
X67326580Y-38747625D01*
X67392026Y-38775144D01*
X67419875Y-38806994D01*
X67479987Y-38905088D01*
X67626250Y-39073938D01*
X67798126Y-39216632D01*
X67991000Y-39329338D01*
X68199692Y-39409030D01*
X68204760Y-39410061D01*
X68204763Y-39410062D01*
X68289722Y-39427347D01*
X68418597Y-39453567D01*
X68423772Y-39453757D01*
X68423774Y-39453757D01*
X68636673Y-39461564D01*
X68636677Y-39461564D01*
X68641837Y-39461753D01*
X68646957Y-39461097D01*
X68646959Y-39461097D01*
X68858288Y-39434025D01*
X68858289Y-39434025D01*
X68863416Y-39433368D01*
X68901994Y-39421794D01*
X69072429Y-39370661D01*
X69072434Y-39370659D01*
X69077384Y-39369174D01*
X69277994Y-39270896D01*
X69459860Y-39141173D01*
X69518761Y-39082478D01*
X69560701Y-39040684D01*
X69618096Y-38983489D01*
X69705108Y-38862399D01*
X69748453Y-38802077D01*
X69749776Y-38803028D01*
X69796645Y-38759857D01*
X69866580Y-38747625D01*
X69932026Y-38775144D01*
X69959875Y-38806994D01*
X70019987Y-38905088D01*
X70166250Y-39073938D01*
X70338126Y-39216632D01*
X70531000Y-39329338D01*
X70739692Y-39409030D01*
X70744760Y-39410061D01*
X70744763Y-39410062D01*
X70829722Y-39427347D01*
X70958597Y-39453567D01*
X70963772Y-39453757D01*
X70963774Y-39453757D01*
X71176673Y-39461564D01*
X71176677Y-39461564D01*
X71181837Y-39461753D01*
X71186957Y-39461097D01*
X71186959Y-39461097D01*
X71398288Y-39434025D01*
X71398289Y-39434025D01*
X71403416Y-39433368D01*
X71441994Y-39421794D01*
X71612429Y-39370661D01*
X71612434Y-39370659D01*
X71617384Y-39369174D01*
X71817994Y-39270896D01*
X71999860Y-39141173D01*
X72058761Y-39082478D01*
X72100701Y-39040684D01*
X72158096Y-38983489D01*
X72245108Y-38862399D01*
X72288453Y-38802077D01*
X72289776Y-38803028D01*
X72336645Y-38759857D01*
X72406580Y-38747625D01*
X72472026Y-38775144D01*
X72499875Y-38806994D01*
X72559987Y-38905088D01*
X72706250Y-39073938D01*
X72878126Y-39216632D01*
X73071000Y-39329338D01*
X73279692Y-39409030D01*
X73284760Y-39410061D01*
X73284763Y-39410062D01*
X73369722Y-39427347D01*
X73498597Y-39453567D01*
X73503772Y-39453757D01*
X73503774Y-39453757D01*
X73716673Y-39461564D01*
X73716677Y-39461564D01*
X73721837Y-39461753D01*
X73726957Y-39461097D01*
X73726959Y-39461097D01*
X73938288Y-39434025D01*
X73938289Y-39434025D01*
X73943416Y-39433368D01*
X73981994Y-39421794D01*
X74152429Y-39370661D01*
X74152434Y-39370659D01*
X74157384Y-39369174D01*
X74357994Y-39270896D01*
X74539860Y-39141173D01*
X74598761Y-39082478D01*
X74640701Y-39040684D01*
X74698096Y-38983489D01*
X74785108Y-38862399D01*
X74828453Y-38802077D01*
X74829776Y-38803028D01*
X74876645Y-38759857D01*
X74946580Y-38747625D01*
X75012026Y-38775144D01*
X75039875Y-38806994D01*
X75099987Y-38905088D01*
X75246250Y-39073938D01*
X75418126Y-39216632D01*
X75611000Y-39329338D01*
X75819692Y-39409030D01*
X75824760Y-39410061D01*
X75824763Y-39410062D01*
X75909722Y-39427347D01*
X76038597Y-39453567D01*
X76043772Y-39453757D01*
X76043774Y-39453757D01*
X76256673Y-39461564D01*
X76256677Y-39461564D01*
X76261837Y-39461753D01*
X76266957Y-39461097D01*
X76266959Y-39461097D01*
X76478288Y-39434025D01*
X76478289Y-39434025D01*
X76483416Y-39433368D01*
X76521994Y-39421794D01*
X76692429Y-39370661D01*
X76692434Y-39370659D01*
X76697384Y-39369174D01*
X76897994Y-39270896D01*
X77079860Y-39141173D01*
X77138761Y-39082478D01*
X77180701Y-39040684D01*
X77238096Y-38983489D01*
X77325108Y-38862399D01*
X77368453Y-38802077D01*
X77369776Y-38803028D01*
X77416645Y-38759857D01*
X77486580Y-38747625D01*
X77552026Y-38775144D01*
X77579875Y-38806994D01*
X77639987Y-38905088D01*
X77786250Y-39073938D01*
X77958126Y-39216632D01*
X78151000Y-39329338D01*
X78359692Y-39409030D01*
X78364760Y-39410061D01*
X78364763Y-39410062D01*
X78449722Y-39427347D01*
X78578597Y-39453567D01*
X78583772Y-39453757D01*
X78583774Y-39453757D01*
X78796673Y-39461564D01*
X78796677Y-39461564D01*
X78801837Y-39461753D01*
X78806957Y-39461097D01*
X78806959Y-39461097D01*
X79018288Y-39434025D01*
X79018289Y-39434025D01*
X79023416Y-39433368D01*
X79061994Y-39421794D01*
X79232429Y-39370661D01*
X79232434Y-39370659D01*
X79237384Y-39369174D01*
X79437994Y-39270896D01*
X79619860Y-39141173D01*
X79678761Y-39082478D01*
X79720701Y-39040684D01*
X79778096Y-38983489D01*
X79865108Y-38862399D01*
X79908453Y-38802077D01*
X79909776Y-38803028D01*
X79956645Y-38759857D01*
X80026580Y-38747625D01*
X80092026Y-38775144D01*
X80119875Y-38806994D01*
X80179987Y-38905088D01*
X80326250Y-39073938D01*
X80498126Y-39216632D01*
X80691000Y-39329338D01*
X80899692Y-39409030D01*
X80904760Y-39410061D01*
X80904763Y-39410062D01*
X80989722Y-39427347D01*
X81118597Y-39453567D01*
X81123772Y-39453757D01*
X81123774Y-39453757D01*
X81336673Y-39461564D01*
X81336677Y-39461564D01*
X81341837Y-39461753D01*
X81346957Y-39461097D01*
X81346959Y-39461097D01*
X81558288Y-39434025D01*
X81558289Y-39434025D01*
X81563416Y-39433368D01*
X81601994Y-39421794D01*
X81772429Y-39370661D01*
X81772434Y-39370659D01*
X81777384Y-39369174D01*
X81977994Y-39270896D01*
X82159860Y-39141173D01*
X82218761Y-39082478D01*
X82260701Y-39040684D01*
X82318096Y-38983489D01*
X82405108Y-38862399D01*
X82448453Y-38802077D01*
X82449776Y-38803028D01*
X82496645Y-38759857D01*
X82566580Y-38747625D01*
X82632026Y-38775144D01*
X82659875Y-38806994D01*
X82719987Y-38905088D01*
X82866250Y-39073938D01*
X83038126Y-39216632D01*
X83231000Y-39329338D01*
X83439692Y-39409030D01*
X83444760Y-39410061D01*
X83444763Y-39410062D01*
X83529722Y-39427347D01*
X83658597Y-39453567D01*
X83663772Y-39453757D01*
X83663774Y-39453757D01*
X83876673Y-39461564D01*
X83876677Y-39461564D01*
X83881837Y-39461753D01*
X83886957Y-39461097D01*
X83886959Y-39461097D01*
X84098288Y-39434025D01*
X84098289Y-39434025D01*
X84103416Y-39433368D01*
X84141994Y-39421794D01*
X84312429Y-39370661D01*
X84312434Y-39370659D01*
X84317384Y-39369174D01*
X84517994Y-39270896D01*
X84699860Y-39141173D01*
X84758761Y-39082478D01*
X84800701Y-39040684D01*
X84858096Y-38983489D01*
X84945108Y-38862399D01*
X84988453Y-38802077D01*
X84989776Y-38803028D01*
X85036645Y-38759857D01*
X85106580Y-38747625D01*
X85172026Y-38775144D01*
X85199875Y-38806994D01*
X85259987Y-38905088D01*
X85406250Y-39073938D01*
X85578126Y-39216632D01*
X85771000Y-39329338D01*
X85979692Y-39409030D01*
X85984760Y-39410061D01*
X85984763Y-39410062D01*
X86069722Y-39427347D01*
X86198597Y-39453567D01*
X86203772Y-39453757D01*
X86203774Y-39453757D01*
X86416673Y-39461564D01*
X86416677Y-39461564D01*
X86421837Y-39461753D01*
X86426957Y-39461097D01*
X86426959Y-39461097D01*
X86638288Y-39434025D01*
X86638289Y-39434025D01*
X86643416Y-39433368D01*
X86681994Y-39421794D01*
X86852429Y-39370661D01*
X86852434Y-39370659D01*
X86857384Y-39369174D01*
X87057994Y-39270896D01*
X87239860Y-39141173D01*
X87298761Y-39082478D01*
X87340701Y-39040684D01*
X87398096Y-38983489D01*
X87485108Y-38862399D01*
X87528453Y-38802077D01*
X87529776Y-38803028D01*
X87576645Y-38759857D01*
X87646580Y-38747625D01*
X87712026Y-38775144D01*
X87739875Y-38806994D01*
X87799987Y-38905088D01*
X87946250Y-39073938D01*
X88118126Y-39216632D01*
X88311000Y-39329338D01*
X88519692Y-39409030D01*
X88524760Y-39410061D01*
X88524763Y-39410062D01*
X88609722Y-39427347D01*
X88738597Y-39453567D01*
X88743772Y-39453757D01*
X88743774Y-39453757D01*
X88956673Y-39461564D01*
X88956677Y-39461564D01*
X88961837Y-39461753D01*
X88966957Y-39461097D01*
X88966959Y-39461097D01*
X89178288Y-39434025D01*
X89178289Y-39434025D01*
X89183416Y-39433368D01*
X89221994Y-39421794D01*
X89392429Y-39370661D01*
X89392434Y-39370659D01*
X89397384Y-39369174D01*
X89597994Y-39270896D01*
X89779860Y-39141173D01*
X89838761Y-39082478D01*
X89880701Y-39040684D01*
X89938096Y-38983489D01*
X90025108Y-38862399D01*
X90068453Y-38802077D01*
X90069776Y-38803028D01*
X90116645Y-38759857D01*
X90186580Y-38747625D01*
X90252026Y-38775144D01*
X90279875Y-38806994D01*
X90339987Y-38905088D01*
X90486250Y-39073938D01*
X90658126Y-39216632D01*
X90851000Y-39329338D01*
X91059692Y-39409030D01*
X91064760Y-39410061D01*
X91064763Y-39410062D01*
X91149722Y-39427347D01*
X91278597Y-39453567D01*
X91283772Y-39453757D01*
X91283774Y-39453757D01*
X91496673Y-39461564D01*
X91496677Y-39461564D01*
X91501837Y-39461753D01*
X91506957Y-39461097D01*
X91506959Y-39461097D01*
X91718288Y-39434025D01*
X91718289Y-39434025D01*
X91723416Y-39433368D01*
X91761994Y-39421794D01*
X91932429Y-39370661D01*
X91932434Y-39370659D01*
X91937384Y-39369174D01*
X92137994Y-39270896D01*
X92319860Y-39141173D01*
X92378761Y-39082478D01*
X92420701Y-39040684D01*
X92478096Y-38983489D01*
X92565108Y-38862399D01*
X92608453Y-38802077D01*
X92609776Y-38803028D01*
X92656645Y-38759857D01*
X92726580Y-38747625D01*
X92792026Y-38775144D01*
X92819875Y-38806994D01*
X92879987Y-38905088D01*
X93026250Y-39073938D01*
X93198126Y-39216632D01*
X93391000Y-39329338D01*
X93599692Y-39409030D01*
X93604760Y-39410061D01*
X93604763Y-39410062D01*
X93689722Y-39427347D01*
X93818597Y-39453567D01*
X93823772Y-39453757D01*
X93823774Y-39453757D01*
X94036673Y-39461564D01*
X94036677Y-39461564D01*
X94041837Y-39461753D01*
X94046957Y-39461097D01*
X94046959Y-39461097D01*
X94258288Y-39434025D01*
X94258289Y-39434025D01*
X94263416Y-39433368D01*
X94301994Y-39421794D01*
X94472429Y-39370661D01*
X94472434Y-39370659D01*
X94477384Y-39369174D01*
X94677994Y-39270896D01*
X94859860Y-39141173D01*
X94918761Y-39082478D01*
X94960701Y-39040684D01*
X95018096Y-38983489D01*
X95105108Y-38862399D01*
X95145435Y-38806277D01*
X95148453Y-38802077D01*
X95155523Y-38787773D01*
X95245136Y-38606453D01*
X95245137Y-38606451D01*
X95247430Y-38601811D01*
X95279900Y-38494940D01*
X95310865Y-38393023D01*
X95310865Y-38393021D01*
X95312370Y-38388069D01*
X95341529Y-38166590D01*
X95343156Y-38100000D01*
X95324852Y-37877361D01*
X95270431Y-37660702D01*
X95181354Y-37455840D01*
X95060014Y-37268277D01*
X94909670Y-37103051D01*
X94905619Y-37099852D01*
X94905615Y-37099848D01*
X94738414Y-36967800D01*
X94738410Y-36967798D01*
X94734359Y-36964598D01*
X94693053Y-36941796D01*
X94643084Y-36891364D01*
X94628312Y-36821921D01*
X94653428Y-36755516D01*
X94680780Y-36728909D01*
X94724603Y-36697650D01*
X94859860Y-36601173D01*
X94913298Y-36547922D01*
X95008989Y-36452564D01*
X95018096Y-36443489D01*
X95148453Y-36262077D01*
X95161995Y-36234678D01*
X95245136Y-36066453D01*
X95245137Y-36066451D01*
X95247430Y-36061811D01*
X95293246Y-35911012D01*
X95310865Y-35853023D01*
X95310865Y-35853021D01*
X95312370Y-35848069D01*
X95341529Y-35626590D01*
X95343156Y-35560000D01*
X95324852Y-35337361D01*
X95270431Y-35120702D01*
X95181354Y-34915840D01*
X95060014Y-34728277D01*
X94909670Y-34563051D01*
X94905619Y-34559852D01*
X94905615Y-34559848D01*
X94738414Y-34427800D01*
X94738410Y-34427798D01*
X94734359Y-34424598D01*
X94698028Y-34404542D01*
X94682136Y-34395769D01*
X94538789Y-34316638D01*
X94533920Y-34314914D01*
X94533916Y-34314912D01*
X94333087Y-34243795D01*
X94333083Y-34243794D01*
X94328212Y-34242069D01*
X94323119Y-34241162D01*
X94323116Y-34241161D01*
X94113373Y-34203800D01*
X94113367Y-34203799D01*
X94108284Y-34202894D01*
X94034452Y-34201992D01*
X93890081Y-34200228D01*
X93890079Y-34200228D01*
X93884911Y-34200165D01*
X93664091Y-34233955D01*
X93451756Y-34303357D01*
X93253607Y-34406507D01*
X93249474Y-34409610D01*
X93249471Y-34409612D01*
X93079100Y-34537530D01*
X93074965Y-34540635D01*
X92920629Y-34702138D01*
X92813201Y-34859621D01*
X92758293Y-34904621D01*
X92687768Y-34912792D01*
X92624021Y-34881538D01*
X92603324Y-34857054D01*
X92522822Y-34732617D01*
X92522820Y-34732614D01*
X92520014Y-34728277D01*
X92369670Y-34563051D01*
X92365619Y-34559852D01*
X92365615Y-34559848D01*
X92198414Y-34427800D01*
X92198410Y-34427798D01*
X92194359Y-34424598D01*
X92158028Y-34404542D01*
X92142136Y-34395769D01*
X91998789Y-34316638D01*
X91993920Y-34314914D01*
X91993916Y-34314912D01*
X91793087Y-34243795D01*
X91793083Y-34243794D01*
X91788212Y-34242069D01*
X91783119Y-34241162D01*
X91783116Y-34241161D01*
X91573373Y-34203800D01*
X91573367Y-34203799D01*
X91568284Y-34202894D01*
X91494452Y-34201992D01*
X91350081Y-34200228D01*
X91350079Y-34200228D01*
X91344911Y-34200165D01*
X91124091Y-34233955D01*
X90911756Y-34303357D01*
X90713607Y-34406507D01*
X90709474Y-34409610D01*
X90709471Y-34409612D01*
X90539100Y-34537530D01*
X90534965Y-34540635D01*
X90380629Y-34702138D01*
X90273201Y-34859621D01*
X90218293Y-34904621D01*
X90147768Y-34912792D01*
X90084021Y-34881538D01*
X90063324Y-34857054D01*
X89982822Y-34732617D01*
X89982820Y-34732614D01*
X89980014Y-34728277D01*
X89829670Y-34563051D01*
X89825619Y-34559852D01*
X89825615Y-34559848D01*
X89658414Y-34427800D01*
X89658410Y-34427798D01*
X89654359Y-34424598D01*
X89618028Y-34404542D01*
X89602136Y-34395769D01*
X89458789Y-34316638D01*
X89453920Y-34314914D01*
X89453916Y-34314912D01*
X89253087Y-34243795D01*
X89253083Y-34243794D01*
X89248212Y-34242069D01*
X89243119Y-34241162D01*
X89243116Y-34241161D01*
X89033373Y-34203800D01*
X89033367Y-34203799D01*
X89028284Y-34202894D01*
X88954452Y-34201992D01*
X88810081Y-34200228D01*
X88810079Y-34200228D01*
X88804911Y-34200165D01*
X88584091Y-34233955D01*
X88371756Y-34303357D01*
X88173607Y-34406507D01*
X88169474Y-34409610D01*
X88169471Y-34409612D01*
X87999100Y-34537530D01*
X87994965Y-34540635D01*
X87840629Y-34702138D01*
X87733201Y-34859621D01*
X87678293Y-34904621D01*
X87607768Y-34912792D01*
X87544021Y-34881538D01*
X87523324Y-34857054D01*
X87442822Y-34732617D01*
X87442820Y-34732614D01*
X87440014Y-34728277D01*
X87289670Y-34563051D01*
X87285619Y-34559852D01*
X87285615Y-34559848D01*
X87118414Y-34427800D01*
X87118410Y-34427798D01*
X87114359Y-34424598D01*
X87078028Y-34404542D01*
X87062136Y-34395769D01*
X86918789Y-34316638D01*
X86913920Y-34314914D01*
X86913916Y-34314912D01*
X86713087Y-34243795D01*
X86713083Y-34243794D01*
X86708212Y-34242069D01*
X86703119Y-34241162D01*
X86703116Y-34241161D01*
X86493373Y-34203800D01*
X86493367Y-34203799D01*
X86488284Y-34202894D01*
X86414452Y-34201992D01*
X86270081Y-34200228D01*
X86270079Y-34200228D01*
X86264911Y-34200165D01*
X86044091Y-34233955D01*
X85831756Y-34303357D01*
X85633607Y-34406507D01*
X85629474Y-34409610D01*
X85629471Y-34409612D01*
X85459100Y-34537530D01*
X85454965Y-34540635D01*
X85300629Y-34702138D01*
X85193201Y-34859621D01*
X85138293Y-34904621D01*
X85067768Y-34912792D01*
X85004021Y-34881538D01*
X84983324Y-34857054D01*
X84902822Y-34732617D01*
X84902820Y-34732614D01*
X84900014Y-34728277D01*
X84749670Y-34563051D01*
X84745619Y-34559852D01*
X84745615Y-34559848D01*
X84578414Y-34427800D01*
X84578410Y-34427798D01*
X84574359Y-34424598D01*
X84538028Y-34404542D01*
X84522136Y-34395769D01*
X84378789Y-34316638D01*
X84373920Y-34314914D01*
X84373916Y-34314912D01*
X84173087Y-34243795D01*
X84173083Y-34243794D01*
X84168212Y-34242069D01*
X84163119Y-34241162D01*
X84163116Y-34241161D01*
X83953373Y-34203800D01*
X83953367Y-34203799D01*
X83948284Y-34202894D01*
X83874452Y-34201992D01*
X83730081Y-34200228D01*
X83730079Y-34200228D01*
X83724911Y-34200165D01*
X83504091Y-34233955D01*
X83291756Y-34303357D01*
X83093607Y-34406507D01*
X83089474Y-34409610D01*
X83089471Y-34409612D01*
X82919100Y-34537530D01*
X82914965Y-34540635D01*
X82760629Y-34702138D01*
X82653201Y-34859621D01*
X82598293Y-34904621D01*
X82527768Y-34912792D01*
X82464021Y-34881538D01*
X82443324Y-34857054D01*
X82362822Y-34732617D01*
X82362820Y-34732614D01*
X82360014Y-34728277D01*
X82209670Y-34563051D01*
X82205619Y-34559852D01*
X82205615Y-34559848D01*
X82038414Y-34427800D01*
X82038410Y-34427798D01*
X82034359Y-34424598D01*
X81998028Y-34404542D01*
X81982136Y-34395769D01*
X81838789Y-34316638D01*
X81833920Y-34314914D01*
X81833916Y-34314912D01*
X81633087Y-34243795D01*
X81633083Y-34243794D01*
X81628212Y-34242069D01*
X81623119Y-34241162D01*
X81623116Y-34241161D01*
X81413373Y-34203800D01*
X81413367Y-34203799D01*
X81408284Y-34202894D01*
X81334452Y-34201992D01*
X81190081Y-34200228D01*
X81190079Y-34200228D01*
X81184911Y-34200165D01*
X80964091Y-34233955D01*
X80751756Y-34303357D01*
X80553607Y-34406507D01*
X80549474Y-34409610D01*
X80549471Y-34409612D01*
X80379100Y-34537530D01*
X80374965Y-34540635D01*
X80220629Y-34702138D01*
X80113201Y-34859621D01*
X80058293Y-34904621D01*
X79987768Y-34912792D01*
X79924021Y-34881538D01*
X79903324Y-34857054D01*
X79822822Y-34732617D01*
X79822820Y-34732614D01*
X79820014Y-34728277D01*
X79669670Y-34563051D01*
X79665619Y-34559852D01*
X79665615Y-34559848D01*
X79498414Y-34427800D01*
X79498410Y-34427798D01*
X79494359Y-34424598D01*
X79458028Y-34404542D01*
X79442136Y-34395769D01*
X79298789Y-34316638D01*
X79293920Y-34314914D01*
X79293916Y-34314912D01*
X79093087Y-34243795D01*
X79093083Y-34243794D01*
X79088212Y-34242069D01*
X79083119Y-34241162D01*
X79083116Y-34241161D01*
X78873373Y-34203800D01*
X78873367Y-34203799D01*
X78868284Y-34202894D01*
X78794452Y-34201992D01*
X78650081Y-34200228D01*
X78650079Y-34200228D01*
X78644911Y-34200165D01*
X78424091Y-34233955D01*
X78211756Y-34303357D01*
X78013607Y-34406507D01*
X78009474Y-34409610D01*
X78009471Y-34409612D01*
X77839100Y-34537530D01*
X77834965Y-34540635D01*
X77680629Y-34702138D01*
X77573201Y-34859621D01*
X77518293Y-34904621D01*
X77447768Y-34912792D01*
X77384021Y-34881538D01*
X77363324Y-34857054D01*
X77282822Y-34732617D01*
X77282820Y-34732614D01*
X77280014Y-34728277D01*
X77129670Y-34563051D01*
X77125619Y-34559852D01*
X77125615Y-34559848D01*
X76958414Y-34427800D01*
X76958410Y-34427798D01*
X76954359Y-34424598D01*
X76918028Y-34404542D01*
X76902136Y-34395769D01*
X76758789Y-34316638D01*
X76753920Y-34314914D01*
X76753916Y-34314912D01*
X76553087Y-34243795D01*
X76553083Y-34243794D01*
X76548212Y-34242069D01*
X76543119Y-34241162D01*
X76543116Y-34241161D01*
X76333373Y-34203800D01*
X76333367Y-34203799D01*
X76328284Y-34202894D01*
X76254452Y-34201992D01*
X76110081Y-34200228D01*
X76110079Y-34200228D01*
X76104911Y-34200165D01*
X75884091Y-34233955D01*
X75671756Y-34303357D01*
X75473607Y-34406507D01*
X75469474Y-34409610D01*
X75469471Y-34409612D01*
X75299100Y-34537530D01*
X75294965Y-34540635D01*
X75140629Y-34702138D01*
X75033201Y-34859621D01*
X74978293Y-34904621D01*
X74907768Y-34912792D01*
X74844021Y-34881538D01*
X74823324Y-34857054D01*
X74742822Y-34732617D01*
X74742820Y-34732614D01*
X74740014Y-34728277D01*
X74589670Y-34563051D01*
X74585619Y-34559852D01*
X74585615Y-34559848D01*
X74418414Y-34427800D01*
X74418410Y-34427798D01*
X74414359Y-34424598D01*
X74378028Y-34404542D01*
X74362136Y-34395769D01*
X74218789Y-34316638D01*
X74213920Y-34314914D01*
X74213916Y-34314912D01*
X74013087Y-34243795D01*
X74013083Y-34243794D01*
X74008212Y-34242069D01*
X74003119Y-34241162D01*
X74003116Y-34241161D01*
X73793373Y-34203800D01*
X73793367Y-34203799D01*
X73788284Y-34202894D01*
X73714452Y-34201992D01*
X73570081Y-34200228D01*
X73570079Y-34200228D01*
X73564911Y-34200165D01*
X73344091Y-34233955D01*
X73131756Y-34303357D01*
X72933607Y-34406507D01*
X72929474Y-34409610D01*
X72929471Y-34409612D01*
X72759100Y-34537530D01*
X72754965Y-34540635D01*
X72600629Y-34702138D01*
X72493201Y-34859621D01*
X72438293Y-34904621D01*
X72367768Y-34912792D01*
X72304021Y-34881538D01*
X72283324Y-34857054D01*
X72202822Y-34732617D01*
X72202820Y-34732614D01*
X72200014Y-34728277D01*
X72049670Y-34563051D01*
X72045619Y-34559852D01*
X72045615Y-34559848D01*
X71878414Y-34427800D01*
X71878410Y-34427798D01*
X71874359Y-34424598D01*
X71838028Y-34404542D01*
X71822136Y-34395769D01*
X71678789Y-34316638D01*
X71673920Y-34314914D01*
X71673916Y-34314912D01*
X71473087Y-34243795D01*
X71473083Y-34243794D01*
X71468212Y-34242069D01*
X71463119Y-34241162D01*
X71463116Y-34241161D01*
X71253373Y-34203800D01*
X71253367Y-34203799D01*
X71248284Y-34202894D01*
X71174452Y-34201992D01*
X71030081Y-34200228D01*
X71030079Y-34200228D01*
X71024911Y-34200165D01*
X70804091Y-34233955D01*
X70591756Y-34303357D01*
X70393607Y-34406507D01*
X70389474Y-34409610D01*
X70389471Y-34409612D01*
X70219100Y-34537530D01*
X70214965Y-34540635D01*
X70060629Y-34702138D01*
X69953201Y-34859621D01*
X69898293Y-34904621D01*
X69827768Y-34912792D01*
X69764021Y-34881538D01*
X69743324Y-34857054D01*
X69662822Y-34732617D01*
X69662820Y-34732614D01*
X69660014Y-34728277D01*
X69509670Y-34563051D01*
X69505619Y-34559852D01*
X69505615Y-34559848D01*
X69338414Y-34427800D01*
X69338410Y-34427798D01*
X69334359Y-34424598D01*
X69298028Y-34404542D01*
X69282136Y-34395769D01*
X69138789Y-34316638D01*
X69133920Y-34314914D01*
X69133916Y-34314912D01*
X68933087Y-34243795D01*
X68933083Y-34243794D01*
X68928212Y-34242069D01*
X68923119Y-34241162D01*
X68923116Y-34241161D01*
X68713373Y-34203800D01*
X68713367Y-34203799D01*
X68708284Y-34202894D01*
X68634452Y-34201992D01*
X68490081Y-34200228D01*
X68490079Y-34200228D01*
X68484911Y-34200165D01*
X68264091Y-34233955D01*
X68051756Y-34303357D01*
X67853607Y-34406507D01*
X67849474Y-34409610D01*
X67849471Y-34409612D01*
X67679100Y-34537530D01*
X67674965Y-34540635D01*
X67520629Y-34702138D01*
X67413201Y-34859621D01*
X67358293Y-34904621D01*
X67287768Y-34912792D01*
X67224021Y-34881538D01*
X67203324Y-34857054D01*
X67122822Y-34732617D01*
X67122820Y-34732614D01*
X67120014Y-34728277D01*
X66969670Y-34563051D01*
X66965619Y-34559852D01*
X66965615Y-34559848D01*
X66798414Y-34427800D01*
X66798410Y-34427798D01*
X66794359Y-34424598D01*
X66758028Y-34404542D01*
X66742136Y-34395769D01*
X66598789Y-34316638D01*
X66593920Y-34314914D01*
X66593916Y-34314912D01*
X66393087Y-34243795D01*
X66393083Y-34243794D01*
X66388212Y-34242069D01*
X66383119Y-34241162D01*
X66383116Y-34241161D01*
X66173373Y-34203800D01*
X66173367Y-34203799D01*
X66168284Y-34202894D01*
X66094452Y-34201992D01*
X65950081Y-34200228D01*
X65950079Y-34200228D01*
X65944911Y-34200165D01*
X65724091Y-34233955D01*
X65511756Y-34303357D01*
X65313607Y-34406507D01*
X65309474Y-34409610D01*
X65309471Y-34409612D01*
X65139100Y-34537530D01*
X65134965Y-34540635D01*
X64980629Y-34702138D01*
X64873201Y-34859621D01*
X64818293Y-34904621D01*
X64747768Y-34912792D01*
X64684021Y-34881538D01*
X64663324Y-34857054D01*
X64582822Y-34732617D01*
X64582820Y-34732614D01*
X64580014Y-34728277D01*
X64429670Y-34563051D01*
X64425619Y-34559852D01*
X64425615Y-34559848D01*
X64258414Y-34427800D01*
X64258410Y-34427798D01*
X64254359Y-34424598D01*
X64218028Y-34404542D01*
X64202136Y-34395769D01*
X64058789Y-34316638D01*
X64053920Y-34314914D01*
X64053916Y-34314912D01*
X63853087Y-34243795D01*
X63853083Y-34243794D01*
X63848212Y-34242069D01*
X63843119Y-34241162D01*
X63843116Y-34241161D01*
X63633373Y-34203800D01*
X63633367Y-34203799D01*
X63628284Y-34202894D01*
X63554452Y-34201992D01*
X63410081Y-34200228D01*
X63410079Y-34200228D01*
X63404911Y-34200165D01*
X63184091Y-34233955D01*
X62971756Y-34303357D01*
X62773607Y-34406507D01*
X62769474Y-34409610D01*
X62769471Y-34409612D01*
X62599100Y-34537530D01*
X62594965Y-34540635D01*
X62440629Y-34702138D01*
X62333201Y-34859621D01*
X62278293Y-34904621D01*
X62207768Y-34912792D01*
X62144021Y-34881538D01*
X62123324Y-34857054D01*
X62042822Y-34732617D01*
X62042820Y-34732614D01*
X62040014Y-34728277D01*
X61889670Y-34563051D01*
X61885619Y-34559852D01*
X61885615Y-34559848D01*
X61718414Y-34427800D01*
X61718410Y-34427798D01*
X61714359Y-34424598D01*
X61678028Y-34404542D01*
X61662136Y-34395769D01*
X61518789Y-34316638D01*
X61513920Y-34314914D01*
X61513916Y-34314912D01*
X61313087Y-34243795D01*
X61313083Y-34243794D01*
X61308212Y-34242069D01*
X61303119Y-34241162D01*
X61303116Y-34241161D01*
X61093373Y-34203800D01*
X61093367Y-34203799D01*
X61088284Y-34202894D01*
X61014452Y-34201992D01*
X60870081Y-34200228D01*
X60870079Y-34200228D01*
X60864911Y-34200165D01*
X60644091Y-34233955D01*
X60431756Y-34303357D01*
X60233607Y-34406507D01*
X60229474Y-34409610D01*
X60229471Y-34409612D01*
X60059100Y-34537530D01*
X60054965Y-34540635D01*
X59900629Y-34702138D01*
X59793201Y-34859621D01*
X59738293Y-34904621D01*
X59667768Y-34912792D01*
X59604021Y-34881538D01*
X59583324Y-34857054D01*
X59502822Y-34732617D01*
X59502820Y-34732614D01*
X59500014Y-34728277D01*
X59349670Y-34563051D01*
X59345619Y-34559852D01*
X59345615Y-34559848D01*
X59178414Y-34427800D01*
X59178410Y-34427798D01*
X59174359Y-34424598D01*
X59138028Y-34404542D01*
X59122136Y-34395769D01*
X58978789Y-34316638D01*
X58973920Y-34314914D01*
X58973916Y-34314912D01*
X58773087Y-34243795D01*
X58773083Y-34243794D01*
X58768212Y-34242069D01*
X58763119Y-34241162D01*
X58763116Y-34241161D01*
X58553373Y-34203800D01*
X58553367Y-34203799D01*
X58548284Y-34202894D01*
X58474452Y-34201992D01*
X58330081Y-34200228D01*
X58330079Y-34200228D01*
X58324911Y-34200165D01*
X58104091Y-34233955D01*
X57891756Y-34303357D01*
X57693607Y-34406507D01*
X57689474Y-34409610D01*
X57689471Y-34409612D01*
X57519100Y-34537530D01*
X57514965Y-34540635D01*
X57360629Y-34702138D01*
X57253201Y-34859621D01*
X57198293Y-34904621D01*
X57127768Y-34912792D01*
X57064021Y-34881538D01*
X57043324Y-34857054D01*
X56962822Y-34732617D01*
X56962820Y-34732614D01*
X56960014Y-34728277D01*
X56809670Y-34563051D01*
X56805619Y-34559852D01*
X56805615Y-34559848D01*
X56638414Y-34427800D01*
X56638410Y-34427798D01*
X56634359Y-34424598D01*
X56598028Y-34404542D01*
X56582136Y-34395769D01*
X56438789Y-34316638D01*
X56433920Y-34314914D01*
X56433916Y-34314912D01*
X56233087Y-34243795D01*
X56233083Y-34243794D01*
X56228212Y-34242069D01*
X56223119Y-34241162D01*
X56223116Y-34241161D01*
X56013373Y-34203800D01*
X56013367Y-34203799D01*
X56008284Y-34202894D01*
X55934452Y-34201992D01*
X55790081Y-34200228D01*
X55790079Y-34200228D01*
X55784911Y-34200165D01*
X55564091Y-34233955D01*
X55351756Y-34303357D01*
X55153607Y-34406507D01*
X55149474Y-34409610D01*
X55149471Y-34409612D01*
X54979100Y-34537530D01*
X54974965Y-34540635D01*
X54820629Y-34702138D01*
X54713201Y-34859621D01*
X54658293Y-34904621D01*
X54587768Y-34912792D01*
X54524021Y-34881538D01*
X54503324Y-34857054D01*
X54422822Y-34732617D01*
X54422820Y-34732614D01*
X54420014Y-34728277D01*
X54269670Y-34563051D01*
X54265619Y-34559852D01*
X54265615Y-34559848D01*
X54098414Y-34427800D01*
X54098410Y-34427798D01*
X54094359Y-34424598D01*
X54058028Y-34404542D01*
X54042136Y-34395769D01*
X53898789Y-34316638D01*
X53893920Y-34314914D01*
X53893916Y-34314912D01*
X53693087Y-34243795D01*
X53693083Y-34243794D01*
X53688212Y-34242069D01*
X53683119Y-34241162D01*
X53683116Y-34241161D01*
X53473373Y-34203800D01*
X53473367Y-34203799D01*
X53468284Y-34202894D01*
X53394452Y-34201992D01*
X53250081Y-34200228D01*
X53250079Y-34200228D01*
X53244911Y-34200165D01*
X53024091Y-34233955D01*
X52811756Y-34303357D01*
X52613607Y-34406507D01*
X52609474Y-34409610D01*
X52609471Y-34409612D01*
X52439100Y-34537530D01*
X52434965Y-34540635D01*
X52280629Y-34702138D01*
X52173201Y-34859621D01*
X52118293Y-34904621D01*
X52047768Y-34912792D01*
X51984021Y-34881538D01*
X51963324Y-34857054D01*
X51882822Y-34732617D01*
X51882820Y-34732614D01*
X51880014Y-34728277D01*
X51729670Y-34563051D01*
X51725619Y-34559852D01*
X51725615Y-34559848D01*
X51558414Y-34427800D01*
X51558410Y-34427798D01*
X51554359Y-34424598D01*
X51518028Y-34404542D01*
X51502136Y-34395769D01*
X51358789Y-34316638D01*
X51353920Y-34314914D01*
X51353916Y-34314912D01*
X51153087Y-34243795D01*
X51153083Y-34243794D01*
X51148212Y-34242069D01*
X51143119Y-34241162D01*
X51143116Y-34241161D01*
X50933373Y-34203800D01*
X50933367Y-34203799D01*
X50928284Y-34202894D01*
X50854452Y-34201992D01*
X50710081Y-34200228D01*
X50710079Y-34200228D01*
X50704911Y-34200165D01*
X50484091Y-34233955D01*
X50271756Y-34303357D01*
X50073607Y-34406507D01*
X50069474Y-34409610D01*
X50069471Y-34409612D01*
X49899100Y-34537530D01*
X49894965Y-34540635D01*
X49740629Y-34702138D01*
X49633201Y-34859621D01*
X49578293Y-34904621D01*
X49507768Y-34912792D01*
X49444021Y-34881538D01*
X49423324Y-34857054D01*
X49342822Y-34732617D01*
X49342820Y-34732614D01*
X49340014Y-34728277D01*
X49189670Y-34563051D01*
X49185619Y-34559852D01*
X49185615Y-34559848D01*
X49018414Y-34427800D01*
X49018410Y-34427798D01*
X49014359Y-34424598D01*
X48978028Y-34404542D01*
X48962136Y-34395769D01*
X48818789Y-34316638D01*
X48813920Y-34314914D01*
X48813916Y-34314912D01*
X48613087Y-34243795D01*
X48613083Y-34243794D01*
X48608212Y-34242069D01*
X48603119Y-34241162D01*
X48603116Y-34241161D01*
X48393373Y-34203800D01*
X48393367Y-34203799D01*
X48388284Y-34202894D01*
X48314452Y-34201992D01*
X48170081Y-34200228D01*
X48170079Y-34200228D01*
X48164911Y-34200165D01*
X47944091Y-34233955D01*
X47731756Y-34303357D01*
X47533607Y-34406507D01*
X47529474Y-34409610D01*
X47529471Y-34409612D01*
X47359100Y-34537530D01*
X47354965Y-34540635D01*
X47200629Y-34702138D01*
X47093201Y-34859621D01*
X47038293Y-34904621D01*
X46967768Y-34912792D01*
X46904021Y-34881538D01*
X46883324Y-34857054D01*
X46802822Y-34732617D01*
X46802820Y-34732614D01*
X46800014Y-34728277D01*
X46649670Y-34563051D01*
X46645619Y-34559852D01*
X46645615Y-34559848D01*
X46478414Y-34427800D01*
X46478410Y-34427798D01*
X46474359Y-34424598D01*
X46438028Y-34404542D01*
X46422136Y-34395769D01*
X46278789Y-34316638D01*
X46273920Y-34314914D01*
X46273916Y-34314912D01*
X46073087Y-34243795D01*
X46073083Y-34243794D01*
X46068212Y-34242069D01*
X46063119Y-34241162D01*
X46063116Y-34241161D01*
X45853373Y-34203800D01*
X45853367Y-34203799D01*
X45848284Y-34202894D01*
X45774452Y-34201992D01*
X45630081Y-34200228D01*
X45630079Y-34200228D01*
X45624911Y-34200165D01*
X45404091Y-34233955D01*
X45191756Y-34303357D01*
X44993607Y-34406507D01*
X44989474Y-34409610D01*
X44989471Y-34409612D01*
X44819100Y-34537530D01*
X44814965Y-34540635D01*
X44660629Y-34702138D01*
X44553201Y-34859621D01*
X44498293Y-34904621D01*
X44427768Y-34912792D01*
X44364021Y-34881538D01*
X44343324Y-34857054D01*
X44262822Y-34732617D01*
X44262820Y-34732614D01*
X44260014Y-34728277D01*
X44109670Y-34563051D01*
X44105619Y-34559852D01*
X44105615Y-34559848D01*
X43938414Y-34427800D01*
X43938410Y-34427798D01*
X43934359Y-34424598D01*
X43898028Y-34404542D01*
X43882136Y-34395769D01*
X43738789Y-34316638D01*
X43733920Y-34314914D01*
X43733916Y-34314912D01*
X43533087Y-34243795D01*
X43533083Y-34243794D01*
X43528212Y-34242069D01*
X43523119Y-34241162D01*
X43523116Y-34241161D01*
X43313373Y-34203800D01*
X43313367Y-34203799D01*
X43308284Y-34202894D01*
X43234452Y-34201992D01*
X43090081Y-34200228D01*
X43090079Y-34200228D01*
X43084911Y-34200165D01*
X42864091Y-34233955D01*
X42651756Y-34303357D01*
X42453607Y-34406507D01*
X42449474Y-34409610D01*
X42449471Y-34409612D01*
X42279100Y-34537530D01*
X42274965Y-34540635D01*
X42120629Y-34702138D01*
X42013201Y-34859621D01*
X41958293Y-34904621D01*
X41887768Y-34912792D01*
X41824021Y-34881538D01*
X41803324Y-34857054D01*
X41722822Y-34732617D01*
X41722820Y-34732614D01*
X41720014Y-34728277D01*
X41569670Y-34563051D01*
X41565619Y-34559852D01*
X41565615Y-34559848D01*
X41398414Y-34427800D01*
X41398410Y-34427798D01*
X41394359Y-34424598D01*
X41358028Y-34404542D01*
X41342136Y-34395769D01*
X41198789Y-34316638D01*
X41193920Y-34314914D01*
X41193916Y-34314912D01*
X40993087Y-34243795D01*
X40993083Y-34243794D01*
X40988212Y-34242069D01*
X40983119Y-34241162D01*
X40983116Y-34241161D01*
X40773373Y-34203800D01*
X40773367Y-34203799D01*
X40768284Y-34202894D01*
X40694452Y-34201992D01*
X40550081Y-34200228D01*
X40550079Y-34200228D01*
X40544911Y-34200165D01*
X40324091Y-34233955D01*
X40111756Y-34303357D01*
X39913607Y-34406507D01*
X39909474Y-34409610D01*
X39909471Y-34409612D01*
X39739100Y-34537530D01*
X39734965Y-34540635D01*
X39580629Y-34702138D01*
X39577720Y-34706403D01*
X39577714Y-34706411D01*
X39565404Y-34724457D01*
X39473204Y-34859618D01*
X39472898Y-34860066D01*
X39417987Y-34905069D01*
X39347462Y-34913240D01*
X39283715Y-34881986D01*
X39263018Y-34857502D01*
X39182426Y-34732926D01*
X39176136Y-34724757D01*
X39032806Y-34567240D01*
X39025273Y-34560215D01*
X38858139Y-34428222D01*
X38849552Y-34422517D01*
X38663117Y-34319599D01*
X38653705Y-34315369D01*
X38452959Y-34244280D01*
X38442988Y-34241646D01*
X38371837Y-34228972D01*
X38358540Y-34230432D01*
X38354000Y-34244989D01*
X38354000Y-39439884D01*
X37846000Y-39439884D01*
X37846000Y-38372115D01*
X37841525Y-38356876D01*
X37840135Y-38355671D01*
X37832452Y-38354000D01*
X36760116Y-38354000D01*
X36744877Y-38358475D01*
X36743672Y-38359865D01*
X36742001Y-38367548D01*
X36742001Y-38994669D01*
X34557299Y-38994669D01*
X34723584Y-38862399D01*
X34800264Y-38801405D01*
X34802958Y-38798664D01*
X34802962Y-38798660D01*
X35025513Y-38572190D01*
X35025517Y-38572185D01*
X35028208Y-38569447D01*
X35226185Y-38311439D01*
X35391242Y-38031227D01*
X35479658Y-37827885D01*
X36742000Y-37827885D01*
X36746475Y-37843124D01*
X36747865Y-37844329D01*
X36755548Y-37846000D01*
X37827885Y-37846000D01*
X37843124Y-37841525D01*
X37844329Y-37840135D01*
X37846000Y-37832452D01*
X37846000Y-35832115D01*
X37841525Y-35816876D01*
X37840135Y-35815671D01*
X37832452Y-35814000D01*
X36783225Y-35814000D01*
X36769694Y-35817973D01*
X36768257Y-35827966D01*
X36798565Y-35962446D01*
X36801645Y-35972275D01*
X36881770Y-36169603D01*
X36886413Y-36178794D01*
X36997694Y-36360388D01*
X37003777Y-36368699D01*
X37143213Y-36529667D01*
X37150578Y-36536881D01*
X37155966Y-36541354D01*
X37195599Y-36600258D01*
X37197095Y-36671239D01*
X37159978Y-36731761D01*
X37119707Y-36756278D01*
X37011948Y-36796675D01*
X36996351Y-36805214D01*
X36894276Y-36881715D01*
X36881715Y-36894276D01*
X36805214Y-36996351D01*
X36796676Y-37011946D01*
X36751522Y-37132394D01*
X36747895Y-37147649D01*
X36742369Y-37198514D01*
X36742000Y-37205328D01*
X36742000Y-37827885D01*
X35479658Y-37827885D01*
X35520920Y-37732988D01*
X35546322Y-37647234D01*
X35562273Y-37593383D01*
X35613285Y-37421169D01*
X35666961Y-37100417D01*
X35681146Y-36775515D01*
X35663234Y-36547922D01*
X35655932Y-36455140D01*
X35655932Y-36455137D01*
X35655630Y-36451305D01*
X35590794Y-36132622D01*
X35487602Y-35824216D01*
X35347595Y-35530684D01*
X35196927Y-35294183D01*
X36764389Y-35294183D01*
X36765912Y-35302607D01*
X36778292Y-35306000D01*
X37827885Y-35306000D01*
X37843124Y-35301525D01*
X37844329Y-35300135D01*
X37846000Y-35292452D01*
X37846000Y-34243102D01*
X37842082Y-34229758D01*
X37827806Y-34227771D01*
X37789324Y-34233660D01*
X37779288Y-34236051D01*
X37576868Y-34302212D01*
X37567359Y-34306209D01*
X37378463Y-34404542D01*
X37369738Y-34410036D01*
X37199433Y-34537905D01*
X37191726Y-34544748D01*
X37044590Y-34698717D01*
X37038104Y-34706727D01*
X36918098Y-34882649D01*
X36913000Y-34891623D01*
X36823338Y-35084783D01*
X36819775Y-35094470D01*
X36764389Y-35294183D01*
X35196927Y-35294183D01*
X35172859Y-35256403D01*
X35035114Y-35089305D01*
X34968442Y-35008425D01*
X34968438Y-35008420D01*
X34965999Y-35005462D01*
X34730098Y-34781601D01*
X34468674Y-34588157D01*
X34322564Y-34505492D01*
X34188981Y-34429914D01*
X34188977Y-34429912D01*
X34185624Y-34428015D01*
X34171347Y-34422101D01*
X33961935Y-34335360D01*
X33885168Y-34303562D01*
X33784593Y-34275670D01*
X33618828Y-34229699D01*
X33558530Y-34192220D01*
X33528067Y-34128091D01*
X33526500Y-34108282D01*
X33526500Y-32448307D01*
X33526768Y-32443949D01*
X33527862Y-32439918D01*
X33527687Y-32430942D01*
X33528787Y-32422032D01*
X33529880Y-32422167D01*
X33532680Y-32400731D01*
X33536937Y-32385886D01*
X33555268Y-32347745D01*
X33571267Y-32325179D01*
X33601179Y-32295267D01*
X33617422Y-32283751D01*
X33623747Y-32279267D01*
X33661888Y-32260937D01*
X33667756Y-32259254D01*
X33676787Y-32256664D01*
X33696314Y-32252934D01*
X33703443Y-32253247D01*
X33712157Y-32251109D01*
X33724524Y-32250500D01*
X92022949Y-32250500D01*
X92042604Y-32252043D01*
G37*
%TD.AperFunction*%
M02*
