<?xml version="1.0" encoding="UTF-8" standalone="no"?>
<!-- Created with Inkscape (http://www.inkscape.org/) -->

<svg
   width="521.617"
   height="239.867"
   id="svg2"
   version="1.1"
   inkscape:version="1.1.1 (3bf5ae0d25, 2021-09-20, custom)"
   sodipodi:docname="MainframeLogo_BW.svg"
   xmlns:inkscape="http://www.inkscape.org/namespaces/inkscape"
   xmlns:sodipodi="http://sodipodi.sourceforge.net/DTD/sodipodi-0.dtd"
   xmlns="http://www.w3.org/2000/svg"
   xmlns:svg="http://www.w3.org/2000/svg"
   xmlns:rdf="http://www.w3.org/1999/02/22-rdf-syntax-ns#"
   xmlns:cc="http://creativecommons.org/ns#"
   xmlns:dc="http://purl.org/dc/elements/1.1/">
  <defs
     id="defs4" />
  <sodipodi:namedview
     id="base"
     pagecolor="#ffffff"
     bordercolor="#666666"
     borderopacity="1.0"
     inkscape:pageopacity="0.0"
     inkscape:pageshadow="2"
     inkscape:zoom="1.4142136"
     inkscape:cx="468.81179"
     inkscape:cy="237.94143"
     inkscape:document-units="px"
     inkscape:current-layer="g3094"
     showgrid="false"
     inkscape:window-width="1920"
     inkscape:window-height="1036"
     inkscape:window-x="0"
     inkscape:window-y="25"
     inkscape:window-maximized="1"
     fit-margin-top="0"
     fit-margin-left="0"
     fit-margin-right="0"
     fit-margin-bottom="0"
     inkscape:pagecheckerboard="0" />
  <metadata
     id="metadata7">
    <rdf:RDF>
      <cc:Work
         rdf:about="">
        <dc:format>image/svg+xml</dc:format>
        <dc:type
           rdf:resource="http://purl.org/dc/dcmitype/StillImage" />
        <dc:title />
      </cc:Work>
    </rdf:RDF>
  </metadata>
  <g
     inkscape:label="Ebene 1"
     inkscape:groupmode="layer"
     id="layer1"
     transform="translate(-73.47721,-138.14297)">
    <g
       id="g3094">
      <path
         style="fill:#000000"
         inkscape:connector-curvature="0"
         d="m 119.90721,357.06397 c -3.083,-3.227 -7.941,-3.737 -11.585,-1.468 l -31.055,-32.52 v -116.291 l 30.292,-28.501 c 3.518,2.463 8.397,2.212 11.647,-0.848 3.724,-3.504 3.902,-9.363 0.399,-13.088 -3.503,-3.724 -9.364,-3.901 -13.088,-0.397 -3.25,3.058 -3.798,7.913 -1.554,11.575 l -31.486,29.622 v 119.448 l 32.103,33.617 c -2.436,3.536 -2.149,8.413 0.934,11.64 3.532,3.698 9.393,3.834 13.091,0.304 3.698,-3.533 3.833,-9.394 0.302,-13.093 z"
         id="path2988" />
      <path
         style="fill:#000000"
         inkscape:connector-curvature="0"
         d="m 197.46321,147.40297 c 0,-5.113 -4.146,-9.26 -9.26,-9.26 -5.114,0 -9.26,4.146 -9.26,9.26 0,4.463 3.161,8.188 7.366,9.063 v 40.82 l -49.926,55.104 c -3.704,-2.174 -8.547,-1.536 -11.544,1.772 -3.433,3.789 -3.145,9.646 0.645,13.078 3.79,3.434 9.646,3.145 13.079,-0.646 2.997,-3.308 3.156,-8.188 0.627,-11.661 l 50.908,-56.188 v -42.279 c 4.204,-0.875 7.365,-4.6 7.365,-9.063 z"
         id="path2990" />
      <path
         style="fill:#000000;stroke:#ffffff;stroke-width:2.6735;stroke-miterlimit:10"
         inkscape:connector-curvature="0"
         stroke-miterlimit="10"
         d="M 225.94921,348.62897"
         id="path2992" />
      <path
         id="path2996"
         d="m 585.83621,339.36997 c -4.465,0 -8.188,3.161 -9.063,7.366 h -349.714 l -10.288,-7.335 c 1.863,-5.456 2.868,-11.424 2.868,-17.773 0,-24.546 -17.576,-45.031 -40.746,-49.455 v 7.746 c 18.977,4.3 33.198,21.36 33.198,41.709 0,21.903 -13.25,38.055 -33.198,41.887 v 7.68 c 16.845,-2.826 30.045,-13.265 36.466,-28.146 l 10.487,7.479 h 350.926 c 0.875,4.203 4.6,7.362 9.064,7.362 5.111,0 9.258,-4.146 9.258,-9.26 0.002,-5.113 -4.144,-9.26 -9.258,-9.26 z"
         inkscape:connector-curvature="0"
         style="fill:#000000" />
      <path
         id="path2998"
         d="m 131.75121,288.58997 -23.753,-21.711 v -52.411 c 4.205,-0.875 7.365,-4.6 7.365,-9.063 0,-5.113 -4.146,-9.26 -9.259,-9.26 -5.113,0 -9.259,4.146 -9.259,9.26 0,4.463 3.16,8.188 7.364,9.063 v 54.08 l 25.159,22.998 c -6.252,8.397 -9.96,18.812 -9.96,30.083 0,23.991 16.795,44.104 39.191,49.127 v -7.798 c -18.194,-4.859 -31.643,-21.543 -31.643,-41.329 0,-19.787 13.448,-36.474 31.643,-41.331 v -7.798 c -10.601,2.378 -19.944,8.139 -26.848,16.09 z"
         inkscape:connector-curvature="0"
         style="fill:#000000" />
      <path
         id="path3002"
         d="m 510.89921,292.37597 h 56.561 v -11.366 h -56.561 z m 0,22.727 h 56.561 v -11.363 h -56.561 z m 56.56,11.363 h -56.561 v 11.366 h 56.561 z m -106.75,11.366 h 12.746 v -0.04 l 16.25,-32.16 v 32.2 h 11.311 v -56.822 h -11.572 l -22.359,44.207 -22.361,-44.207 h -11.574 v 56.822 h 11.309 v -32.161 z m -35.002,0 -24.547,-56.822 h -12.291 l -24.549,56.822 h 12.33 l 18.363,-42.541 18.402,42.541 z m -84.359,0 h 17.383 l -26.545,-22.729 h 3.508 c 12.566,0 18.854,-5.682 18.854,-17.047 0,-11.361 -6.287,-17.045 -18.854,-17.045 h -37.706 v 11.366 h 35.819 c 6.283,0 9.426,1.893 9.426,5.68 0,3.789 -3.143,5.684 -9.426,5.684 h -35.819 v 11.363 h 16.816 z m -98.013,-45.456 h 45.246 v -11.366 h -56.558 v 56.822 h 11.312 v -22.729 h 45.246 v -11.363 h -45.246 z"
         inkscape:connector-curvature="0"
         style="fill:#000000" />
      <path
         style="fill:#000000"
         inkscape:connector-curvature="0"
         d="m 442.56321,267.25297 h 11.502 v -56.821 h -11.314 v 39.584 l -33.709,-39.584 h -11.539 v 56.821 h 11.314 v -39.585 z m -55.043,-56.822 h -11.313 v 56.821 h 11.313 z m -18.742,56.822 -24.547,-56.822 h -12.291 l -24.548,56.821 h 12.331 l 18.363,-42.54 18.398,42.54 z m -109.191,0 h 12.743 v -0.039 l 16.251,-32.16 v 32.199 h 11.313 v -56.821 h -11.577 l -22.358,44.206 -22.359,-44.206 h -11.576 v 56.821 h 11.312 v -32.162 z"
         id="path3004" />
      <path
         id="path3008"
         d="m 245.31321,368.65997 v -6.218 l 3.114,-0.012 v 15.569 h -3.114 v -6.228 h -9.342 v 6.228 h -3.114 v -15.569 h 3.114 v 6.229 h 9.342 z"
         inkscape:connector-curvature="0"
         style="fill:#000000" />
      <path
         style="fill:#000000"
         d="m 257.01921,371.77397 v 0 h 4.71 l -2.355,-5.43 -2.355,5.43 v 0 0 l -1.352,3.112 v 0 l -1.348,3.114 h -3.395 l 6.758,-15.569 h 3.382 l 6.758,15.569 h -3.384 l -1.35,-3.114 h -7.421 v 0 0 z"
         id="path8635"
         sodipodi:nodetypes="cccccccccccccccccccc" />
      <path
         id="path3012"
         d="m 285.18121,374.88597 v 3.114 h -10.38 c -3.459,0 -5.19,-1.729 -5.19,-5.189 v -5.188 c 0,-3.46 1.73,-5.19 5.19,-5.19 h 10.38 v 3.114 h -9.954 c -1.667,0 -2.502,0.83 -2.502,2.491 v 4.35 c 0,1.666 0.839,2.5 2.513,2.5 z"
         inkscape:connector-curvature="0"
         style="fill:#000000" />
      <path
         id="path3014"
         d="m 291.37921,370.97397 v 7.026 h -3.114 v -15.569 h 3.114 v 7.026 l 7.805,-7.026 h 4.65 l -8.635,7.785 8.635,7.784 h -4.65 z"
         inkscape:connector-curvature="0"
         style="fill:#000000" />
      <path
         id="path3016"
         d="m 312.10921,371.77397 c -3.46,0 -5.189,-1.558 -5.189,-4.672 0,-3.112 1.729,-4.671 5.189,-4.671 h 10.379 v 3.114 h -9.862 c -1.73,0 -2.593,0.521 -2.593,1.557 0,1.038 0.863,1.559 2.593,1.559 h 4.672 c 3.459,0 5.19,1.557 5.19,4.67 0,3.114 -1.73,4.671 -5.19,4.671 h -10.379 v -3.114 h 9.858 c 1.73,0 2.596,-0.519 2.596,-1.557 0,-1.037 -0.866,-1.557 -2.596,-1.557 z"
         inkscape:connector-curvature="0"
         style="fill:#000000" />
      <path
         style="fill:#000000"
         d="m 328.68821,368.65797 v 0 l 6.744,0.002 c 1.73,0 2.596,-0.521 2.596,-1.559 0,-1.036 -0.863,-1.557 -2.596,-1.557 h -6.744 v 3.114 0 l -0.002,3.115 v 0 6.227 h -3.113 v -15.569 h 10.379 c 3.459,0 5.189,1.559 5.189,4.671 0,3.114 -1.73,4.671 -5.189,4.671 h -7.266 v 0 z"
         id="path11683"
         sodipodi:nodetypes="cccssccccccccsssccc" />
      <path
         style="fill:#000000"
         d="m 347.74721,371.77397 v 0 h 4.709 l -2.355,-5.43 -2.354,5.43 v 0 l -1.352,3.112 v 0 l -1.35,3.114 h -3.395 l 6.758,-15.569 h 3.383 l 6.758,15.569 h -3.385 l -1.35,-3.114 h -7.419 v 0 z"
         id="path12819"
         sodipodi:nodetypes="cccccccccccccccccc" />
      <path
         id="path3022"
         d="m 375.90921,374.88597 v 3.114 h -10.379 c -3.459,0 -5.189,-1.729 -5.189,-5.189 v -5.188 c 0,-3.46 1.73,-5.19 5.189,-5.19 h 10.379 v 3.114 h -9.955 c -1.666,0 -2.5,0.83 -2.5,2.491 v 4.35 c 0,1.666 0.838,2.5 2.512,2.5 z"
         inkscape:connector-curvature="0"
         style="fill:#000000" />
      <path
         id="path3024"
         d="m 382.10821,374.88597 h 12.455 v 3.114 h -15.568 v -15.569 h 15.568 v 3.114 h -12.455 v 3.114 h 12.455 v 3.113 h -12.455 z"
         inkscape:connector-curvature="0"
         style="fill:#000000" />
      <path
         style="fill:#000000"
         d="m 418.43621,369.49791 v 0 3.31306 c 0,3.453 -1.73,5.183 -5.189,5.189 l -5.191,0.01 v -0.01 c -3.459,0 -5.188,-1.729 -5.188,-5.189 v -5.188 c 0,-3.46 1.729,-5.19 5.188,-5.19 h 5.191 c 3.459,0 5.189,1.73 5.189,5.19 v 1.87494 0 l -3.113,0.17766 v 0 -1.5356 c 0,-1.729 -0.865,-2.595 -2.598,-2.595 h -4.67 c -1.383,0 -2.074,0.865 -2.074,2.595 v 4.152 c 0,1.729 0.863,2.594 2.594,2.594 h 4.15 c 1.73,0 2.598,-0.864 2.598,-2.594 v -2.6164 0 z"
         id="path3026"
         sodipodi:nodetypes="ccscccsssssccccssssssssccc" />
      <path
         id="path3028"
         d="m 437.15521,374.88597 v 3.114 h -15.568 v -15.569 h 3.113 v 12.455 z"
         inkscape:connector-curvature="0"
         style="fill:#000000" />
      <path
         style="fill:#000000"
         d="m 440.24121,362.42897 v 0 l 10.379,0.002 c 3.459,0 5.188,1.73 5.188,5.19 v 5.188 c 0,3.46 -1.729,5.189 -5.188,5.189 h -10.379 v -15.569 0 l 3.113,3.11603 v 0 9.341 h 6.828 c 1.66,0 2.49,-0.819 2.49,-2.459 v -4.432 c 0.002,-1.633 -0.824,-2.45 -2.478,-2.45 h -6.84 v 0 z"
         id="path3030"
         sodipodi:nodetypes="cccsssccccccsscsccc" />
      <path
         id="path3032"
         d="m 462.07521,374.88597 h 12.455 v 3.114 h -15.569 v -15.569 h 15.568 v 3.114 h -12.455 v 3.114 h 12.455 v 3.113 h -12.455 v 3.114 z"
         inkscape:connector-curvature="0"
         style="fill:#000000" />
      <path
         id="path3034"
         d="m 480.81321,367.15497 v 10.846 h -3.113 v -15.569 h 3.176 l 9.279,10.847 v -10.847 h 3.113 v 15.569 h -3.168 z"
         inkscape:connector-curvature="0"
         style="fill:#000000" />
      <path
         style="fill:#000000"
         d="m 496.50421,377.99997 v 0 -15.569 0 l 3.115,3.113 v 0 3.114 l 7.266,0.002 c 1.385,0 2.074,-0.521 2.074,-1.559 0,-1.036 -0.863,-1.557 -2.594,-1.557 h -6.746 v 0 l -3.115,-3.113 v 0 h 10.381 c 3.459,0 5.189,1.559 5.189,4.671 0,1.729 -0.521,2.769 -1.559,3.114 1.037,0.346 1.559,1.384 1.559,3.113 0,3.114 -1.73,4.671 -5.189,4.671 h -10.381 v 0 l 3.115,-3.114 v 0 h 6.746 c 1.729,0 2.594,-0.519 2.594,-1.557 0,-1.037 -0.689,-1.555 -2.074,-1.555 h -7.266 v 3.112 0 z"
         id="path3036"
         sodipodi:nodetypes="ccccccccssccccsscssccccssscccc" />
      <path
         id="path3038"
         d="m 527.61421,362.43097 h 3.115 v 10.38 c 0,3.46 -1.73,5.189 -5.191,5.189 h -5.189 c -3.459,0 -5.188,-1.729 -5.188,-5.189 v -10.38 h 3.113 v 9.955 c 0,1.666 0.83,2.5 2.49,2.5 h 4.35 c 1.668,0 2.502,-0.836 2.502,-2.511 v -9.944 z"
         inkscape:connector-curvature="0"
         style="fill:#000000" />
      <path
         style="fill:#000000"
         d="m 533.93821,362.43297 v 0 h 10.381 c 3.459,0 5.188,1.559 5.188,4.671 0,3.114 -1.729,4.672 -5.188,4.672 h -0.967 l 7.307,6.228 h -4.783 l -7.307,-6.23 h -1.518 v 6.228 h -3.113 v -15.569 h 0 l 3.115,3.11097 v 0 3.114 l 6.746,0.002 c 1.73,0 2.596,-0.521 2.596,-1.559 0,-1.036 -0.865,-1.557 -2.596,-1.557 h -6.746 v 0 z"
         id="path3040"
         sodipodi:nodetypes="ccssscccccccccccccssccc" />
      <path
         id="path3042"
         d="m 568.16321,369.69797 v 8.303 h -10.381 c -3.459,0 -5.189,-1.729 -5.189,-5.189 v -5.188 c 0,-3.46 1.73,-5.19 5.189,-5.19 h 10.381 v 3.114 h -9.955 c -1.668,0 -2.5,0.83 -2.5,2.491 v 4.35 c 0,1.666 0.836,2.5 2.512,2.5 h 6.828 v -5.188 h 3.115 z"
         inkscape:connector-curvature="0"
         style="fill:#000000" />
      <path
         style="display:inline;fill:#000000"
         d="m 164.45621,293.72997 v 0 l -0.787,0.034 -0.787,-0.149 -0.746,-0.348 -0.687,-0.547 -0.435,-0.577 -0.383,-0.63 -0.312,-0.655 -0.25,-0.7 -0.414,-0.587 -0.574,-0.126 -2.136,0.716 -2.048,0.913 -0.338,0.478 0.093,0.691 0.302,0.673 0.232,0.704 0.149,0.713 0.097,0.708 -0.138,0.864 -0.309,0.763 -0.453,0.639 -0.609,0.478 -0.693,0.342 -0.785,0.148 -0.84,-0.041 -0.837,-0.25 -0.641,-0.371 -0.583,-0.438 -0.563,-0.488 -0.489,-0.559 -0.609,-0.366 -0.59,0.105 -1.688,1.456 -1.553,1.604 -0.113,0.566 0.359,0.604 0.532,0.509 0.491,0.56 0.415,0.603 0.358,0.63 0.227,0.846 0.016,0.799 -0.177,0.771 -0.374,0.678 -0.517,0.58 -0.671,0.427 -0.774,0.27 -0.883,0.081 -0.739,-0.092 -0.711,-0.187 -0.704,-0.255 -0.672,-0.313 -0.703,-0.117 -0.505,0.308 -0.992,1.992 -0.806,2.065 0.114,0.567 0.567,0.427 0.693,0.271 0.67,0.337 0.623,0.384 0.582,0.45 0.532,0.684 0.332,0.757 0.13,0.779 -0.081,0.751 -0.255,0.743 -0.454,0.639 -0.607,0.536 -0.778,0.425 -0.715,0.166 -0.73,0.104 -0.753,0.036 -0.748,-0.045 -0.691,0.156 -0.337,0.479 -0.162,2.204 0.066,2.208 0.321,0.485 0.704,0.174 0.745,10e-4 0.737,0.06 0.743,0.12 0.708,0.192 0.762,0.438 0.588,0.57 0.422,0.664 0.241,0.736 0.03,0.767 -0.153,0.773 -0.349,0.725 -0.561,0.673 -0.592,0.432 -0.653,0.368 -0.667,0.309 -0.699,0.255 -0.597,0.405 -0.125,0.559 0.722,2.093 0.933,2.017 0.486,0.331 0.704,-0.09 0.689,-0.303 0.714,-0.221 0.723,-0.153 0.727,-0.09 0.876,0.13 0.764,0.296 0.669,0.455 0.486,0.598 0.342,0.674 0.157,0.774 -0.048,0.818 -0.245,0.822 -0.387,0.63 -0.448,0.572 -0.508,0.545 -0.552,0.493 -0.38,0.594 0.105,0.579 1.474,1.646 1.646,1.53 0.585,0.11 0.614,-0.346 0.517,-0.523 0.564,-0.484 0.606,-0.415 0.663,-0.345 0.854,-0.223 0.814,-0.016 0.788,0.174 0.69,0.366 0.591,0.507 0.441,0.662 0.27,0.754 0.091,0.867 -0.114,0.718 -0.176,0.709 -0.26,0.691 -0.323,0.656 -0.111,0.687 0.304,0.497 0.005,-0.006 2.019,0.966 2.104,0.789 0.59,-0.104 0.436,-0.557 0.265,-0.688 0.355,-0.65 0.392,-0.611 0.469,-0.571 0.693,-0.517 0.767,-0.33 0.794,-0.127 0.771,0.083 0.74,0.238 0.653,0.444 0.561,0.608 0.429,0.758 0.168,0.702 0.112,0.72 0.039,0.734 -0.048,0.739 0.158,0.678 0.486,0.331 2.248,0.147 2.256,-0.063 0.485,-0.313 0.183,-0.687 -0.016,-0.743 0.06,-0.722 0.135,-0.721 0.206,-0.696 0.446,-0.748 0.572,-0.575 0.683,-0.41 0.752,-0.238 0.785,-0.035 0.779,0.152 0.748,0.341 0.687,0.548 0.431,0.583 0.375,0.64 0.318,0.659 0.256,0.681 0.413,0.585 0.574,0.127 2.134,-0.712 2.05,-0.918 0.339,-0.478 -0.088,-0.686 -0.309,-0.675 -0.226,-0.701 -0.159,-0.713 -0.093,-0.713 0.138,-0.864 0.297,-0.745 0.454,-0.642 0.62,-0.493 0.693,-0.334 0.79,-0.153 0.839,0.042 0.833,0.246 0.642,0.38 0.578,0.433 0.556,0.499 0.5,0.541 0.605,0.373 0.582,-0.093 1.695,-1.458 1.542,-1.62 0.129,-0.565 -0.36,-0.605 -0.543,-0.516 -0.479,-0.55 -0.428,-0.588 -0.345,-0.646 -0.232,-0.841 -0.007,-0.8 0.169,-0.77 0.377,-0.676 0.513,-0.583 0.681,-0.429 0.762,-0.27 0.89,-0.085 0.726,0.108 0.725,0.172 0.692,0.246 0.683,0.32 0.704,0.118 0.49,-0.31 1.006,-1.976 0.796,-2.062 -0.107,-0.58 -0.563,-0.433 -0.704,-0.254 -0.664,-0.347 -0.618,-0.381 -0.582,-0.46 -0.527,-0.68 -0.332,-0.757 -0.132,-0.773 0.078,-0.759 0.244,-0.725 0.451,-0.641 0.622,-0.552 0.777,-0.427 0.711,-0.158 0.74,-0.107 0.747,-0.039 0.754,0.047 0.686,-0.16 0.338,-0.478 0.157,-2.2 -0.063,-2.214 -0.321,-0.483 -0.705,-0.174 -0.75,0.02 -0.742,-0.063 -0.735,-0.132 -0.703,-0.197 -0.764,-0.438 -0.591,-0.564 -0.413,-0.667 -0.242,-0.735 -0.035,-0.771 0.149,-0.767 0.354,-0.732 0.558,-0.674 0.589,-0.426 0.642,-0.374 0.672,-0.314 0.713,-0.245 0.589,-0.403 0.134,-0.561 -0.729,-2.096 -0.929,-2.007 -0.487,-0.332 -0.7,0.087 -0.69,0.301 -0.713,0.222 -0.731,0.154 -0.728,0.091 -0.875,-0.129 -0.772,-0.31 -0.652,-0.444 -0.491,-0.592 -0.344,-0.683 -0.156,-0.774 0.048,-0.82 0.252,-0.818 0.38,-0.632 0.444,-0.566 0.497,-0.554 0.568,-0.49 0.376,-0.588 -0.105,-0.578 -1.486,-1.665 -1.64,-1.501 -0.569,-0.123 -0.623,0.349 -0.521,0.539 -0.559,0.464 -0.62,0.413 -0.642,0.351 -0.863,0.226 -0.812,0.01 -0.789,-0.168 -0.688,-0.371 -0.594,-0.502 -0.437,-0.666 -0.274,-0.75 -0.081,-0.868 0.094,-0.724 0.19,-0.707 0.253,-0.672 0.327,-0.669 0.119,-0.69 -0.321,-0.485 -2.025,-0.991 -2.092,-0.773 -0.589,0.104 -0.432,0.552 -0.281,0.684 -0.342,0.658 -0.389,0.605 -0.464,0.576 -0.699,0.514 -0.766,0.33 -0.794,0.127 -0.768,-0.073 -0.737,-0.246 -0.669,-0.455 -0.554,-0.595 -0.429,-0.757 -0.167,-0.701 -0.104,-0.722 -0.038,-0.733 0.048,-0.74 -0.162,-0.674 -0.487,-0.331 -2.25,-0.157 -2.25,0.067 -0.495,0.316 -0.174,0.686 -0.001,0.73 -0.065,0.728 -0.122,0.728 -0.202,0.69 -0.448,0.749 -0.577,0.582 -0.679,0.404 -0.744,0.242 v 0 l 0.67,3.71 v 0 l 13.269,9.036 -6.145,8.679 -1.768,-1.206 -1.229,1.736 6.191,4.216 1.229,-1.737 -1.769,-1.202 6.146,-8.68 13.267,9.034 -6.145,8.68 -1.768,-1.205 -7.99,11.285 1.771,1.204 -6.145,8.676 -13.267,-9.033 6.143,-8.681 1.77,1.206 1.229,-1.736 -1.77,-1.203 -2.653,-1.808 -1.769,-1.205 -1.229,1.735 1.77,1.205 -6.145,8.679 -13.268,-9.033 6.143,-8.679 1.77,1.205 7.987,-11.283 -1.769,-1.205 6.144,-8.68 v 0 z"
         id="path10082"
         sodipodi:nodetypes="cccccccccccccccccccccccccccccccccccccccccccccccccccccccccccccccccccccccccccccccccccccccccccccccccccccccccccccccccccccccccccccccccccccccccccccccccccccccccccccccccccccccccccccccccccccccccccccccccccccccccccccccccccccccccccccccccccccccccccccccccccccccccccccccccccccccccccccccccccccccccccccccccccccccccccccccccccccccccccccccccccccccccccccccccccccccccccccccccccccccccccccccccccccccccccccccccccccc" />
    </g>
  </g>
</svg>
